<?xml version="1.0" encoding="utf-8" standalone="no"?>
<!DOCTYPE svg PUBLIC "-//W3C//DTD SVG 1.1//EN"
  "http://www.w3.org/Graphics/SVG/1.1/DTD/svg11.dtd">
<!-- Created with matplotlib (https://matplotlib.org/) -->
<svg height="432pt" version="1.1" viewBox="0 0 648 432" width="648pt" xmlns="http://www.w3.org/2000/svg" xmlns:xlink="http://www.w3.org/1999/xlink">
 <defs>
  <style type="text/css">
*{stroke-linecap:butt;stroke-linejoin:round;}
  </style>
 </defs>
 <g id="figure_1">
  <g id="patch_1">
   <path d="M 0 432 
L 648 432 
L 648 0 
L 0 0 
z
" style="fill:#ffffff;"/>
  </g>
  <g id="axes_1">
   <g id="patch_2">
    <path d="M 81 384.48 
L 583.2 384.48 
L 583.2 51.84 
L 81 51.84 
z
" style="fill:#eaeaf2;"/>
   </g>
   <g id="matplotlib.axis_1">
    <g id="xtick_1">
     <g id="line2d_1">
      <path clip-path="url(#p799b87a67a)" d="M 103.827273 384.48 
L 103.827273 51.84 
" style="fill:none;stroke:#ffffff;stroke-linecap:round;"/>
     </g>
     <g id="text_1">
      <!-- 0.0 -->
      <defs>
       <path d="M 4.15625 35.296875 
Q 4.15625 48 6.765625 55.734375 
Q 9.375 63.484375 14.515625 67.671875 
Q 19.671875 71.875 27.484375 71.875 
Q 33.25 71.875 37.59375 69.546875 
Q 41.9375 67.234375 44.765625 62.859375 
Q 47.609375 58.5 49.21875 52.21875 
Q 50.828125 45.953125 50.828125 35.296875 
Q 50.828125 22.703125 48.234375 14.96875 
Q 45.65625 7.234375 40.5 3 
Q 35.359375 -1.21875 27.484375 -1.21875 
Q 17.140625 -1.21875 11.234375 6.203125 
Q 4.15625 15.140625 4.15625 35.296875 
z
M 13.1875 35.296875 
Q 13.1875 17.671875 17.3125 11.828125 
Q 21.4375 6 27.484375 6 
Q 33.546875 6 37.671875 11.859375 
Q 41.796875 17.71875 41.796875 35.296875 
Q 41.796875 52.984375 37.671875 58.78125 
Q 33.546875 64.59375 27.390625 64.59375 
Q 21.34375 64.59375 17.71875 59.46875 
Q 13.1875 52.9375 13.1875 35.296875 
z
" id="ArialMT-48"/>
       <path d="M 9.078125 0 
L 9.078125 10.015625 
L 19.09375 10.015625 
L 19.09375 0 
z
" id="ArialMT-46"/>
      </defs>
      <g style="fill:#262626;" transform="translate(96.182273 401.853594)scale(0.11 -0.11)">
       <use xlink:href="#ArialMT-48"/>
       <use x="55.615234" xlink:href="#ArialMT-46"/>
       <use x="83.398438" xlink:href="#ArialMT-48"/>
      </g>
     </g>
    </g>
    <g id="xtick_2">
     <g id="line2d_2">
      <path clip-path="url(#p799b87a67a)" d="M 195.136364 384.48 
L 195.136364 51.84 
" style="fill:none;stroke:#ffffff;stroke-linecap:round;"/>
     </g>
     <g id="text_2">
      <!-- 0.2 -->
      <defs>
       <path d="M 50.34375 8.453125 
L 50.34375 0 
L 3.03125 0 
Q 2.9375 3.171875 4.046875 6.109375 
Q 5.859375 10.9375 9.828125 15.625 
Q 13.8125 20.3125 21.34375 26.46875 
Q 33.015625 36.03125 37.109375 41.625 
Q 41.21875 47.21875 41.21875 52.203125 
Q 41.21875 57.421875 37.46875 61 
Q 33.734375 64.59375 27.734375 64.59375 
Q 21.390625 64.59375 17.578125 60.78125 
Q 13.765625 56.984375 13.71875 50.25 
L 4.6875 51.171875 
Q 5.609375 61.28125 11.65625 66.578125 
Q 17.71875 71.875 27.9375 71.875 
Q 38.234375 71.875 44.234375 66.15625 
Q 50.25 60.453125 50.25 52 
Q 50.25 47.703125 48.484375 43.546875 
Q 46.734375 39.40625 42.65625 34.8125 
Q 38.578125 30.21875 29.109375 22.21875 
Q 21.1875 15.578125 18.9375 13.203125 
Q 16.703125 10.84375 15.234375 8.453125 
z
" id="ArialMT-50"/>
      </defs>
      <g style="fill:#262626;" transform="translate(187.491364 401.853594)scale(0.11 -0.11)">
       <use xlink:href="#ArialMT-48"/>
       <use x="55.615234" xlink:href="#ArialMT-46"/>
       <use x="83.398438" xlink:href="#ArialMT-50"/>
      </g>
     </g>
    </g>
    <g id="xtick_3">
     <g id="line2d_3">
      <path clip-path="url(#p799b87a67a)" d="M 286.445455 384.48 
L 286.445455 51.84 
" style="fill:none;stroke:#ffffff;stroke-linecap:round;"/>
     </g>
     <g id="text_3">
      <!-- 0.4 -->
      <defs>
       <path d="M 32.328125 0 
L 32.328125 17.140625 
L 1.265625 17.140625 
L 1.265625 25.203125 
L 33.9375 71.578125 
L 41.109375 71.578125 
L 41.109375 25.203125 
L 50.78125 25.203125 
L 50.78125 17.140625 
L 41.109375 17.140625 
L 41.109375 0 
z
M 32.328125 25.203125 
L 32.328125 57.46875 
L 9.90625 25.203125 
z
" id="ArialMT-52"/>
      </defs>
      <g style="fill:#262626;" transform="translate(278.800455 401.853594)scale(0.11 -0.11)">
       <use xlink:href="#ArialMT-48"/>
       <use x="55.615234" xlink:href="#ArialMT-46"/>
       <use x="83.398438" xlink:href="#ArialMT-52"/>
      </g>
     </g>
    </g>
    <g id="xtick_4">
     <g id="line2d_4">
      <path clip-path="url(#p799b87a67a)" d="M 377.754545 384.48 
L 377.754545 51.84 
" style="fill:none;stroke:#ffffff;stroke-linecap:round;"/>
     </g>
     <g id="text_4">
      <!-- 0.6 -->
      <defs>
       <path d="M 49.75 54.046875 
L 41.015625 53.375 
Q 39.84375 58.546875 37.703125 60.890625 
Q 34.125 64.65625 28.90625 64.65625 
Q 24.703125 64.65625 21.53125 62.3125 
Q 17.390625 59.28125 14.984375 53.46875 
Q 12.59375 47.65625 12.5 36.921875 
Q 15.671875 41.75 20.265625 44.09375 
Q 24.859375 46.4375 29.890625 46.4375 
Q 38.671875 46.4375 44.84375 39.96875 
Q 51.03125 33.5 51.03125 23.25 
Q 51.03125 16.5 48.125 10.71875 
Q 45.21875 4.9375 40.140625 1.859375 
Q 35.0625 -1.21875 28.609375 -1.21875 
Q 17.625 -1.21875 10.6875 6.859375 
Q 3.765625 14.9375 3.765625 33.5 
Q 3.765625 54.25 11.421875 63.671875 
Q 18.109375 71.875 29.4375 71.875 
Q 37.890625 71.875 43.28125 67.140625 
Q 48.6875 62.40625 49.75 54.046875 
z
M 13.875 23.1875 
Q 13.875 18.65625 15.796875 14.5 
Q 17.71875 10.359375 21.1875 8.171875 
Q 24.65625 6 28.46875 6 
Q 34.03125 6 38.03125 10.484375 
Q 42.046875 14.984375 42.046875 22.703125 
Q 42.046875 30.125 38.078125 34.390625 
Q 34.125 38.671875 28.125 38.671875 
Q 22.171875 38.671875 18.015625 34.390625 
Q 13.875 30.125 13.875 23.1875 
z
" id="ArialMT-54"/>
      </defs>
      <g style="fill:#262626;" transform="translate(370.109545 401.853594)scale(0.11 -0.11)">
       <use xlink:href="#ArialMT-48"/>
       <use x="55.615234" xlink:href="#ArialMT-46"/>
       <use x="83.398438" xlink:href="#ArialMT-54"/>
      </g>
     </g>
    </g>
    <g id="xtick_5">
     <g id="line2d_5">
      <path clip-path="url(#p799b87a67a)" d="M 469.063636 384.48 
L 469.063636 51.84 
" style="fill:none;stroke:#ffffff;stroke-linecap:round;"/>
     </g>
     <g id="text_5">
      <!-- 0.8 -->
      <defs>
       <path d="M 17.671875 38.8125 
Q 12.203125 40.828125 9.5625 44.53125 
Q 6.9375 48.25 6.9375 53.421875 
Q 6.9375 61.234375 12.546875 66.546875 
Q 18.171875 71.875 27.484375 71.875 
Q 36.859375 71.875 42.578125 66.421875 
Q 48.296875 60.984375 48.296875 53.171875 
Q 48.296875 48.1875 45.671875 44.5 
Q 43.0625 40.828125 37.75 38.8125 
Q 44.34375 36.671875 47.78125 31.875 
Q 51.21875 27.09375 51.21875 20.453125 
Q 51.21875 11.28125 44.71875 5.03125 
Q 38.234375 -1.21875 27.640625 -1.21875 
Q 17.046875 -1.21875 10.546875 5.046875 
Q 4.046875 11.328125 4.046875 20.703125 
Q 4.046875 27.6875 7.59375 32.390625 
Q 11.140625 37.109375 17.671875 38.8125 
z
M 15.921875 53.71875 
Q 15.921875 48.640625 19.1875 45.40625 
Q 22.46875 42.1875 27.6875 42.1875 
Q 32.765625 42.1875 36.015625 45.375 
Q 39.265625 48.578125 39.265625 53.21875 
Q 39.265625 58.0625 35.90625 61.359375 
Q 32.5625 64.65625 27.59375 64.65625 
Q 22.5625 64.65625 19.234375 61.421875 
Q 15.921875 58.203125 15.921875 53.71875 
z
M 13.09375 20.65625 
Q 13.09375 16.890625 14.875 13.375 
Q 16.65625 9.859375 20.171875 7.921875 
Q 23.6875 6 27.734375 6 
Q 34.03125 6 38.125 10.046875 
Q 42.234375 14.109375 42.234375 20.359375 
Q 42.234375 26.703125 38.015625 30.859375 
Q 33.796875 35.015625 27.4375 35.015625 
Q 21.234375 35.015625 17.15625 30.90625 
Q 13.09375 26.8125 13.09375 20.65625 
z
" id="ArialMT-56"/>
      </defs>
      <g style="fill:#262626;" transform="translate(461.418636 401.853594)scale(0.11 -0.11)">
       <use xlink:href="#ArialMT-48"/>
       <use x="55.615234" xlink:href="#ArialMT-46"/>
       <use x="83.398438" xlink:href="#ArialMT-56"/>
      </g>
     </g>
    </g>
    <g id="xtick_6">
     <g id="line2d_6">
      <path clip-path="url(#p799b87a67a)" d="M 560.372727 384.48 
L 560.372727 51.84 
" style="fill:none;stroke:#ffffff;stroke-linecap:round;"/>
     </g>
     <g id="text_6">
      <!-- 1.0 -->
      <defs>
       <path d="M 37.25 0 
L 28.46875 0 
L 28.46875 56 
Q 25.296875 52.984375 20.140625 49.953125 
Q 14.984375 46.921875 10.890625 45.40625 
L 10.890625 53.90625 
Q 18.265625 57.375 23.78125 62.296875 
Q 29.296875 67.234375 31.59375 71.875 
L 37.25 71.875 
z
" id="ArialMT-49"/>
      </defs>
      <g style="fill:#262626;" transform="translate(552.727727 401.853594)scale(0.11 -0.11)">
       <use xlink:href="#ArialMT-49"/>
       <use x="55.615234" xlink:href="#ArialMT-46"/>
       <use x="83.398438" xlink:href="#ArialMT-48"/>
      </g>
     </g>
    </g>
    <g id="text_7">
     <!-- Decision threshold -->
     <defs>
      <path d="M 7.71875 0 
L 7.71875 71.578125 
L 32.375 71.578125 
Q 40.71875 71.578125 45.125 70.5625 
Q 51.265625 69.140625 55.609375 65.4375 
Q 61.28125 60.640625 64.078125 53.1875 
Q 66.890625 45.75 66.890625 36.1875 
Q 66.890625 28.03125 64.984375 21.734375 
Q 63.09375 15.4375 60.109375 11.296875 
Q 57.125 7.171875 53.578125 4.796875 
Q 50.046875 2.4375 45.046875 1.21875 
Q 40.046875 0 33.546875 0 
z
M 17.1875 8.453125 
L 32.46875 8.453125 
Q 39.546875 8.453125 43.578125 9.765625 
Q 47.609375 11.078125 50 13.484375 
Q 53.375 16.84375 55.25 22.53125 
Q 57.125 28.21875 57.125 36.328125 
Q 57.125 47.5625 53.4375 53.59375 
Q 49.75 59.625 44.484375 61.671875 
Q 40.671875 63.140625 32.234375 63.140625 
L 17.1875 63.140625 
z
" id="ArialMT-68"/>
      <path d="M 42.09375 16.703125 
L 51.171875 15.578125 
Q 49.03125 7.625 43.21875 3.21875 
Q 37.40625 -1.171875 28.375 -1.171875 
Q 17 -1.171875 10.328125 5.828125 
Q 3.65625 12.84375 3.65625 25.484375 
Q 3.65625 38.578125 10.390625 45.796875 
Q 17.140625 53.03125 27.875 53.03125 
Q 38.28125 53.03125 44.875 45.953125 
Q 51.46875 38.875 51.46875 26.03125 
Q 51.46875 25.25 51.421875 23.6875 
L 12.75 23.6875 
Q 13.234375 15.140625 17.578125 10.59375 
Q 21.921875 6.0625 28.421875 6.0625 
Q 33.25 6.0625 36.671875 8.59375 
Q 40.09375 11.140625 42.09375 16.703125 
z
M 13.234375 30.90625 
L 42.1875 30.90625 
Q 41.609375 37.453125 38.875 40.71875 
Q 34.671875 45.796875 27.984375 45.796875 
Q 21.921875 45.796875 17.796875 41.75 
Q 13.671875 37.703125 13.234375 30.90625 
z
" id="ArialMT-101"/>
      <path d="M 40.4375 19 
L 49.078125 17.875 
Q 47.65625 8.9375 41.8125 3.875 
Q 35.984375 -1.171875 27.484375 -1.171875 
Q 16.84375 -1.171875 10.375 5.78125 
Q 3.90625 12.75 3.90625 25.734375 
Q 3.90625 34.125 6.6875 40.421875 
Q 9.46875 46.734375 15.15625 49.875 
Q 20.84375 53.03125 27.546875 53.03125 
Q 35.984375 53.03125 41.359375 48.75 
Q 46.734375 44.484375 48.25 36.625 
L 39.703125 35.296875 
Q 38.484375 40.53125 35.375 43.15625 
Q 32.28125 45.796875 27.875 45.796875 
Q 21.234375 45.796875 17.078125 41.03125 
Q 12.9375 36.28125 12.9375 25.984375 
Q 12.9375 15.53125 16.9375 10.796875 
Q 20.953125 6.0625 27.390625 6.0625 
Q 32.5625 6.0625 36.03125 9.234375 
Q 39.5 12.40625 40.4375 19 
z
" id="ArialMT-99"/>
      <path d="M 6.640625 61.46875 
L 6.640625 71.578125 
L 15.4375 71.578125 
L 15.4375 61.46875 
z
M 6.640625 0 
L 6.640625 51.859375 
L 15.4375 51.859375 
L 15.4375 0 
z
" id="ArialMT-105"/>
      <path d="M 3.078125 15.484375 
L 11.765625 16.84375 
Q 12.5 11.625 15.84375 8.84375 
Q 19.1875 6.0625 25.203125 6.0625 
Q 31.25 6.0625 34.171875 8.515625 
Q 37.109375 10.984375 37.109375 14.3125 
Q 37.109375 17.28125 34.515625 19 
Q 32.71875 20.171875 25.53125 21.96875 
Q 15.875 24.421875 12.140625 26.203125 
Q 8.40625 27.984375 6.46875 31.125 
Q 4.546875 34.28125 4.546875 38.09375 
Q 4.546875 41.546875 6.125 44.5 
Q 7.71875 47.46875 10.453125 49.421875 
Q 12.5 50.921875 16.03125 51.96875 
Q 19.578125 53.03125 23.640625 53.03125 
Q 29.734375 53.03125 34.34375 51.265625 
Q 38.96875 49.515625 41.15625 46.5 
Q 43.359375 43.5 44.1875 38.484375 
L 35.59375 37.3125 
Q 35.015625 41.3125 32.203125 43.546875 
Q 29.390625 45.796875 24.265625 45.796875 
Q 18.21875 45.796875 15.625 43.796875 
Q 13.03125 41.796875 13.03125 39.109375 
Q 13.03125 37.40625 14.109375 36.03125 
Q 15.1875 34.625 17.484375 33.6875 
Q 18.796875 33.203125 25.25 31.453125 
Q 34.578125 28.953125 38.25 27.359375 
Q 41.9375 25.78125 44.03125 22.75 
Q 46.140625 19.734375 46.140625 15.234375 
Q 46.140625 10.84375 43.578125 6.953125 
Q 41.015625 3.078125 36.171875 0.953125 
Q 31.34375 -1.171875 25.25 -1.171875 
Q 15.140625 -1.171875 9.84375 3.03125 
Q 4.546875 7.234375 3.078125 15.484375 
z
" id="ArialMT-115"/>
      <path d="M 3.328125 25.921875 
Q 3.328125 40.328125 11.328125 47.265625 
Q 18.015625 53.03125 27.640625 53.03125 
Q 38.328125 53.03125 45.109375 46.015625 
Q 51.90625 39.015625 51.90625 26.65625 
Q 51.90625 16.65625 48.90625 10.90625 
Q 45.90625 5.171875 40.15625 2 
Q 34.421875 -1.171875 27.640625 -1.171875 
Q 16.75 -1.171875 10.03125 5.8125 
Q 3.328125 12.796875 3.328125 25.921875 
z
M 12.359375 25.921875 
Q 12.359375 15.96875 16.703125 11.015625 
Q 21.046875 6.0625 27.640625 6.0625 
Q 34.1875 6.0625 38.53125 11.03125 
Q 42.875 16.015625 42.875 26.21875 
Q 42.875 35.84375 38.5 40.796875 
Q 34.125 45.75 27.640625 45.75 
Q 21.046875 45.75 16.703125 40.8125 
Q 12.359375 35.890625 12.359375 25.921875 
z
" id="ArialMT-111"/>
      <path d="M 6.59375 0 
L 6.59375 51.859375 
L 14.5 51.859375 
L 14.5 44.484375 
Q 20.21875 53.03125 31 53.03125 
Q 35.6875 53.03125 39.625 51.34375 
Q 43.5625 49.65625 45.515625 46.921875 
Q 47.46875 44.1875 48.25 40.4375 
Q 48.734375 37.984375 48.734375 31.890625 
L 48.734375 0 
L 39.9375 0 
L 39.9375 31.546875 
Q 39.9375 36.921875 38.90625 39.578125 
Q 37.890625 42.234375 35.28125 43.8125 
Q 32.671875 45.40625 29.15625 45.40625 
Q 23.53125 45.40625 19.453125 41.84375 
Q 15.375 38.28125 15.375 28.328125 
L 15.375 0 
z
" id="ArialMT-110"/>
      <path id="ArialMT-32"/>
      <path d="M 25.78125 7.859375 
L 27.046875 0.09375 
Q 23.34375 -0.6875 20.40625 -0.6875 
Q 15.625 -0.6875 12.984375 0.828125 
Q 10.359375 2.34375 9.28125 4.8125 
Q 8.203125 7.28125 8.203125 15.1875 
L 8.203125 45.015625 
L 1.765625 45.015625 
L 1.765625 51.859375 
L 8.203125 51.859375 
L 8.203125 64.703125 
L 16.9375 69.96875 
L 16.9375 51.859375 
L 25.78125 51.859375 
L 25.78125 45.015625 
L 16.9375 45.015625 
L 16.9375 14.703125 
Q 16.9375 10.9375 17.40625 9.859375 
Q 17.875 8.796875 18.921875 8.15625 
Q 19.96875 7.515625 21.921875 7.515625 
Q 23.390625 7.515625 25.78125 7.859375 
z
" id="ArialMT-116"/>
      <path d="M 6.59375 0 
L 6.59375 71.578125 
L 15.375 71.578125 
L 15.375 45.90625 
Q 21.53125 53.03125 30.90625 53.03125 
Q 36.671875 53.03125 40.921875 50.75 
Q 45.171875 48.484375 47 44.484375 
Q 48.828125 40.484375 48.828125 32.859375 
L 48.828125 0 
L 40.046875 0 
L 40.046875 32.859375 
Q 40.046875 39.453125 37.1875 42.453125 
Q 34.328125 45.453125 29.109375 45.453125 
Q 25.203125 45.453125 21.75 43.421875 
Q 18.3125 41.40625 16.84375 37.9375 
Q 15.375 34.46875 15.375 28.375 
L 15.375 0 
z
" id="ArialMT-104"/>
      <path d="M 6.5 0 
L 6.5 51.859375 
L 14.40625 51.859375 
L 14.40625 44 
Q 17.4375 49.515625 20 51.265625 
Q 22.5625 53.03125 25.640625 53.03125 
Q 30.078125 53.03125 34.671875 50.203125 
L 31.640625 42.046875 
Q 28.421875 43.953125 25.203125 43.953125 
Q 22.3125 43.953125 20.015625 42.21875 
Q 17.71875 40.484375 16.75 37.40625 
Q 15.28125 32.71875 15.28125 27.15625 
L 15.28125 0 
z
" id="ArialMT-114"/>
      <path d="M 6.390625 0 
L 6.390625 71.578125 
L 15.1875 71.578125 
L 15.1875 0 
z
" id="ArialMT-108"/>
      <path d="M 40.234375 0 
L 40.234375 6.546875 
Q 35.296875 -1.171875 25.734375 -1.171875 
Q 19.53125 -1.171875 14.328125 2.25 
Q 9.125 5.671875 6.265625 11.796875 
Q 3.421875 17.921875 3.421875 25.875 
Q 3.421875 33.640625 6 39.96875 
Q 8.59375 46.296875 13.765625 49.65625 
Q 18.953125 53.03125 25.34375 53.03125 
Q 30.03125 53.03125 33.6875 51.046875 
Q 37.359375 49.078125 39.65625 45.90625 
L 39.65625 71.578125 
L 48.390625 71.578125 
L 48.390625 0 
z
M 12.453125 25.875 
Q 12.453125 15.921875 16.640625 10.984375 
Q 20.84375 6.0625 26.5625 6.0625 
Q 32.328125 6.0625 36.34375 10.765625 
Q 40.375 15.484375 40.375 25.140625 
Q 40.375 35.796875 36.265625 40.765625 
Q 32.171875 45.75 26.171875 45.75 
Q 20.3125 45.75 16.375 40.96875 
Q 12.453125 36.1875 12.453125 25.875 
z
" id="ArialMT-100"/>
     </defs>
     <g style="fill:#262626;" transform="translate(282.743438 416.629219)scale(0.12 -0.12)">
      <use xlink:href="#ArialMT-68"/>
      <use x="72.216797" xlink:href="#ArialMT-101"/>
      <use x="127.832031" xlink:href="#ArialMT-99"/>
      <use x="177.832031" xlink:href="#ArialMT-105"/>
      <use x="200.048828" xlink:href="#ArialMT-115"/>
      <use x="250.048828" xlink:href="#ArialMT-105"/>
      <use x="272.265625" xlink:href="#ArialMT-111"/>
      <use x="327.880859" xlink:href="#ArialMT-110"/>
      <use x="383.496094" xlink:href="#ArialMT-32"/>
      <use x="411.279297" xlink:href="#ArialMT-116"/>
      <use x="439.0625" xlink:href="#ArialMT-104"/>
      <use x="494.677734" xlink:href="#ArialMT-114"/>
      <use x="527.978516" xlink:href="#ArialMT-101"/>
      <use x="583.59375" xlink:href="#ArialMT-115"/>
      <use x="633.59375" xlink:href="#ArialMT-104"/>
      <use x="689.208984" xlink:href="#ArialMT-111"/>
      <use x="744.824219" xlink:href="#ArialMT-108"/>
      <use x="767.041016" xlink:href="#ArialMT-100"/>
     </g>
    </g>
   </g>
   <g id="matplotlib.axis_2">
    <g id="ytick_1">
     <g id="line2d_7">
      <path clip-path="url(#p799b87a67a)" d="M 81 369.36 
L 583.2 369.36 
" style="fill:none;stroke:#ffffff;stroke-linecap:round;"/>
     </g>
     <g id="text_8">
      <!-- 0.0 -->
      <g style="fill:#262626;" transform="translate(56.21 373.296797)scale(0.11 -0.11)">
       <use xlink:href="#ArialMT-48"/>
       <use x="55.615234" xlink:href="#ArialMT-46"/>
       <use x="83.398438" xlink:href="#ArialMT-48"/>
      </g>
     </g>
    </g>
    <g id="ytick_2">
     <g id="line2d_8">
      <path clip-path="url(#p799b87a67a)" d="M 81 328.079841 
L 583.2 328.079841 
" style="fill:none;stroke:#ffffff;stroke-linecap:round;"/>
     </g>
     <g id="text_9">
      <!-- 0.5 -->
      <defs>
       <path d="M 4.15625 18.75 
L 13.375 19.53125 
Q 14.40625 12.796875 18.140625 9.390625 
Q 21.875 6 27.15625 6 
Q 33.5 6 37.890625 10.78125 
Q 42.28125 15.578125 42.28125 23.484375 
Q 42.28125 31 38.0625 35.34375 
Q 33.84375 39.703125 27 39.703125 
Q 22.75 39.703125 19.328125 37.765625 
Q 15.921875 35.84375 13.96875 32.765625 
L 5.71875 33.84375 
L 12.640625 70.609375 
L 48.25 70.609375 
L 48.25 62.203125 
L 19.671875 62.203125 
L 15.828125 42.96875 
Q 22.265625 47.46875 29.34375 47.46875 
Q 38.71875 47.46875 45.15625 40.96875 
Q 51.609375 34.46875 51.609375 24.265625 
Q 51.609375 14.546875 45.953125 7.46875 
Q 39.0625 -1.21875 27.15625 -1.21875 
Q 17.390625 -1.21875 11.203125 4.25 
Q 5.03125 9.71875 4.15625 18.75 
z
" id="ArialMT-53"/>
      </defs>
      <g style="fill:#262626;" transform="translate(56.21 332.016638)scale(0.11 -0.11)">
       <use xlink:href="#ArialMT-48"/>
       <use x="55.615234" xlink:href="#ArialMT-46"/>
       <use x="83.398438" xlink:href="#ArialMT-53"/>
      </g>
     </g>
    </g>
    <g id="ytick_3">
     <g id="line2d_9">
      <path clip-path="url(#p799b87a67a)" d="M 81 286.799682 
L 583.2 286.799682 
" style="fill:none;stroke:#ffffff;stroke-linecap:round;"/>
     </g>
     <g id="text_10">
      <!-- 1.0 -->
      <g style="fill:#262626;" transform="translate(56.21 290.736478)scale(0.11 -0.11)">
       <use xlink:href="#ArialMT-49"/>
       <use x="55.615234" xlink:href="#ArialMT-46"/>
       <use x="83.398438" xlink:href="#ArialMT-48"/>
      </g>
     </g>
    </g>
    <g id="ytick_4">
     <g id="line2d_10">
      <path clip-path="url(#p799b87a67a)" d="M 81 245.519522 
L 583.2 245.519522 
" style="fill:none;stroke:#ffffff;stroke-linecap:round;"/>
     </g>
     <g id="text_11">
      <!-- 1.5 -->
      <g style="fill:#262626;" transform="translate(56.21 249.456319)scale(0.11 -0.11)">
       <use xlink:href="#ArialMT-49"/>
       <use x="55.615234" xlink:href="#ArialMT-46"/>
       <use x="83.398438" xlink:href="#ArialMT-53"/>
      </g>
     </g>
    </g>
    <g id="ytick_5">
     <g id="line2d_11">
      <path clip-path="url(#p799b87a67a)" d="M 81 204.239363 
L 583.2 204.239363 
" style="fill:none;stroke:#ffffff;stroke-linecap:round;"/>
     </g>
     <g id="text_12">
      <!-- 2.0 -->
      <g style="fill:#262626;" transform="translate(56.21 208.17616)scale(0.11 -0.11)">
       <use xlink:href="#ArialMT-50"/>
       <use x="55.615234" xlink:href="#ArialMT-46"/>
       <use x="83.398438" xlink:href="#ArialMT-48"/>
      </g>
     </g>
    </g>
    <g id="ytick_6">
     <g id="line2d_12">
      <path clip-path="url(#p799b87a67a)" d="M 81 162.959204 
L 583.2 162.959204 
" style="fill:none;stroke:#ffffff;stroke-linecap:round;"/>
     </g>
     <g id="text_13">
      <!-- 2.5 -->
      <g style="fill:#262626;" transform="translate(56.21 166.896001)scale(0.11 -0.11)">
       <use xlink:href="#ArialMT-50"/>
       <use x="55.615234" xlink:href="#ArialMT-46"/>
       <use x="83.398438" xlink:href="#ArialMT-53"/>
      </g>
     </g>
    </g>
    <g id="ytick_7">
     <g id="line2d_13">
      <path clip-path="url(#p799b87a67a)" d="M 81 121.679045 
L 583.2 121.679045 
" style="fill:none;stroke:#ffffff;stroke-linecap:round;"/>
     </g>
     <g id="text_14">
      <!-- 3.0 -->
      <defs>
       <path d="M 4.203125 18.890625 
L 12.984375 20.0625 
Q 14.5 12.59375 18.140625 9.296875 
Q 21.78125 6 27 6 
Q 33.203125 6 37.46875 10.296875 
Q 41.75 14.59375 41.75 20.953125 
Q 41.75 27 37.796875 30.921875 
Q 33.84375 34.859375 27.734375 34.859375 
Q 25.25 34.859375 21.53125 33.890625 
L 22.515625 41.609375 
Q 23.390625 41.5 23.921875 41.5 
Q 29.546875 41.5 34.03125 44.421875 
Q 38.53125 47.359375 38.53125 53.46875 
Q 38.53125 58.296875 35.25 61.46875 
Q 31.984375 64.65625 26.8125 64.65625 
Q 21.6875 64.65625 18.265625 61.421875 
Q 14.84375 58.203125 13.875 51.765625 
L 5.078125 53.328125 
Q 6.6875 62.15625 12.390625 67.015625 
Q 18.109375 71.875 26.609375 71.875 
Q 32.46875 71.875 37.390625 69.359375 
Q 42.328125 66.84375 44.9375 62.5 
Q 47.5625 58.15625 47.5625 53.265625 
Q 47.5625 48.640625 45.0625 44.828125 
Q 42.578125 41.015625 37.703125 38.765625 
Q 44.046875 37.3125 47.5625 32.6875 
Q 51.078125 28.078125 51.078125 21.140625 
Q 51.078125 11.765625 44.234375 5.25 
Q 37.40625 -1.265625 26.953125 -1.265625 
Q 17.53125 -1.265625 11.296875 4.34375 
Q 5.078125 9.96875 4.203125 18.890625 
z
" id="ArialMT-51"/>
      </defs>
      <g style="fill:#262626;" transform="translate(56.21 125.615842)scale(0.11 -0.11)">
       <use xlink:href="#ArialMT-51"/>
       <use x="55.615234" xlink:href="#ArialMT-46"/>
       <use x="83.398438" xlink:href="#ArialMT-48"/>
      </g>
     </g>
    </g>
    <g id="ytick_8">
     <g id="line2d_14">
      <path clip-path="url(#p799b87a67a)" d="M 81 80.398885 
L 583.2 80.398885 
" style="fill:none;stroke:#ffffff;stroke-linecap:round;"/>
     </g>
     <g id="text_15">
      <!-- 3.5 -->
      <g style="fill:#262626;" transform="translate(56.21 84.335682)scale(0.11 -0.11)">
       <use xlink:href="#ArialMT-51"/>
       <use x="55.615234" xlink:href="#ArialMT-46"/>
       <use x="83.398438" xlink:href="#ArialMT-53"/>
      </g>
     </g>
    </g>
    <g id="text_16">
     <!-- Score -->
     <defs>
      <path d="M 4.5 23 
L 13.421875 23.78125 
Q 14.0625 18.40625 16.375 14.96875 
Q 18.703125 11.53125 23.578125 9.40625 
Q 28.46875 7.28125 34.578125 7.28125 
Q 39.984375 7.28125 44.140625 8.890625 
Q 48.296875 10.5 50.3125 13.296875 
Q 52.34375 16.109375 52.34375 19.4375 
Q 52.34375 22.796875 50.390625 25.3125 
Q 48.4375 27.828125 43.953125 29.546875 
Q 41.0625 30.671875 31.203125 33.03125 
Q 21.34375 35.40625 17.390625 37.5 
Q 12.25 40.1875 9.734375 44.15625 
Q 7.234375 48.140625 7.234375 53.078125 
Q 7.234375 58.5 10.296875 63.203125 
Q 13.375 67.921875 19.28125 70.359375 
Q 25.203125 72.796875 32.421875 72.796875 
Q 40.375 72.796875 46.453125 70.234375 
Q 52.546875 67.671875 55.8125 62.6875 
Q 59.078125 57.71875 59.328125 51.421875 
L 50.25 50.734375 
Q 49.515625 57.515625 45.28125 60.984375 
Q 41.0625 64.453125 32.8125 64.453125 
Q 24.21875 64.453125 20.28125 61.296875 
Q 16.359375 58.15625 16.359375 53.71875 
Q 16.359375 49.859375 19.140625 47.359375 
Q 21.875 44.875 33.421875 42.265625 
Q 44.96875 39.65625 49.265625 37.703125 
Q 55.515625 34.8125 58.484375 30.390625 
Q 61.46875 25.984375 61.46875 20.21875 
Q 61.46875 14.5 58.203125 9.4375 
Q 54.9375 4.390625 48.796875 1.578125 
Q 42.671875 -1.21875 35.015625 -1.21875 
Q 25.296875 -1.21875 18.71875 1.609375 
Q 12.15625 4.4375 8.421875 10.125 
Q 4.6875 15.828125 4.5 23 
z
" id="ArialMT-83"/>
     </defs>
     <g style="fill:#262626;" transform="translate(49.825 233.833125)rotate(-90)scale(0.12 -0.12)">
      <use xlink:href="#ArialMT-83"/>
      <use x="66.699219" xlink:href="#ArialMT-99"/>
      <use x="116.699219" xlink:href="#ArialMT-111"/>
      <use x="172.314453" xlink:href="#ArialMT-114"/>
      <use x="205.615234" xlink:href="#ArialMT-101"/>
     </g>
    </g>
   </g>
   <g id="line2d_15">
    <path clip-path="url(#p799b87a67a)" d="M 103.827273 279.857036 
L 104.742193 279.41424 
L 105.657114 277.806357 
L 107.486956 273.603819 
L 109.316797 269.27008 
L 110.231718 267.235356 
L 112.061559 263.774201 
L 114.806322 259.462033 
L 118.466005 254.383718 
L 119.380925 253.177479 
L 120.295846 252.189936 
L 121.210767 250.91617 
L 122.125688 249.908587 
L 124.87045 246.463482 
L 129.445054 241.771367 
L 134.019657 237.55667 
L 137.67934 234.216822 
L 138.594261 233.194383 
L 140.424103 231.646641 
L 144.998707 227.819773 
L 149.57331 223.824884 
L 152.318073 221.91495 
L 154.147914 220.771918 
L 155.062835 219.838388 
L 164.212042 212.639311 
L 167.871725 210.400653 
L 168.786646 209.995147 
L 170.616488 208.870954 
L 172.446329 207.935637 
L 174.276171 206.416468 
L 176.106012 205.433112 
L 177.935854 204.26217 
L 179.765695 202.706943 
L 181.595537 201.863441 
L 183.425378 200.584857 
L 184.340299 199.815703 
L 186.17014 198.953976 
L 188.914903 196.95677 
L 189.829823 196.163117 
L 192.574586 194.597918 
L 193.489506 193.991399 
L 194.404427 193.167622 
L 196.234269 192.363104 
L 197.149189 191.703536 
L 198.06411 191.372527 
L 198.979031 190.809693 
L 200.808872 190.372398 
L 204.468555 188.714429 
L 206.298397 187.707851 
L 208.128238 186.722392 
L 209.95808 185.781566 
L 210.873001 185.154559 
L 212.702842 184.527923 
L 215.447604 183.238193 
L 216.362525 182.917903 
L 217.277446 182.353301 
L 218.192367 182.101231 
L 219.107287 181.357895 
L 220.022208 181.01326 
L 220.937129 180.381878 
L 222.76697 179.46089 
L 224.596812 178.899521 
L 225.511733 178.468502 
L 226.426653 177.863523 
L 228.256495 177.325011 
L 229.171416 176.644105 
L 230.086336 176.55073 
L 231.001257 175.732528 
L 231.916178 175.063855 
L 233.746019 174.177396 
L 234.66094 173.245803 
L 237.405702 172.019506 
L 238.320623 171.72492 
L 241.065385 170.138948 
L 241.980306 169.87731 
L 242.895227 169.459813 
L 243.810148 169.281262 
L 248.384751 167.603894 
L 249.299672 167.574623 
L 250.214593 166.842687 
L 253.874276 165.473789 
L 254.789197 164.880772 
L 259.3638 163.218312 
L 260.278721 162.683614 
L 262.108563 161.947102 
L 267.598087 159.375114 
L 268.513008 159.111443 
L 271.25777 158.603715 
L 272.172691 158.119411 
L 275.832374 157.06704 
L 276.747295 157.27106 
L 277.662215 157.087455 
L 278.577136 156.394251 
L 280.406978 155.807079 
L 281.321898 155.06584 
L 284.981581 153.86348 
L 285.896502 153.731456 
L 288.641264 152.392862 
L 290.471106 151.915636 
L 291.386027 151.334189 
L 293.215868 149.857606 
L 294.130789 149.223615 
L 297.790472 147.631548 
L 298.705393 147.578679 
L 299.620313 146.858196 
L 300.535234 146.50593 
L 301.450155 146.456775 
L 302.365076 145.733249 
L 303.279996 145.459208 
L 305.109838 145.187233 
L 306.939679 144.295032 
L 307.8546 143.838521 
L 308.769521 143.79772 
L 309.684442 143.412362 
L 312.429204 142.564715 
L 313.344125 142.057541 
L 314.259045 141.70798 
L 315.173966 141.162347 
L 316.088887 140.842641 
L 317.918728 140.622221 
L 319.74857 139.372279 
L 320.663491 138.340956 
L 322.493332 137.351759 
L 323.408253 137.046009 
L 325.238094 135.487836 
L 326.153015 135.498587 
L 327.067936 135.242872 
L 327.982857 134.747493 
L 328.897777 134.440495 
L 329.812698 134.440067 
L 330.727619 134.199607 
L 331.64254 133.825126 
L 332.55746 134.042168 
L 333.472381 134.103373 
L 334.387302 134.016981 
L 335.302223 133.151799 
L 336.217143 133.0494 
L 337.132064 132.617134 
L 338.961906 132.364224 
L 339.876826 131.438061 
L 340.791747 131.310322 
L 341.706668 130.986562 
L 342.621589 130.927989 
L 343.536509 130.381828 
L 344.45143 130.097614 
L 347.196192 129.691396 
L 348.111113 129.054079 
L 349.026034 128.662714 
L 349.940955 128.030892 
L 350.855875 126.897479 
L 351.770796 127.157693 
L 353.600638 125.898861 
L 354.515558 125.583482 
L 355.430479 125.631007 
L 356.3454 125.398472 
L 357.260321 124.934964 
L 358.175241 124.229621 
L 359.090162 123.944913 
L 360.005083 123.103035 
L 360.920004 122.8779 
L 361.834924 122.482896 
L 362.749845 122.475366 
L 363.664766 122.65884 
L 364.579687 122.439605 
L 365.494607 121.953161 
L 366.409528 121.624111 
L 367.324449 121.519695 
L 368.23937 121.255463 
L 369.15429 121.201442 
L 370.069211 120.859995 
L 370.984132 120.229653 
L 371.899053 120.114741 
L 372.813973 119.553592 
L 373.728894 118.7085 
L 376.473656 118.517099 
L 377.388577 118.596305 
L 378.303498 117.806243 
L 379.218419 116.792069 
L 380.133339 116.91169 
L 381.04826 117.169135 
L 381.963181 116.68667 
L 382.878102 116.333879 
L 383.793022 116.357114 
L 384.707943 116.091646 
L 385.622864 115.422066 
L 386.537785 115.448462 
L 387.452705 114.830324 
L 388.367626 114.673697 
L 390.197468 113.837584 
L 391.112388 113.818765 
L 392.027309 113.484448 
L 393.857151 112.499486 
L 394.772071 113.069197 
L 395.686992 112.994502 
L 396.601913 112.31637 
L 397.516834 112.491258 
L 399.346675 112.034514 
L 400.261596 112.276702 
L 401.176517 112.114776 
L 402.091437 111.774334 
L 405.75112 109.85702 
L 406.666041 108.973654 
L 407.580962 109.709051 
L 408.495883 109.523608 
L 409.410803 108.451251 
L 410.325724 107.871934 
L 412.155566 106.232754 
L 413.070486 104.833477 
L 413.985407 104.702921 
L 414.900328 105.093076 
L 415.815249 104.243101 
L 416.730169 104.104361 
L 417.64509 103.499022 
L 418.560011 102.282771 
L 419.474932 101.737073 
L 420.389852 102.010082 
L 421.304773 101.794174 
L 422.219694 102.110605 
L 424.049535 100.719205 
L 424.964456 98.944218 
L 425.879377 98.587624 
L 426.794298 97.557008 
L 427.709218 97.445642 
L 429.53906 97.002973 
L 430.453981 96.108044 
L 431.368901 96.213459 
L 432.283822 95.199193 
L 433.198743 94.586832 
L 435.943505 91.464143 
L 436.858426 91.313325 
L 437.773347 90.276702 
L 438.688267 90.344623 
L 439.603188 90.637649 
L 440.518109 90.443046 
L 442.34795 91.058498 
L 443.262871 90.500564 
L 444.177792 90.30661 
L 445.092713 89.801567 
L 446.007633 88.840679 
L 446.922554 89.165185 
L 447.837475 87.441874 
L 449.667316 86.186847 
L 450.582237 85.240508 
L 451.497158 85.754657 
L 452.412079 84.850228 
L 453.326999 85.122674 
L 454.24192 84.412943 
L 455.156841 85.677921 
L 456.071762 83.731323 
L 456.986682 83.360602 
L 457.901603 80.844152 
L 458.816524 79.947165 
L 459.731445 78.780472 
L 461.561286 79.094704 
L 462.476207 79.344585 
L 463.391128 79.156288 
L 464.306048 76.836874 
L 465.220969 77.542915 
L 466.13589 77.610573 
L 467.050811 76.525894 
L 467.965731 76.596162 
L 468.880652 77.87355 
L 469.795573 78.689963 
L 470.710494 77.885055 
L 471.625414 78.666111 
L 472.540335 78.708275 
L 473.455256 75.673836 
L 474.370177 77.545594 
L 475.285097 78.729199 
L 476.200018 77.693664 
L 477.114939 77.083215 
L 478.02986 78.182953 
L 478.94478 78.512533 
L 479.859701 79.466019 
L 480.774622 81.261716 
L 481.689543 80.815997 
L 482.604463 80.833726 
L 483.519384 81.779316 
L 484.434305 81.17999 
L 485.349226 80.021731 
L 486.264146 78.583668 
L 487.179067 77.843067 
L 488.093988 78.277053 
L 489.008909 79.565548 
L 489.923829 76.971212 
L 491.753671 78.843755 
L 492.668592 75.412099 
L 493.583512 77.547963 
L 494.498433 77.062937 
L 495.413354 78.200139 
L 496.328275 82.181512 
L 497.243195 82.784348 
L 498.158116 85.380379 
L 499.073037 86.194876 
L 499.987958 88.329354 
L 500.902878 93.224236 
L 501.817799 96.694883 
L 502.73272 96.947431 
L 503.647641 102.034549 
L 505.477482 102.172005 
L 506.392403 104.21602 
L 507.307324 104.83658 
L 508.222244 107.642408 
L 509.137165 104.287268 
L 510.052086 103.825628 
L 510.967007 104.32995 
L 511.881927 103.46381 
L 512.796848 107.506501 
L 513.711769 104.749183 
L 514.62669 106.231016 
L 515.54161 111.290044 
L 516.456531 111.287911 
L 517.371452 114.476377 
L 518.286373 116.758057 
L 519.201293 122.794412 
L 520.116214 124.219304 
L 521.031135 124.68059 
L 521.946056 125.338922 
L 522.860976 128.190032 
L 523.775897 126.282669 
L 524.690818 132.250105 
L 525.605739 135.126702 
L 526.52066 137.415795 
L 527.43558 145.658835 
L 528.350501 143.276961 
L 529.265422 148.027795 
L 530.180343 137.86338 
L 531.095263 152.376313 
L 532.010184 152.243367 
L 532.925105 152.477096 
L 533.840026 165.960639 
L 534.754946 169.389459 
L 535.669867 172.333912 
L 537.499709 191.092242 
L 538.414629 190.220768 
L 539.32955 189.762885 
L 540.244471 186.164864 
L 541.159392 193.362168 
L 542.074312 195.859667 
L 542.989233 177.97116 
L 543.904154 132.746481 
L 544.819075 140.986644 
L 545.733995 155.036836 
L 546.648916 140.280453 
L 547.563837 150.809517 
L 548.478758 115.492413 
L 549.393678 128.758335 
L 550.308599 157.695926 
L 551.22352 181.994446 
L 552.138441 197.10956 
L 553.053361 201.8076 
L 553.968282 223.29757 
L 554.883203 237.292239 
L 555.798124 258.511875 
L 559.457807 359.147343 
L 560.372727 369.36 
L 560.372727 369.36 
" style="fill:none;stroke:#4c72b0;stroke-linecap:round;stroke-width:1.5;"/>
   </g>
   <g id="line2d_16">
    <path clip-path="url(#p799b87a67a)" d="M 103.827273 281.605291 
L 104.742193 281.586166 
L 105.657114 280.90674 
L 106.572035 279.513741 
L 108.401876 275.321579 
L 110.231718 270.764371 
L 111.146639 268.71158 
L 112.97648 265.668385 
L 115.721242 261.619063 
L 118.466005 257.887872 
L 121.210767 254.305987 
L 123.955529 251.283638 
L 124.87045 250.047306 
L 134.934578 240.174891 
L 137.67934 237.648327 
L 138.594261 237.031688 
L 139.509182 236.087469 
L 140.424103 235.43785 
L 147.743469 228.880533 
L 150.488231 226.776033 
L 151.403152 226.251571 
L 153.232993 224.801774 
L 155.977756 222.617559 
L 156.892676 221.995231 
L 157.807597 221.18733 
L 158.722518 220.576172 
L 160.552359 219.124917 
L 162.382201 217.855794 
L 163.297122 217.124356 
L 165.126963 216.00539 
L 167.871725 213.889576 
L 170.616488 211.896894 
L 173.36125 210.465719 
L 175.191091 209.400175 
L 176.106012 208.7238 
L 177.020933 207.877752 
L 177.935854 207.218041 
L 178.850774 206.856006 
L 183.425378 204.164436 
L 184.340299 203.656041 
L 185.25522 202.962985 
L 186.17014 202.546401 
L 187.999982 201.306667 
L 189.829823 200.593356 
L 191.659665 199.405513 
L 192.574586 199.178262 
L 194.404427 198.048316 
L 196.234269 197.010043 
L 197.149189 196.291797 
L 198.06411 195.419188 
L 199.893952 194.353568 
L 200.808872 193.595969 
L 201.723793 193.140272 
L 203.553635 191.88324 
L 204.468555 191.379172 
L 205.383476 190.633627 
L 207.213318 189.452802 
L 208.128238 189.101447 
L 209.95808 187.935949 
L 213.617763 185.402742 
L 215.447604 184.465693 
L 216.362525 183.680285 
L 217.277446 183.314808 
L 219.107287 182.066483 
L 220.022208 181.710516 
L 222.76697 180.190592 
L 223.681891 179.885515 
L 225.511733 178.813471 
L 226.426653 178.535304 
L 228.256495 177.722888 
L 229.171416 177.477235 
L 231.001257 176.42519 
L 232.831099 175.210302 
L 234.66094 174.663526 
L 235.575861 174.21882 
L 236.490782 174.277223 
L 238.320623 173.385838 
L 239.235544 173.227907 
L 240.150465 172.850773 
L 241.065385 172.111967 
L 245.639989 169.929243 
L 247.469831 169.397082 
L 248.384751 168.9201 
L 249.299672 168.656767 
L 250.214593 168.258658 
L 251.129514 167.527567 
L 252.044434 166.978405 
L 253.874276 166.294855 
L 254.789197 165.604302 
L 257.533959 164.241673 
L 258.44888 163.551321 
L 259.3638 163.455703 
L 261.193642 162.787425 
L 263.023483 162.047863 
L 263.938404 161.928628 
L 265.768246 161.002109 
L 266.683166 160.281914 
L 267.598087 160.120728 
L 268.513008 159.751789 
L 269.427929 159.130864 
L 270.342849 158.885887 
L 271.25777 158.796909 
L 272.172691 158.332993 
L 274.002532 157.60942 
L 274.917453 157.149897 
L 275.832374 156.849211 
L 276.747295 156.741994 
L 278.577136 156.074432 
L 279.492057 156.166154 
L 280.406978 155.749042 
L 282.236819 154.123719 
L 283.15174 153.765627 
L 284.066661 153.616964 
L 284.981581 153.096485 
L 285.896502 153.119127 
L 287.726344 152.753489 
L 293.215868 150.314444 
L 294.130789 149.644879 
L 295.04571 149.138067 
L 295.96063 148.418387 
L 296.875551 148.202318 
L 297.790472 147.786958 
L 298.705393 147.524055 
L 299.620313 147.002405 
L 300.535234 146.219886 
L 302.365076 145.355518 
L 303.279996 145.207628 
L 304.194917 144.27589 
L 305.109838 143.87951 
L 306.024759 143.247273 
L 306.939679 142.77384 
L 308.769521 142.020032 
L 309.684442 141.511256 
L 310.599362 140.840764 
L 312.429204 140.664567 
L 313.344125 140.586114 
L 314.259045 139.961435 
L 315.173966 139.699018 
L 316.088887 139.583808 
L 317.003808 139.30018 
L 317.918728 138.855993 
L 318.833649 138.539142 
L 319.74857 138.448117 
L 324.323174 137.011799 
L 325.238094 136.705732 
L 327.067936 135.743227 
L 327.982857 135.66363 
L 329.812698 133.866174 
L 330.727619 133.959037 
L 332.55746 133.017605 
L 333.472381 132.247549 
L 334.387302 131.827559 
L 336.217143 131.652933 
L 338.046985 130.896611 
L 338.961906 130.916916 
L 340.791747 130.284594 
L 341.706668 129.919795 
L 342.621589 129.733723 
L 343.536509 129.166141 
L 344.45143 128.295105 
L 346.281272 127.87841 
L 347.196192 127.189274 
L 348.111113 127.145758 
L 349.026034 126.634867 
L 349.940955 126.292686 
L 350.855875 125.809782 
L 351.770796 124.962617 
L 352.685717 124.268879 
L 353.600638 124.237664 
L 355.430479 122.878525 
L 356.3454 122.933441 
L 357.260321 122.226048 
L 358.175241 121.929981 
L 359.090162 121.46904 
L 360.005083 121.620878 
L 360.920004 121.138553 
L 361.834924 120.887844 
L 363.664766 119.594397 
L 364.579687 119.125076 
L 365.494607 118.380721 
L 367.324449 117.373268 
L 368.23937 117.459351 
L 369.15429 117.768135 
L 370.069211 117.603041 
L 370.984132 117.318198 
L 373.728894 115.782487 
L 375.558736 112.863159 
L 376.473656 111.916045 
L 377.388577 111.856827 
L 378.303498 110.639332 
L 379.218419 110.531489 
L 380.133339 110.971149 
L 381.04826 110.829617 
L 381.963181 110.03962 
L 382.878102 110.213 
L 383.793022 109.800883 
L 384.707943 109.617881 
L 385.622864 108.848865 
L 386.537785 108.86705 
L 387.452705 109.053719 
L 388.367626 108.682268 
L 389.282547 108.108255 
L 390.197468 107.894919 
L 391.112388 107.513589 
L 392.94223 107.388988 
L 393.857151 106.742196 
L 395.686992 106.129263 
L 396.601913 106.359991 
L 397.516834 105.792769 
L 398.431754 105.694588 
L 399.346675 104.792425 
L 400.261596 105.122901 
L 401.176517 104.775013 
L 403.006358 103.568945 
L 403.921279 102.765696 
L 404.8362 102.616142 
L 405.75112 103.06681 
L 406.666041 102.605641 
L 407.580962 102.801422 
L 408.495883 101.125406 
L 409.410803 100.774533 
L 410.325724 100.559465 
L 411.240645 100.988091 
L 412.155566 100.115718 
L 413.985407 99.481246 
L 414.900328 100.607007 
L 415.815249 100.824898 
L 416.730169 99.988747 
L 417.64509 99.602534 
L 418.560011 100.222154 
L 419.474932 99.491832 
L 420.389852 98.945493 
L 421.304773 99.190371 
L 422.219694 98.79846 
L 423.134615 98.831868 
L 424.049535 97.048629 
L 424.964456 97.22293 
L 425.879377 96.063724 
L 426.794298 96.047079 
L 427.709218 95.162138 
L 428.624139 94.752946 
L 429.53906 94.582647 
L 430.453981 95.203276 
L 433.198743 93.815443 
L 434.113664 94.256496 
L 435.028584 94.120245 
L 435.943505 93.210217 
L 436.858426 94.212166 
L 437.773347 94.394218 
L 439.603188 93.46414 
L 440.518109 94.067299 
L 442.34795 92.244901 
L 443.262871 91.46278 
L 444.177792 91.93787 
L 445.092713 92.249565 
L 446.007633 90.667356 
L 446.922554 91.476244 
L 447.837475 91.576101 
L 448.752396 90.539676 
L 449.667316 88.500528 
L 450.582237 87.291057 
L 452.412079 86.282591 
L 453.326999 83.796079 
L 454.24192 84.743849 
L 455.156841 86.385121 
L 456.986682 87.098715 
L 457.901603 86.665804 
L 458.816524 85.959041 
L 459.731445 85.952046 
L 460.646365 84.894085 
L 461.561286 84.295272 
L 462.476207 85.191882 
L 463.391128 83.182677 
L 464.306048 83.062891 
L 465.220969 82.633457 
L 466.13589 83.313675 
L 467.050811 83.029647 
L 467.965731 81.227663 
L 468.880652 80.623559 
L 469.795573 80.259596 
L 470.710494 81.292332 
L 471.625414 81.678944 
L 472.540335 83.395798 
L 473.455256 83.162718 
L 474.370177 83.056749 
L 475.285097 81.310892 
L 476.200018 81.296786 
L 477.114939 80.820952 
L 478.02986 80.685682 
L 478.94478 79.967774 
L 479.859701 79.450751 
L 480.774622 78.302966 
L 481.689543 78.375115 
L 482.604463 76.930351 
L 483.519384 76.702439 
L 484.434305 78.378705 
L 485.349226 80.316449 
L 486.264146 81.53281 
L 487.179067 80.835061 
L 488.093988 80.745767 
L 489.008909 80.848561 
L 489.923829 83.847436 
L 490.83875 80.784798 
L 491.753671 80.309592 
L 492.668592 79.038437 
L 494.498433 81.376966 
L 495.413354 79.886787 
L 496.328275 78.664949 
L 497.243195 80.77508 
L 498.158116 81.664986 
L 499.073037 83.961511 
L 499.987958 84.945276 
L 501.817799 90.077708 
L 502.73272 92.424291 
L 503.647641 95.290065 
L 504.562561 95.797635 
L 505.477482 95.855882 
L 506.392403 100.450413 
L 507.307324 100.199912 
L 508.222244 103.039023 
L 509.137165 106.4501 
L 510.052086 105.631418 
L 510.967007 105.934577 
L 511.881927 114.8779 
L 512.796848 113.186683 
L 513.711769 108.398275 
L 514.62669 113.352061 
L 516.456531 114.32072 
L 517.371452 112.720129 
L 518.286373 115.298433 
L 519.201293 121.308769 
L 521.031135 138.001974 
L 521.946056 143.57056 
L 522.860976 141.762401 
L 523.775897 151.323306 
L 524.690818 153.980574 
L 525.605739 161.076981 
L 526.52066 162.979594 
L 527.43558 156.822267 
L 528.350501 154.359305 
L 529.265422 160.96061 
L 530.180343 152.336568 
L 531.095263 152.622645 
L 532.010184 156.095216 
L 532.925105 165.280916 
L 533.840026 166.677585 
L 534.754946 169.321696 
L 535.669867 179.932331 
L 536.584788 186.028477 
L 538.414629 201.868452 
L 539.32955 205.833752 
L 540.244471 206.398705 
L 541.159392 212.525944 
L 542.074312 214.368819 
L 542.989233 211.902043 
L 543.904154 202.287321 
L 544.819075 212.613681 
L 545.733995 208.702449 
L 546.648916 198.71908 
L 547.563837 202.124161 
L 548.478758 194.154628 
L 549.393678 217.219817 
L 550.308599 202.079951 
L 552.138441 234.180929 
L 555.798124 303.084985 
L 556.713044 321.555348 
L 559.457807 368.379822 
L 560.372727 369.36 
L 560.372727 369.36 
" style="fill:none;stroke:#dd8452;stroke-linecap:round;stroke-width:1.5;"/>
   </g>
   <g id="line2d_17">
    <path clip-path="url(#p799b87a67a)" d="M 103.827273 280.67694 
L 104.742193 280.219966 
L 105.657114 278.513457 
L 109.316797 270.351298 
L 111.146639 266.659581 
L 112.97648 263.534699 
L 115.721242 259.547934 
L 121.210767 252.28763 
L 127.615212 244.749271 
L 128.530133 243.707395 
L 129.445054 242.872941 
L 130.359974 241.844863 
L 134.934578 237.779941 
L 135.849499 236.924159 
L 136.76442 236.242502 
L 138.594261 234.408532 
L 140.424103 232.751093 
L 141.339024 232.099684 
L 144.083786 229.833248 
L 147.743469 227.162066 
L 150.488231 225.129878 
L 152.318073 223.629177 
L 153.232993 223.07308 
L 155.062835 221.512835 
L 162.382201 215.901154 
L 163.297122 215.476332 
L 165.126963 214.16722 
L 166.956805 213.267285 
L 175.191091 208.200513 
L 176.106012 207.683907 
L 177.020933 206.995103 
L 178.850774 205.925337 
L 179.765695 205.301188 
L 181.595537 203.825937 
L 185.25522 201.407774 
L 187.085061 200.524247 
L 187.999982 199.794845 
L 188.914903 199.293594 
L 189.829823 198.589052 
L 190.744744 198.261024 
L 193.489506 196.846142 
L 194.404427 196.523888 
L 195.319348 195.928992 
L 196.234269 195.534375 
L 197.149189 195.013723 
L 200.808872 193.383609 
L 202.638714 192.078761 
L 203.553635 191.309008 
L 204.468555 190.811766 
L 206.298397 190.146736 
L 208.128238 188.979097 
L 209.95808 187.767281 
L 210.873001 187.173524 
L 211.787921 186.854158 
L 212.702842 186.315734 
L 214.532684 185.575819 
L 216.362525 184.670235 
L 218.192367 183.685822 
L 219.107287 183.427669 
L 221.85205 181.903106 
L 223.681891 180.985416 
L 226.426653 180.284814 
L 227.341574 179.961252 
L 228.256495 179.415494 
L 231.001257 178.702155 
L 231.916178 178.178977 
L 232.831099 177.828286 
L 233.746019 177.307504 
L 235.575861 176.449567 
L 236.490782 176.407565 
L 237.405702 175.987263 
L 239.235544 174.732933 
L 240.150465 174.053355 
L 241.065385 173.573182 
L 241.980306 173.268425 
L 243.810148 172.174158 
L 245.639989 171.362614 
L 246.55491 171.195951 
L 247.469831 170.836329 
L 248.384751 170.344109 
L 250.214593 170.076445 
L 251.129514 169.734912 
L 253.874276 168.265247 
L 256.619038 167.238189 
L 260.278721 165.313593 
L 261.193642 164.735112 
L 262.108563 164.39549 
L 263.023483 164.359331 
L 263.938404 163.929241 
L 264.853325 163.641216 
L 265.768246 163.075439 
L 266.683166 162.94896 
L 269.427929 161.431534 
L 270.342849 161.254203 
L 272.172691 160.499481 
L 273.087612 160.023493 
L 274.002532 159.276854 
L 275.832374 159.145701 
L 276.747295 158.589992 
L 277.662215 157.745773 
L 279.492057 157.05147 
L 280.406978 156.369305 
L 281.321898 156.340888 
L 282.236819 155.838119 
L 283.15174 155.507119 
L 284.981581 155.214604 
L 286.811423 154.346019 
L 288.641264 153.580413 
L 289.556185 152.990943 
L 290.471106 152.780212 
L 293.215868 151.631338 
L 294.130789 151.33987 
L 295.04571 151.350072 
L 295.96063 150.742274 
L 298.705393 149.575409 
L 300.535234 148.59294 
L 301.450155 147.715756 
L 304.194917 146.368884 
L 305.109838 146.066198 
L 306.024759 145.413022 
L 306.939679 145.31039 
L 309.684442 143.404136 
L 310.599362 142.826429 
L 311.514283 142.080045 
L 312.429204 141.538573 
L 313.344125 141.335556 
L 314.259045 140.671562 
L 315.173966 140.432393 
L 316.088887 139.961642 
L 317.003808 139.343286 
L 317.918728 138.952338 
L 318.833649 138.91642 
L 319.74857 138.36116 
L 320.663491 138.202303 
L 322.493332 137.402358 
L 324.323174 136.691846 
L 325.238094 136.516582 
L 326.153015 136.056264 
L 327.067936 135.007766 
L 327.982857 134.390051 
L 328.897777 134.090997 
L 329.812698 133.456391 
L 330.727619 133.635187 
L 331.64254 133.435625 
L 332.55746 132.826297 
L 334.387302 132.759468 
L 335.302223 131.953751 
L 337.132064 131.688945 
L 338.961906 131.177849 
L 339.876826 131.055793 
L 340.791747 131.117882 
L 341.706668 131.013999 
L 342.621589 130.480723 
L 343.536509 130.867219 
L 345.366351 130.182489 
L 347.196192 128.471297 
L 348.111113 127.86417 
L 349.026034 127.569901 
L 349.940955 126.887655 
L 350.855875 126.489614 
L 351.770796 126.368012 
L 353.600638 125.400936 
L 354.515558 125.219505 
L 355.430479 124.331859 
L 356.3454 123.803198 
L 357.260321 122.608145 
L 358.175241 122.405733 
L 359.090162 122.596935 
L 361.834924 121.917865 
L 362.749845 120.784064 
L 363.664766 120.279604 
L 366.409528 118.316624 
L 367.324449 117.912295 
L 368.23937 117.686285 
L 369.15429 117.266563 
L 370.069211 116.641646 
L 370.984132 115.756148 
L 371.899053 115.638527 
L 373.728894 115.141032 
L 374.643815 115.086643 
L 375.558736 113.388586 
L 376.473656 113.615607 
L 378.303498 113.219739 
L 380.133339 111.996795 
L 381.04826 111.960221 
L 381.963181 111.7854 
L 382.878102 111.449659 
L 383.793022 110.442457 
L 384.707943 109.998128 
L 385.622864 109.269122 
L 386.537785 108.887385 
L 387.452705 108.689824 
L 388.367626 108.205937 
L 389.282547 108.079186 
L 390.197468 108.130024 
L 391.112388 107.169827 
L 392.027309 106.633659 
L 392.94223 106.287024 
L 394.772071 104.931538 
L 396.601913 105.009316 
L 397.516834 103.779433 
L 398.431754 103.335699 
L 399.346675 102.724054 
L 400.261596 102.54572 
L 401.176517 102.644985 
L 402.091437 102.326735 
L 403.006358 102.69445 
L 403.921279 102.045974 
L 404.8362 101.063713 
L 405.75112 101.772331 
L 406.666041 101.19285 
L 407.580962 101.25718 
L 409.410803 99.220963 
L 410.325724 99.353258 
L 411.240645 98.670342 
L 413.070486 98.402891 
L 414.900328 97.031041 
L 415.815249 97.691626 
L 416.730169 96.747703 
L 417.64509 96.064278 
L 418.560011 95.608272 
L 419.474932 94.999026 
L 421.304773 92.856242 
L 422.219694 92.925817 
L 423.134615 92.336391 
L 424.049535 92.324649 
L 424.964456 90.98817 
L 425.879377 90.944449 
L 426.794298 90.286144 
L 427.709218 89.124998 
L 428.624139 89.056069 
L 429.53906 87.722335 
L 430.453981 87.248075 
L 431.368901 85.6523 
L 432.283822 85.293677 
L 433.198743 86.309593 
L 434.113664 85.204973 
L 437.773347 83.38161 
L 438.688267 84.699522 
L 439.603188 84.511732 
L 440.518109 84.650147 
L 441.43303 85.030942 
L 442.34795 85.879938 
L 443.262871 85.362939 
L 444.177792 85.146096 
L 445.092713 84.779319 
L 446.007633 82.708109 
L 446.922554 82.366885 
L 447.837475 82.739696 
L 448.752396 82.293784 
L 449.667316 80.8863 
L 450.582237 81.423537 
L 451.497158 80.854927 
L 453.326999 81.946214 
L 454.24192 81.849504 
L 455.156841 80.973266 
L 456.071762 81.400807 
L 456.986682 81.195448 
L 457.901603 79.48381 
L 458.816524 78.459808 
L 459.731445 78.402819 
L 460.646365 77.626556 
L 461.561286 78.405463 
L 462.476207 77.8637 
L 463.391128 77.717806 
L 464.306048 74.702392 
L 465.220969 73.616857 
L 466.13589 74.638632 
L 467.050811 73.217513 
L 467.965731 73.6858 
L 468.880652 74.529134 
L 469.795573 74.80203 
L 470.710494 75.246391 
L 471.625414 75.309293 
L 472.540335 74.525114 
L 473.455256 75.585825 
L 474.370177 74.724478 
L 475.285097 75.474445 
L 476.200018 75.159791 
L 477.114939 75.902627 
L 478.02986 76.19445 
L 478.94478 76.288325 
L 479.859701 75.736217 
L 480.774622 76.855525 
L 481.689543 76.531672 
L 482.604463 76.639969 
L 483.519384 76.25164 
L 484.434305 76.998558 
L 485.349226 78.796226 
L 486.264146 75.438676 
L 488.093988 76.214328 
L 489.008909 79.422048 
L 489.923829 78.73727 
L 490.83875 80.294941 
L 491.753671 79.753385 
L 492.668592 82.594872 
L 493.583512 81.292171 
L 494.498433 84.786903 
L 495.413354 84.529669 
L 496.328275 84.471729 
L 497.243195 85.66677 
L 498.158116 85.405461 
L 499.073037 86.739755 
L 499.987958 81.138657 
L 500.902878 80.443512 
L 501.817799 79.488452 
L 503.647641 86.939884 
L 504.562561 85.470899 
L 505.477482 86.194395 
L 506.392403 87.384688 
L 509.137165 94.396907 
L 510.052086 94.443345 
L 510.967007 96.051316 
L 511.881927 94.666563 
L 512.796848 97.34095 
L 513.711769 100.637472 
L 514.62669 104.73812 
L 515.54161 104.595157 
L 516.456531 106.58117 
L 517.371452 106.921506 
L 518.286373 101.516494 
L 519.201293 103.07296 
L 520.116214 111.14443 
L 521.031135 116.683307 
L 521.946056 116.605043 
L 522.860976 122.067409 
L 523.775897 128.412428 
L 524.690818 130.283488 
L 525.605739 128.442672 
L 526.52066 127.220742 
L 527.43558 127.987338 
L 528.350501 133.575644 
L 529.265422 136.427948 
L 531.095263 136.634749 
L 532.010184 141.758971 
L 532.925105 140.828476 
L 533.840026 147.892588 
L 534.754946 151.302838 
L 535.669867 153.243603 
L 536.584788 160.412213 
L 537.499709 157.776788 
L 538.414629 170.429792 
L 539.32955 166.847414 
L 540.244471 179.07883 
L 541.159392 183.200894 
L 542.074312 192.719339 
L 542.989233 195.510573 
L 543.904154 188.596163 
L 544.819075 183.113465 
L 545.733995 156.715859 
L 546.648916 110.379828 
L 547.563837 127.126428 
L 548.478758 92.611828 
L 549.393678 120.02409 
L 553.053361 208.078454 
L 554.883203 240.682313 
L 557.627965 310.120846 
L 558.542886 337.900356 
L 559.457807 360.775782 
L 560.372727 369.36 
L 560.372727 369.36 
" style="fill:none;stroke:#55a868;stroke-linecap:round;stroke-width:1.5;"/>
   </g>
   <g id="line2d_18">
    <path clip-path="url(#p799b87a67a)" d="M 103.827273 280.075098 
L 104.742193 280.04778 
L 105.657114 279.137141 
L 106.572035 277.88487 
L 107.486956 276.297294 
L 109.316797 272.235613 
L 112.061559 266.149755 
L 113.891401 262.925264 
L 115.721242 260.129361 
L 120.295846 254.108726 
L 126.700291 246.993497 
L 131.274895 242.860269 
L 132.189816 242.136966 
L 133.104737 241.147636 
L 134.934578 239.591907 
L 136.76442 237.820031 
L 138.594261 236.233551 
L 144.998707 230.502643 
L 146.828548 229.015326 
L 147.743469 228.076675 
L 150.488231 226.086171 
L 151.403152 225.140788 
L 153.232993 223.730734 
L 155.062835 222.334106 
L 157.807597 220.170334 
L 159.637439 218.769424 
L 160.552359 218.245601 
L 162.382201 216.71266 
L 163.297122 216.268713 
L 164.212042 215.480371 
L 166.041884 214.302257 
L 168.786646 212.316352 
L 170.616488 211.012931 
L 171.531408 210.268888 
L 172.446329 209.777621 
L 175.191091 207.454108 
L 176.106012 206.927417 
L 177.020933 206.239222 
L 177.935854 205.71066 
L 178.850774 204.967519 
L 179.765695 204.476713 
L 182.510457 202.195698 
L 183.425378 201.457539 
L 187.085061 199.243138 
L 187.999982 198.468993 
L 190.744744 196.768606 
L 191.659665 196.057163 
L 197.149189 193.237013 
L 198.979031 191.988988 
L 199.893952 191.499975 
L 200.808872 191.187876 
L 201.723793 190.599303 
L 203.553635 189.674028 
L 204.468555 188.889187 
L 206.298397 187.841715 
L 207.213318 187.520514 
L 209.043159 186.142609 
L 212.702842 184.678513 
L 220.022208 180.953866 
L 220.937129 180.697302 
L 221.85205 180.113141 
L 222.76697 179.814942 
L 223.681891 179.307105 
L 224.596812 179.077409 
L 225.511733 178.699277 
L 226.426653 178.132107 
L 227.341574 177.794205 
L 228.256495 177.050098 
L 231.001257 175.614478 
L 232.831099 175.274493 
L 235.575861 173.789461 
L 237.405702 172.573598 
L 238.320623 172.160386 
L 240.150465 171.553773 
L 242.895227 170.286994 
L 243.810148 170.158039 
L 244.725068 169.59422 
L 245.639989 169.174284 
L 246.55491 169.055241 
L 247.469831 168.747409 
L 248.384751 168.234949 
L 249.299672 167.914394 
L 250.214593 167.303461 
L 251.129514 166.937899 
L 252.044434 166.395203 
L 252.959355 166.174734 
L 254.789197 164.950035 
L 256.619038 164.197917 
L 257.533959 163.546587 
L 260.278721 162.249003 
L 262.108563 162.113751 
L 263.023483 161.783059 
L 263.938404 161.117123 
L 265.768246 160.387843 
L 266.683166 159.893133 
L 268.513008 159.636034 
L 269.427929 159.087782 
L 272.172691 158.010113 
L 273.087612 157.51686 
L 274.917453 156.245268 
L 276.747295 155.412339 
L 277.662215 154.819621 
L 278.577136 154.523791 
L 279.492057 154.056339 
L 280.406978 153.375284 
L 282.236819 152.777743 
L 284.066661 151.930213 
L 284.981581 151.156499 
L 286.811423 150.911206 
L 288.641264 149.604449 
L 289.556185 149.301481 
L 291.386027 148.09511 
L 292.300947 147.928059 
L 299.620313 144.402543 
L 300.535234 144.229085 
L 302.365076 143.256625 
L 303.279996 142.849902 
L 304.194917 142.791542 
L 306.024759 142.14705 
L 307.8546 141.304657 
L 308.769521 141.047021 
L 309.684442 140.259978 
L 310.599362 140.39128 
L 311.514283 139.690293 
L 312.429204 139.525405 
L 313.344125 139.208769 
L 315.173966 138.298295 
L 316.088887 138.084392 
L 317.003808 138.084765 
L 317.918728 137.726337 
L 318.833649 137.940064 
L 319.74857 137.719081 
L 322.493332 136.693634 
L 323.408253 136.07569 
L 327.982857 134.842967 
L 328.897777 134.338743 
L 329.812698 133.651473 
L 331.64254 132.968686 
L 332.55746 132.862034 
L 333.472381 132.471228 
L 336.217143 131.922891 
L 337.132064 131.6685 
L 338.046985 131.267675 
L 338.961906 131.02724 
L 339.876826 130.503044 
L 340.791747 130.117136 
L 342.621589 129.936104 
L 343.536509 129.282733 
L 344.45143 128.309584 
L 345.366351 128.362333 
L 347.196192 127.273612 
L 349.026034 126.801947 
L 350.855875 126.26456 
L 351.770796 125.64461 
L 353.600638 124.870213 
L 354.515558 124.826932 
L 355.430479 124.536662 
L 356.3454 124.039854 
L 357.260321 123.842309 
L 358.175241 123.871158 
L 359.090162 123.184986 
L 360.005083 123.346682 
L 360.920004 122.742847 
L 361.834924 122.300618 
L 362.749845 122.417529 
L 363.664766 122.339039 
L 364.579687 121.867579 
L 365.494607 121.735781 
L 366.409528 121.102272 
L 368.23937 120.274036 
L 369.15429 119.613853 
L 370.069211 119.283743 
L 370.984132 118.69072 
L 371.899053 118.238374 
L 372.813973 118.471297 
L 373.728894 117.960006 
L 375.558736 117.229081 
L 376.473656 116.697522 
L 377.388577 116.532243 
L 378.303498 116.223637 
L 379.218419 116.36516 
L 380.133339 115.93248 
L 381.04826 115.101614 
L 381.963181 114.835032 
L 383.793022 113.367387 
L 384.707943 112.774073 
L 385.622864 112.949042 
L 386.537785 112.158114 
L 388.367626 111.903313 
L 389.282547 111.085888 
L 391.112388 112.101659 
L 392.027309 111.375553 
L 393.857151 110.332083 
L 394.772071 108.937108 
L 396.601913 108.865822 
L 398.431754 107.550574 
L 400.261596 107.185036 
L 401.176517 106.618592 
L 402.091437 107.033071 
L 403.006358 106.350439 
L 403.921279 105.411423 
L 404.8362 105.238653 
L 405.75112 105.245985 
L 406.666041 104.86462 
L 407.580962 104.883531 
L 408.495883 104.082728 
L 409.410803 103.030929 
L 412.155566 100.901309 
L 413.070486 100.593005 
L 413.985407 100.973053 
L 414.900328 101.761579 
L 415.815249 101.64864 
L 416.730169 100.607763 
L 418.560011 99.979248 
L 419.474932 99.248682 
L 421.304773 99.559075 
L 422.219694 99.142744 
L 423.134615 98.53502 
L 424.049535 97.599456 
L 424.964456 98.404593 
L 426.794298 96.542603 
L 427.709218 97.332725 
L 429.53906 97.762372 
L 430.453981 97.652065 
L 431.368901 97.079252 
L 432.283822 97.682561 
L 433.198743 96.473802 
L 434.113664 97.329936 
L 435.028584 96.558111 
L 435.943505 94.970294 
L 436.858426 92.184117 
L 437.773347 91.991801 
L 438.688267 90.976064 
L 439.603188 90.505561 
L 440.518109 91.77719 
L 441.43303 91.187196 
L 442.34795 91.167328 
L 443.262871 91.363192 
L 444.177792 90.943833 
L 446.007633 91.148142 
L 446.922554 89.169368 
L 447.837475 89.168572 
L 448.752396 89.901992 
L 449.667316 90.153274 
L 450.582237 90.114634 
L 451.497158 89.601549 
L 452.412079 89.37141 
L 454.24192 88.606807 
L 455.156841 86.200914 
L 456.071762 87.280783 
L 456.986682 86.977423 
L 457.901603 87.797424 
L 458.816524 87.550499 
L 459.731445 88.293421 
L 460.646365 88.663949 
L 461.561286 88.75783 
L 462.476207 88.166623 
L 463.391128 89.375051 
L 464.306048 88.158375 
L 465.220969 88.793759 
L 466.13589 88.387768 
L 467.050811 86.072914 
L 467.965731 86.537551 
L 468.880652 87.460381 
L 469.795573 87.8024 
L 470.710494 87.663989 
L 471.625414 86.258649 
L 472.540335 85.568286 
L 473.455256 85.330941 
L 474.370177 85.217346 
L 475.285097 84.210837 
L 476.200018 85.097985 
L 477.114939 86.54373 
L 478.02986 86.419607 
L 479.859701 88.590625 
L 480.774622 90.173985 
L 481.689543 86.915876 
L 482.604463 86.542987 
L 483.519384 85.58457 
L 485.349226 88.085251 
L 486.264146 87.926843 
L 487.179067 86.309611 
L 488.093988 88.426915 
L 489.008909 89.290121 
L 489.923829 85.980873 
L 490.83875 87.009079 
L 491.753671 85.998359 
L 492.668592 86.91138 
L 493.583512 87.000593 
L 494.498433 84.937261 
L 495.413354 84.496502 
L 497.243195 78.700913 
L 499.073037 74.926061 
L 499.987958 72.662811 
L 500.902878 76.039822 
L 501.817799 74.13172 
L 502.73272 71.885546 
L 503.647641 76.00592 
L 504.562561 75.598593 
L 505.477482 81.342699 
L 506.392403 84.343914 
L 508.222244 88.606388 
L 509.137165 88.240892 
L 510.052086 86.779225 
L 510.967007 86.581175 
L 511.881927 90.489342 
L 512.796848 88.75243 
L 513.711769 88.339383 
L 514.62669 85.70135 
L 516.456531 92.979265 
L 518.286373 97.028993 
L 519.201293 105.427627 
L 520.116214 103.807729 
L 521.031135 108.840585 
L 521.946056 112.082932 
L 522.860976 101.031386 
L 523.775897 111.245767 
L 524.690818 100.040922 
L 525.605739 93.91274 
L 526.52066 90.22194 
L 527.43558 94.77549 
L 528.350501 90.326032 
L 529.265422 103.82474 
L 530.180343 71.453449 
L 531.095263 91.081132 
L 532.010184 100.590884 
L 533.840026 68.33823 
L 534.754946 66.96 
L 535.669867 85.587962 
L 536.584788 91.516558 
L 537.499709 102.673797 
L 538.414629 98.741714 
L 539.32955 108.037969 
L 540.244471 79.553723 
L 541.159392 96.099041 
L 542.074312 108.043704 
L 545.733995 165.399725 
L 546.648916 175.849736 
L 547.563837 193.65002 
L 550.308599 238.626048 
L 551.22352 211.959887 
L 552.138441 227.88891 
L 553.968282 262.481221 
L 554.883203 280.265715 
L 556.713044 321.670465 
L 557.627965 341.713211 
L 558.542886 359.031086 
L 559.457807 368.771723 
L 560.372727 369.36 
L 560.372727 369.36 
" style="fill:none;stroke:#c44e52;stroke-linecap:round;stroke-width:1.5;"/>
   </g>
   <g id="line2d_19">
    <path clip-path="url(#p799b87a67a)" d="M 103.827273 279.14064 
L 104.742193 278.981621 
L 105.657114 277.6637 
L 108.401876 271.74778 
L 110.231718 267.436936 
L 112.061559 264.009736 
L 113.891401 260.968411 
L 114.806322 259.565341 
L 117.551084 255.851116 
L 120.295846 252.29098 
L 124.87045 246.793094 
L 128.530133 242.702651 
L 134.019657 237.005114 
L 136.76442 234.254173 
L 142.253944 229.513733 
L 143.168865 228.671298 
L 144.998707 227.443657 
L 146.828548 225.770918 
L 147.743469 225.026028 
L 149.57331 223.822531 
L 151.403152 222.398118 
L 152.318073 221.84084 
L 154.147914 220.333896 
L 157.807597 217.857568 
L 167.871725 210.325868 
L 168.786646 209.861156 
L 170.616488 208.544831 
L 172.446329 207.265733 
L 173.36125 206.715643 
L 175.191091 205.107214 
L 176.106012 204.717745 
L 181.595537 201.157072 
L 182.510457 200.413903 
L 186.17014 198.14561 
L 187.999982 197.362221 
L 188.914903 196.904503 
L 190.744744 195.641631 
L 193.489506 194.372446 
L 194.404427 193.734373 
L 195.319348 193.269572 
L 197.149189 192.675833 
L 198.06411 192.004266 
L 200.808872 190.862689 
L 201.723793 190.200588 
L 202.638714 189.769588 
L 203.553635 189.195306 
L 206.298397 187.817785 
L 207.213318 187.310268 
L 208.128238 186.673803 
L 210.873001 185.251622 
L 212.702842 184.646722 
L 214.532684 183.351929 
L 215.447604 182.687389 
L 218.192367 181.569996 
L 220.022208 180.730401 
L 220.937129 180.451606 
L 221.85205 179.791624 
L 222.76697 179.476449 
L 223.681891 179.04272 
L 224.596812 178.364047 
L 226.426653 177.520363 
L 229.171416 176.013419 
L 230.086336 175.766828 
L 231.001257 175.080773 
L 234.66094 173.396334 
L 235.575861 173.171437 
L 236.490782 172.635108 
L 238.320623 172.073175 
L 240.150465 170.93868 
L 241.065385 170.750918 
L 241.980306 170.251257 
L 242.895227 170.236578 
L 244.725068 169.125873 
L 245.639989 168.827226 
L 246.55491 168.653961 
L 247.469831 168.321269 
L 248.384751 167.854942 
L 250.214593 166.469141 
L 251.129514 166.099503 
L 252.044434 165.55004 
L 252.959355 165.269678 
L 253.874276 165.241185 
L 254.789197 164.677253 
L 255.704117 164.422414 
L 256.619038 163.708121 
L 257.533959 163.379681 
L 258.44888 162.529057 
L 259.3638 162.425819 
L 260.278721 161.94485 
L 261.193642 161.925379 
L 262.108563 161.467467 
L 263.938404 160.891467 
L 264.853325 160.456948 
L 265.768246 160.306834 
L 269.427929 158.078788 
L 270.342849 157.935888 
L 271.25777 157.225829 
L 272.172691 156.798553 
L 273.087612 156.738391 
L 274.002532 156.090437 
L 274.917453 155.905581 
L 276.747295 155.260808 
L 277.662215 154.589037 
L 278.577136 154.242333 
L 279.492057 153.678932 
L 281.321898 153.540187 
L 282.236819 152.969271 
L 284.066661 152.194532 
L 285.896502 151.399694 
L 288.641264 150.007577 
L 289.556185 149.345887 
L 290.471106 149.076304 
L 291.386027 148.988815 
L 292.300947 148.58663 
L 294.130789 147.422861 
L 295.04571 147.210786 
L 296.875551 146.632155 
L 298.705393 146.189235 
L 299.620313 145.734714 
L 300.535234 144.774337 
L 301.450155 143.982935 
L 302.365076 143.53647 
L 304.194917 142.985117 
L 305.109838 142.364724 
L 306.024759 142.031369 
L 306.939679 141.455174 
L 307.8546 141.434963 
L 309.684442 140.609462 
L 310.599362 140.342528 
L 311.514283 139.933304 
L 312.429204 139.813338 
L 314.259045 139.159985 
L 315.173966 139.099809 
L 317.003808 137.947563 
L 317.918728 137.747969 
L 318.833649 137.090693 
L 319.74857 136.734743 
L 321.578411 136.256012 
L 323.408253 135.259663 
L 324.323174 135.137978 
L 325.238094 135.290209 
L 326.153015 135.009523 
L 327.067936 135.020415 
L 329.812698 133.869701 
L 330.727619 133.167867 
L 331.64254 133.043684 
L 334.387302 132.073162 
L 335.302223 131.131371 
L 337.132064 130.111165 
L 338.046985 129.291595 
L 338.961906 129.221068 
L 342.621589 126.651076 
L 343.536509 126.555237 
L 344.45143 126.692722 
L 347.196192 125.602468 
L 348.111113 125.517365 
L 349.026034 125.651367 
L 349.940955 126.167575 
L 350.855875 126.051472 
L 351.770796 125.719142 
L 352.685717 125.233336 
L 353.600638 124.543787 
L 356.3454 123.300438 
L 357.260321 123.274839 
L 359.090162 120.667396 
L 360.005083 120.832305 
L 360.920004 120.108572 
L 361.834924 119.77702 
L 362.749845 119.583565 
L 364.579687 118.893802 
L 365.494607 118.116119 
L 366.409528 117.857138 
L 368.23937 117.815384 
L 369.15429 118.195716 
L 372.813973 116.510017 
L 373.728894 115.732673 
L 375.558736 115.816422 
L 376.473656 115.297531 
L 377.388577 114.572351 
L 378.303498 114.431977 
L 379.218419 114.487571 
L 381.04826 113.792817 
L 382.878102 113.44053 
L 383.793022 113.311205 
L 384.707943 112.726473 
L 386.537785 111.143988 
L 387.452705 110.983471 
L 388.367626 110.628889 
L 389.282547 110.780009 
L 390.197468 110.660656 
L 391.112388 110.057234 
L 392.027309 110.0779 
L 392.94223 110.39273 
L 393.857151 110.421594 
L 394.772071 109.761756 
L 395.686992 109.451541 
L 396.601913 108.610126 
L 397.516834 108.096511 
L 398.431754 107.715378 
L 399.346675 107.830148 
L 400.261596 107.153006 
L 401.176517 106.931616 
L 402.091437 104.359305 
L 403.006358 104.085248 
L 403.921279 103.262533 
L 404.8362 102.13389 
L 405.75112 102.078037 
L 407.580962 101.741398 
L 408.495883 101.286968 
L 409.410803 101.741363 
L 410.325724 100.815119 
L 411.240645 101.276343 
L 412.155566 100.50828 
L 413.070486 100.562402 
L 415.815249 98.686381 
L 416.730169 98.863806 
L 417.64509 98.341631 
L 418.560011 97.552349 
L 419.474932 96.145533 
L 420.389852 96.261071 
L 421.304773 95.358046 
L 423.134615 96.017764 
L 424.049535 95.772042 
L 424.964456 94.90287 
L 425.879377 94.687356 
L 426.794298 93.323862 
L 427.709218 93.79394 
L 429.53906 94.020794 
L 430.453981 93.808773 
L 432.283822 93.056546 
L 434.113664 93.220452 
L 435.028584 92.944021 
L 435.943505 91.786227 
L 436.858426 91.5164 
L 437.773347 91.388737 
L 438.688267 92.019073 
L 439.603188 91.911748 
L 440.518109 91.142465 
L 441.43303 89.126891 
L 442.34795 89.027159 
L 444.177792 86.829986 
L 445.092713 86.621007 
L 446.007633 86.739327 
L 446.922554 85.705478 
L 448.752396 85.679957 
L 449.667316 84.917054 
L 450.582237 84.954926 
L 451.497158 85.464862 
L 452.412079 84.972605 
L 453.326999 83.074115 
L 454.24192 81.908746 
L 455.156841 82.058294 
L 456.071762 81.823475 
L 456.986682 80.651847 
L 457.901603 80.934793 
L 458.816524 82.264338 
L 459.731445 81.244289 
L 460.646365 81.256456 
L 461.561286 80.972762 
L 462.476207 82.090426 
L 463.391128 82.96951 
L 464.306048 83.066362 
L 465.220969 83.866345 
L 466.13589 82.496656 
L 467.050811 82.006345 
L 467.965731 79.769014 
L 468.880652 80.123274 
L 469.795573 78.965215 
L 470.710494 78.734322 
L 471.625414 79.12022 
L 472.540335 77.891467 
L 473.455256 78.846335 
L 475.285097 78.628411 
L 476.200018 79.57828 
L 477.114939 78.670909 
L 478.02986 76.777552 
L 478.94478 76.579451 
L 479.859701 76.841926 
L 480.774622 77.930513 
L 481.689543 77.025165 
L 482.604463 79.106109 
L 483.519384 80.542434 
L 484.434305 79.157253 
L 485.349226 80.23821 
L 486.264146 81.051732 
L 487.179067 81.249316 
L 488.093988 76.558444 
L 489.008909 74.554299 
L 489.923829 71.57905 
L 490.83875 67.961872 
L 491.753671 70.939744 
L 492.668592 72.2039 
L 493.583512 71.673389 
L 494.498433 71.659605 
L 495.413354 70.948113 
L 496.328275 74.00363 
L 497.243195 76.473453 
L 498.158116 80.796475 
L 499.073037 83.726302 
L 499.987958 83.12053 
L 500.902878 82.709386 
L 501.817799 85.848887 
L 502.73272 83.549561 
L 503.647641 86.676419 
L 504.562561 88.784638 
L 505.477482 88.971941 
L 506.392403 92.864976 
L 507.307324 95.387816 
L 508.222244 102.285066 
L 509.137165 101.178628 
L 510.052086 98.76385 
L 510.967007 101.329617 
L 511.881927 106.640793 
L 512.796848 110.591376 
L 513.711769 111.116152 
L 514.62669 108.813022 
L 516.456531 118.288796 
L 517.371452 117.537641 
L 518.286373 120.406819 
L 519.201293 124.68739 
L 520.116214 127.366561 
L 521.031135 131.596174 
L 521.946056 132.823155 
L 522.860976 129.466707 
L 524.690818 141.003493 
L 525.605739 143.22859 
L 526.52066 141.263976 
L 527.43558 145.88163 
L 528.350501 145.657395 
L 529.265422 142.128863 
L 530.180343 136.576647 
L 531.095263 138.934267 
L 532.010184 139.559863 
L 532.925105 143.765213 
L 533.840026 150.779868 
L 534.754946 161.111794 
L 535.669867 169.506706 
L 536.584788 167.225042 
L 537.499709 161.68646 
L 538.414629 171.288741 
L 539.32955 183.363897 
L 540.244471 180.826865 
L 541.159392 167.236595 
L 542.074312 170.246749 
L 543.904154 192.339133 
L 544.819075 199.277935 
L 545.733995 195.168857 
L 546.648916 193.217034 
L 547.563837 192.435717 
L 548.478758 194.23908 
L 550.308599 223.503159 
L 551.22352 215.352933 
L 552.138441 192.417058 
L 553.053361 219.316338 
L 553.968282 236.263805 
L 554.883203 266.731142 
L 557.627965 336.309646 
L 558.542886 357.097168 
L 559.457807 368.771723 
L 560.372727 369.36 
L 560.372727 369.36 
" style="fill:none;stroke:#8172b3;stroke-linecap:round;stroke-width:1.5;"/>
   </g>
   <g id="patch_3">
    <path d="M 81 384.48 
L 81 51.84 
" style="fill:none;stroke:#ffffff;stroke-linecap:square;stroke-linejoin:miter;stroke-width:1.25;"/>
   </g>
   <g id="patch_4">
    <path d="M 583.2 384.48 
L 583.2 51.84 
" style="fill:none;stroke:#ffffff;stroke-linecap:square;stroke-linejoin:miter;stroke-width:1.25;"/>
   </g>
   <g id="patch_5">
    <path d="M 81 384.48 
L 583.2 384.48 
" style="fill:none;stroke:#ffffff;stroke-linecap:square;stroke-linejoin:miter;stroke-width:1.25;"/>
   </g>
   <g id="patch_6">
    <path d="M 81 51.84 
L 583.2 51.84 
" style="fill:none;stroke:#ffffff;stroke-linecap:square;stroke-linejoin:miter;stroke-width:1.25;"/>
   </g>
   <g id="text_17">
    <!-- CV AMS Curves -->
    <defs>
     <path d="M 58.796875 25.09375 
L 68.265625 22.703125 
Q 65.28125 11.03125 57.546875 4.90625 
Q 49.8125 -1.21875 38.625 -1.21875 
Q 27.046875 -1.21875 19.796875 3.484375 
Q 12.546875 8.203125 8.765625 17.140625 
Q 4.984375 26.078125 4.984375 36.328125 
Q 4.984375 47.515625 9.25 55.828125 
Q 13.53125 64.15625 21.40625 68.46875 
Q 29.296875 72.796875 38.765625 72.796875 
Q 49.515625 72.796875 56.828125 67.328125 
Q 64.15625 61.859375 67.046875 51.953125 
L 57.71875 49.75 
Q 55.21875 57.5625 50.484375 61.125 
Q 45.75 64.703125 38.578125 64.703125 
Q 30.328125 64.703125 24.78125 60.734375 
Q 19.234375 56.78125 16.984375 50.109375 
Q 14.75 43.453125 14.75 36.375 
Q 14.75 27.25 17.40625 20.4375 
Q 20.0625 13.625 25.671875 10.25 
Q 31.296875 6.890625 37.84375 6.890625 
Q 45.796875 6.890625 51.3125 11.46875 
Q 56.84375 16.0625 58.796875 25.09375 
z
" id="ArialMT-67"/>
     <path d="M 28.171875 0 
L 0.4375 71.578125 
L 10.6875 71.578125 
L 29.296875 19.578125 
Q 31.546875 13.328125 33.0625 7.859375 
Q 34.71875 13.71875 36.921875 19.578125 
L 56.25 71.578125 
L 65.921875 71.578125 
L 37.890625 0 
z
" id="ArialMT-86"/>
     <path d="M -0.140625 0 
L 27.34375 71.578125 
L 37.546875 71.578125 
L 66.84375 0 
L 56.0625 0 
L 47.703125 21.6875 
L 17.78125 21.6875 
L 9.90625 0 
z
M 20.515625 29.390625 
L 44.78125 29.390625 
L 37.3125 49.21875 
Q 33.890625 58.25 32.234375 64.0625 
Q 30.859375 57.171875 28.375 50.390625 
z
" id="ArialMT-65"/>
     <path d="M 7.421875 0 
L 7.421875 71.578125 
L 21.6875 71.578125 
L 38.625 20.90625 
Q 40.96875 13.8125 42.046875 10.296875 
Q 43.265625 14.203125 45.84375 21.78125 
L 62.984375 71.578125 
L 75.734375 71.578125 
L 75.734375 0 
L 66.609375 0 
L 66.609375 59.90625 
L 45.796875 0 
L 37.25 0 
L 16.546875 60.9375 
L 16.546875 0 
z
" id="ArialMT-77"/>
     <path d="M 40.578125 0 
L 40.578125 7.625 
Q 34.515625 -1.171875 24.125 -1.171875 
Q 19.53125 -1.171875 15.546875 0.578125 
Q 11.578125 2.34375 9.640625 5 
Q 7.71875 7.671875 6.9375 11.53125 
Q 6.390625 14.109375 6.390625 19.734375 
L 6.390625 51.859375 
L 15.1875 51.859375 
L 15.1875 23.09375 
Q 15.1875 16.21875 15.71875 13.8125 
Q 16.546875 10.359375 19.234375 8.375 
Q 21.921875 6.390625 25.875 6.390625 
Q 29.828125 6.390625 33.296875 8.421875 
Q 36.765625 10.453125 38.203125 13.9375 
Q 39.65625 17.4375 39.65625 24.078125 
L 39.65625 51.859375 
L 48.4375 51.859375 
L 48.4375 0 
z
" id="ArialMT-117"/>
     <path d="M 21 0 
L 1.265625 51.859375 
L 10.546875 51.859375 
L 21.6875 20.796875 
Q 23.484375 15.765625 25 10.359375 
Q 26.171875 14.453125 28.265625 20.21875 
L 39.796875 51.859375 
L 48.828125 51.859375 
L 29.203125 0 
z
" id="ArialMT-118"/>
    </defs>
    <g style="fill:#262626;" transform="translate(288.429375 45.84)scale(0.12 -0.12)">
     <use xlink:href="#ArialMT-67"/>
     <use x="72.216797" xlink:href="#ArialMT-86"/>
     <use x="138.916016" xlink:href="#ArialMT-32"/>
     <use x="166.621094" xlink:href="#ArialMT-65"/>
     <use x="233.320312" xlink:href="#ArialMT-77"/>
     <use x="316.621094" xlink:href="#ArialMT-83"/>
     <use x="383.320312" xlink:href="#ArialMT-32"/>
     <use x="411.103516" xlink:href="#ArialMT-67"/>
     <use x="483.320312" xlink:href="#ArialMT-117"/>
     <use x="538.935547" xlink:href="#ArialMT-114"/>
     <use x="572.236328" xlink:href="#ArialMT-118"/>
     <use x="622.236328" xlink:href="#ArialMT-101"/>
     <use x="677.851562" xlink:href="#ArialMT-115"/>
    </g>
   </g>
   <g id="legend_1">
    <g id="patch_7">
     <path d="M 88.7 138.439219 
L 147.751094 138.439219 
Q 149.951094 138.439219 149.951094 136.239219 
L 149.951094 59.54 
Q 149.951094 57.34 147.751094 57.34 
L 88.7 57.34 
Q 86.5 57.34 86.5 59.54 
L 86.5 136.239219 
Q 86.5 138.439219 88.7 138.439219 
z
" style="fill:#eaeaf2;opacity:0.8;stroke:#cccccc;stroke-linejoin:miter;"/>
    </g>
    <g id="line2d_20">
     <path d="M 90.9 65.763594 
L 112.9 65.763594 
" style="fill:none;stroke:#4c72b0;stroke-linecap:round;stroke-width:1.5;"/>
    </g>
    <g id="line2d_21"/>
    <g id="text_18">
     <!-- fold1 -->
     <defs>
      <path d="M 8.6875 0 
L 8.6875 45.015625 
L 0.921875 45.015625 
L 0.921875 51.859375 
L 8.6875 51.859375 
L 8.6875 57.375 
Q 8.6875 62.59375 9.625 65.140625 
Q 10.890625 68.5625 14.078125 70.671875 
Q 17.28125 72.796875 23.046875 72.796875 
Q 26.765625 72.796875 31.25 71.921875 
L 29.9375 64.265625 
Q 27.203125 64.75 24.75 64.75 
Q 20.75 64.75 19.09375 63.03125 
Q 17.4375 61.328125 17.4375 56.640625 
L 17.4375 51.859375 
L 27.546875 51.859375 
L 27.546875 45.015625 
L 17.4375 45.015625 
L 17.4375 0 
z
" id="ArialMT-102"/>
     </defs>
     <g style="fill:#262626;" transform="translate(121.7 69.613594)scale(0.11 -0.11)">
      <use xlink:href="#ArialMT-102"/>
      <use x="27.783203" xlink:href="#ArialMT-111"/>
      <use x="83.398438" xlink:href="#ArialMT-108"/>
      <use x="105.615234" xlink:href="#ArialMT-100"/>
      <use x="161.230469" xlink:href="#ArialMT-49"/>
     </g>
    </g>
    <g id="line2d_22">
     <path d="M 90.9 81.323437 
L 112.9 81.323437 
" style="fill:none;stroke:#dd8452;stroke-linecap:round;stroke-width:1.5;"/>
    </g>
    <g id="line2d_23"/>
    <g id="text_19">
     <!-- fold2 -->
     <g style="fill:#262626;" transform="translate(121.7 85.173437)scale(0.11 -0.11)">
      <use xlink:href="#ArialMT-102"/>
      <use x="27.783203" xlink:href="#ArialMT-111"/>
      <use x="83.398438" xlink:href="#ArialMT-108"/>
      <use x="105.615234" xlink:href="#ArialMT-100"/>
      <use x="161.230469" xlink:href="#ArialMT-50"/>
     </g>
    </g>
    <g id="line2d_24">
     <path d="M 90.9 96.883281 
L 112.9 96.883281 
" style="fill:none;stroke:#55a868;stroke-linecap:round;stroke-width:1.5;"/>
    </g>
    <g id="line2d_25"/>
    <g id="text_20">
     <!-- fold3 -->
     <g style="fill:#262626;" transform="translate(121.7 100.733281)scale(0.11 -0.11)">
      <use xlink:href="#ArialMT-102"/>
      <use x="27.783203" xlink:href="#ArialMT-111"/>
      <use x="83.398438" xlink:href="#ArialMT-108"/>
      <use x="105.615234" xlink:href="#ArialMT-100"/>
      <use x="161.230469" xlink:href="#ArialMT-51"/>
     </g>
    </g>
    <g id="line2d_26">
     <path d="M 90.9 112.443125 
L 112.9 112.443125 
" style="fill:none;stroke:#c44e52;stroke-linecap:round;stroke-width:1.5;"/>
    </g>
    <g id="line2d_27"/>
    <g id="text_21">
     <!-- fold4 -->
     <g style="fill:#262626;" transform="translate(121.7 116.293125)scale(0.11 -0.11)">
      <use xlink:href="#ArialMT-102"/>
      <use x="27.783203" xlink:href="#ArialMT-111"/>
      <use x="83.398438" xlink:href="#ArialMT-108"/>
      <use x="105.615234" xlink:href="#ArialMT-100"/>
      <use x="161.230469" xlink:href="#ArialMT-52"/>
     </g>
    </g>
    <g id="line2d_28">
     <path d="M 90.9 128.002969 
L 112.9 128.002969 
" style="fill:none;stroke:#8172b3;stroke-linecap:round;stroke-width:1.5;"/>
    </g>
    <g id="line2d_29"/>
    <g id="text_22">
     <!-- fold5 -->
     <g style="fill:#262626;" transform="translate(121.7 131.852969)scale(0.11 -0.11)">
      <use xlink:href="#ArialMT-102"/>
      <use x="27.783203" xlink:href="#ArialMT-111"/>
      <use x="83.398438" xlink:href="#ArialMT-108"/>
      <use x="105.615234" xlink:href="#ArialMT-100"/>
      <use x="161.230469" xlink:href="#ArialMT-53"/>
     </g>
    </g>
   </g>
  </g>
 </g>
 <defs>
  <clipPath id="p799b87a67a">
   <rect height="332.64" width="502.2" x="81" y="51.84"/>
  </clipPath>
 </defs>
</svg>
