<?xml version="1.0" encoding="utf-8" standalone="no"?>
<!DOCTYPE svg PUBLIC "-//W3C//DTD SVG 1.1//EN"
  "http://www.w3.org/Graphics/SVG/1.1/DTD/svg11.dtd">
<!-- Created with matplotlib (https://matplotlib.org/) -->
<svg height="432pt" version="1.1" viewBox="0 0 648 432" width="648pt" xmlns="http://www.w3.org/2000/svg" xmlns:xlink="http://www.w3.org/1999/xlink">
 <defs>
  <style type="text/css">
*{stroke-linecap:butt;stroke-linejoin:round;}
  </style>
 </defs>
 <g id="figure_1">
  <g id="patch_1">
   <path d="M 0 432 
L 648 432 
L 648 0 
L 0 0 
z
" style="fill:#ffffff;"/>
  </g>
  <g id="axes_1">
   <g id="patch_2">
    <path d="M 81 384.48 
L 583.2 384.48 
L 583.2 51.84 
L 81 51.84 
z
" style="fill:#eaeaf2;"/>
   </g>
   <g id="matplotlib.axis_1">
    <g id="xtick_1">
     <g id="line2d_1">
      <path clip-path="url(#p81fd67cc58)" d="M 103.827273 384.48 
L 103.827273 51.84 
" style="fill:none;stroke:#ffffff;stroke-linecap:round;"/>
     </g>
     <g id="text_1">
      <!-- 0.0 -->
      <defs>
       <path d="M 4.15625 35.296875 
Q 4.15625 48 6.765625 55.734375 
Q 9.375 63.484375 14.515625 67.671875 
Q 19.671875 71.875 27.484375 71.875 
Q 33.25 71.875 37.59375 69.546875 
Q 41.9375 67.234375 44.765625 62.859375 
Q 47.609375 58.5 49.21875 52.21875 
Q 50.828125 45.953125 50.828125 35.296875 
Q 50.828125 22.703125 48.234375 14.96875 
Q 45.65625 7.234375 40.5 3 
Q 35.359375 -1.21875 27.484375 -1.21875 
Q 17.140625 -1.21875 11.234375 6.203125 
Q 4.15625 15.140625 4.15625 35.296875 
z
M 13.1875 35.296875 
Q 13.1875 17.671875 17.3125 11.828125 
Q 21.4375 6 27.484375 6 
Q 33.546875 6 37.671875 11.859375 
Q 41.796875 17.71875 41.796875 35.296875 
Q 41.796875 52.984375 37.671875 58.78125 
Q 33.546875 64.59375 27.390625 64.59375 
Q 21.34375 64.59375 17.71875 59.46875 
Q 13.1875 52.9375 13.1875 35.296875 
z
" id="ArialMT-48"/>
       <path d="M 9.078125 0 
L 9.078125 10.015625 
L 19.09375 10.015625 
L 19.09375 0 
z
" id="ArialMT-46"/>
      </defs>
      <g style="fill:#262626;" transform="translate(96.182273 401.853594)scale(0.11 -0.11)">
       <use xlink:href="#ArialMT-48"/>
       <use x="55.615234" xlink:href="#ArialMT-46"/>
       <use x="83.398438" xlink:href="#ArialMT-48"/>
      </g>
     </g>
    </g>
    <g id="xtick_2">
     <g id="line2d_2">
      <path clip-path="url(#p81fd67cc58)" d="M 195.136364 384.48 
L 195.136364 51.84 
" style="fill:none;stroke:#ffffff;stroke-linecap:round;"/>
     </g>
     <g id="text_2">
      <!-- 0.2 -->
      <defs>
       <path d="M 50.34375 8.453125 
L 50.34375 0 
L 3.03125 0 
Q 2.9375 3.171875 4.046875 6.109375 
Q 5.859375 10.9375 9.828125 15.625 
Q 13.8125 20.3125 21.34375 26.46875 
Q 33.015625 36.03125 37.109375 41.625 
Q 41.21875 47.21875 41.21875 52.203125 
Q 41.21875 57.421875 37.46875 61 
Q 33.734375 64.59375 27.734375 64.59375 
Q 21.390625 64.59375 17.578125 60.78125 
Q 13.765625 56.984375 13.71875 50.25 
L 4.6875 51.171875 
Q 5.609375 61.28125 11.65625 66.578125 
Q 17.71875 71.875 27.9375 71.875 
Q 38.234375 71.875 44.234375 66.15625 
Q 50.25 60.453125 50.25 52 
Q 50.25 47.703125 48.484375 43.546875 
Q 46.734375 39.40625 42.65625 34.8125 
Q 38.578125 30.21875 29.109375 22.21875 
Q 21.1875 15.578125 18.9375 13.203125 
Q 16.703125 10.84375 15.234375 8.453125 
z
" id="ArialMT-50"/>
      </defs>
      <g style="fill:#262626;" transform="translate(187.491364 401.853594)scale(0.11 -0.11)">
       <use xlink:href="#ArialMT-48"/>
       <use x="55.615234" xlink:href="#ArialMT-46"/>
       <use x="83.398438" xlink:href="#ArialMT-50"/>
      </g>
     </g>
    </g>
    <g id="xtick_3">
     <g id="line2d_3">
      <path clip-path="url(#p81fd67cc58)" d="M 286.445455 384.48 
L 286.445455 51.84 
" style="fill:none;stroke:#ffffff;stroke-linecap:round;"/>
     </g>
     <g id="text_3">
      <!-- 0.4 -->
      <defs>
       <path d="M 32.328125 0 
L 32.328125 17.140625 
L 1.265625 17.140625 
L 1.265625 25.203125 
L 33.9375 71.578125 
L 41.109375 71.578125 
L 41.109375 25.203125 
L 50.78125 25.203125 
L 50.78125 17.140625 
L 41.109375 17.140625 
L 41.109375 0 
z
M 32.328125 25.203125 
L 32.328125 57.46875 
L 9.90625 25.203125 
z
" id="ArialMT-52"/>
      </defs>
      <g style="fill:#262626;" transform="translate(278.800455 401.853594)scale(0.11 -0.11)">
       <use xlink:href="#ArialMT-48"/>
       <use x="55.615234" xlink:href="#ArialMT-46"/>
       <use x="83.398438" xlink:href="#ArialMT-52"/>
      </g>
     </g>
    </g>
    <g id="xtick_4">
     <g id="line2d_4">
      <path clip-path="url(#p81fd67cc58)" d="M 377.754545 384.48 
L 377.754545 51.84 
" style="fill:none;stroke:#ffffff;stroke-linecap:round;"/>
     </g>
     <g id="text_4">
      <!-- 0.6 -->
      <defs>
       <path d="M 49.75 54.046875 
L 41.015625 53.375 
Q 39.84375 58.546875 37.703125 60.890625 
Q 34.125 64.65625 28.90625 64.65625 
Q 24.703125 64.65625 21.53125 62.3125 
Q 17.390625 59.28125 14.984375 53.46875 
Q 12.59375 47.65625 12.5 36.921875 
Q 15.671875 41.75 20.265625 44.09375 
Q 24.859375 46.4375 29.890625 46.4375 
Q 38.671875 46.4375 44.84375 39.96875 
Q 51.03125 33.5 51.03125 23.25 
Q 51.03125 16.5 48.125 10.71875 
Q 45.21875 4.9375 40.140625 1.859375 
Q 35.0625 -1.21875 28.609375 -1.21875 
Q 17.625 -1.21875 10.6875 6.859375 
Q 3.765625 14.9375 3.765625 33.5 
Q 3.765625 54.25 11.421875 63.671875 
Q 18.109375 71.875 29.4375 71.875 
Q 37.890625 71.875 43.28125 67.140625 
Q 48.6875 62.40625 49.75 54.046875 
z
M 13.875 23.1875 
Q 13.875 18.65625 15.796875 14.5 
Q 17.71875 10.359375 21.1875 8.171875 
Q 24.65625 6 28.46875 6 
Q 34.03125 6 38.03125 10.484375 
Q 42.046875 14.984375 42.046875 22.703125 
Q 42.046875 30.125 38.078125 34.390625 
Q 34.125 38.671875 28.125 38.671875 
Q 22.171875 38.671875 18.015625 34.390625 
Q 13.875 30.125 13.875 23.1875 
z
" id="ArialMT-54"/>
      </defs>
      <g style="fill:#262626;" transform="translate(370.109545 401.853594)scale(0.11 -0.11)">
       <use xlink:href="#ArialMT-48"/>
       <use x="55.615234" xlink:href="#ArialMT-46"/>
       <use x="83.398438" xlink:href="#ArialMT-54"/>
      </g>
     </g>
    </g>
    <g id="xtick_5">
     <g id="line2d_5">
      <path clip-path="url(#p81fd67cc58)" d="M 469.063636 384.48 
L 469.063636 51.84 
" style="fill:none;stroke:#ffffff;stroke-linecap:round;"/>
     </g>
     <g id="text_5">
      <!-- 0.8 -->
      <defs>
       <path d="M 17.671875 38.8125 
Q 12.203125 40.828125 9.5625 44.53125 
Q 6.9375 48.25 6.9375 53.421875 
Q 6.9375 61.234375 12.546875 66.546875 
Q 18.171875 71.875 27.484375 71.875 
Q 36.859375 71.875 42.578125 66.421875 
Q 48.296875 60.984375 48.296875 53.171875 
Q 48.296875 48.1875 45.671875 44.5 
Q 43.0625 40.828125 37.75 38.8125 
Q 44.34375 36.671875 47.78125 31.875 
Q 51.21875 27.09375 51.21875 20.453125 
Q 51.21875 11.28125 44.71875 5.03125 
Q 38.234375 -1.21875 27.640625 -1.21875 
Q 17.046875 -1.21875 10.546875 5.046875 
Q 4.046875 11.328125 4.046875 20.703125 
Q 4.046875 27.6875 7.59375 32.390625 
Q 11.140625 37.109375 17.671875 38.8125 
z
M 15.921875 53.71875 
Q 15.921875 48.640625 19.1875 45.40625 
Q 22.46875 42.1875 27.6875 42.1875 
Q 32.765625 42.1875 36.015625 45.375 
Q 39.265625 48.578125 39.265625 53.21875 
Q 39.265625 58.0625 35.90625 61.359375 
Q 32.5625 64.65625 27.59375 64.65625 
Q 22.5625 64.65625 19.234375 61.421875 
Q 15.921875 58.203125 15.921875 53.71875 
z
M 13.09375 20.65625 
Q 13.09375 16.890625 14.875 13.375 
Q 16.65625 9.859375 20.171875 7.921875 
Q 23.6875 6 27.734375 6 
Q 34.03125 6 38.125 10.046875 
Q 42.234375 14.109375 42.234375 20.359375 
Q 42.234375 26.703125 38.015625 30.859375 
Q 33.796875 35.015625 27.4375 35.015625 
Q 21.234375 35.015625 17.15625 30.90625 
Q 13.09375 26.8125 13.09375 20.65625 
z
" id="ArialMT-56"/>
      </defs>
      <g style="fill:#262626;" transform="translate(461.418636 401.853594)scale(0.11 -0.11)">
       <use xlink:href="#ArialMT-48"/>
       <use x="55.615234" xlink:href="#ArialMT-46"/>
       <use x="83.398438" xlink:href="#ArialMT-56"/>
      </g>
     </g>
    </g>
    <g id="xtick_6">
     <g id="line2d_6">
      <path clip-path="url(#p81fd67cc58)" d="M 560.372727 384.48 
L 560.372727 51.84 
" style="fill:none;stroke:#ffffff;stroke-linecap:round;"/>
     </g>
     <g id="text_6">
      <!-- 1.0 -->
      <defs>
       <path d="M 37.25 0 
L 28.46875 0 
L 28.46875 56 
Q 25.296875 52.984375 20.140625 49.953125 
Q 14.984375 46.921875 10.890625 45.40625 
L 10.890625 53.90625 
Q 18.265625 57.375 23.78125 62.296875 
Q 29.296875 67.234375 31.59375 71.875 
L 37.25 71.875 
z
" id="ArialMT-49"/>
      </defs>
      <g style="fill:#262626;" transform="translate(552.727727 401.853594)scale(0.11 -0.11)">
       <use xlink:href="#ArialMT-49"/>
       <use x="55.615234" xlink:href="#ArialMT-46"/>
       <use x="83.398438" xlink:href="#ArialMT-48"/>
      </g>
     </g>
    </g>
    <g id="text_7">
     <!-- Decision threshold -->
     <defs>
      <path d="M 7.71875 0 
L 7.71875 71.578125 
L 32.375 71.578125 
Q 40.71875 71.578125 45.125 70.5625 
Q 51.265625 69.140625 55.609375 65.4375 
Q 61.28125 60.640625 64.078125 53.1875 
Q 66.890625 45.75 66.890625 36.1875 
Q 66.890625 28.03125 64.984375 21.734375 
Q 63.09375 15.4375 60.109375 11.296875 
Q 57.125 7.171875 53.578125 4.796875 
Q 50.046875 2.4375 45.046875 1.21875 
Q 40.046875 0 33.546875 0 
z
M 17.1875 8.453125 
L 32.46875 8.453125 
Q 39.546875 8.453125 43.578125 9.765625 
Q 47.609375 11.078125 50 13.484375 
Q 53.375 16.84375 55.25 22.53125 
Q 57.125 28.21875 57.125 36.328125 
Q 57.125 47.5625 53.4375 53.59375 
Q 49.75 59.625 44.484375 61.671875 
Q 40.671875 63.140625 32.234375 63.140625 
L 17.1875 63.140625 
z
" id="ArialMT-68"/>
      <path d="M 42.09375 16.703125 
L 51.171875 15.578125 
Q 49.03125 7.625 43.21875 3.21875 
Q 37.40625 -1.171875 28.375 -1.171875 
Q 17 -1.171875 10.328125 5.828125 
Q 3.65625 12.84375 3.65625 25.484375 
Q 3.65625 38.578125 10.390625 45.796875 
Q 17.140625 53.03125 27.875 53.03125 
Q 38.28125 53.03125 44.875 45.953125 
Q 51.46875 38.875 51.46875 26.03125 
Q 51.46875 25.25 51.421875 23.6875 
L 12.75 23.6875 
Q 13.234375 15.140625 17.578125 10.59375 
Q 21.921875 6.0625 28.421875 6.0625 
Q 33.25 6.0625 36.671875 8.59375 
Q 40.09375 11.140625 42.09375 16.703125 
z
M 13.234375 30.90625 
L 42.1875 30.90625 
Q 41.609375 37.453125 38.875 40.71875 
Q 34.671875 45.796875 27.984375 45.796875 
Q 21.921875 45.796875 17.796875 41.75 
Q 13.671875 37.703125 13.234375 30.90625 
z
" id="ArialMT-101"/>
      <path d="M 40.4375 19 
L 49.078125 17.875 
Q 47.65625 8.9375 41.8125 3.875 
Q 35.984375 -1.171875 27.484375 -1.171875 
Q 16.84375 -1.171875 10.375 5.78125 
Q 3.90625 12.75 3.90625 25.734375 
Q 3.90625 34.125 6.6875 40.421875 
Q 9.46875 46.734375 15.15625 49.875 
Q 20.84375 53.03125 27.546875 53.03125 
Q 35.984375 53.03125 41.359375 48.75 
Q 46.734375 44.484375 48.25 36.625 
L 39.703125 35.296875 
Q 38.484375 40.53125 35.375 43.15625 
Q 32.28125 45.796875 27.875 45.796875 
Q 21.234375 45.796875 17.078125 41.03125 
Q 12.9375 36.28125 12.9375 25.984375 
Q 12.9375 15.53125 16.9375 10.796875 
Q 20.953125 6.0625 27.390625 6.0625 
Q 32.5625 6.0625 36.03125 9.234375 
Q 39.5 12.40625 40.4375 19 
z
" id="ArialMT-99"/>
      <path d="M 6.640625 61.46875 
L 6.640625 71.578125 
L 15.4375 71.578125 
L 15.4375 61.46875 
z
M 6.640625 0 
L 6.640625 51.859375 
L 15.4375 51.859375 
L 15.4375 0 
z
" id="ArialMT-105"/>
      <path d="M 3.078125 15.484375 
L 11.765625 16.84375 
Q 12.5 11.625 15.84375 8.84375 
Q 19.1875 6.0625 25.203125 6.0625 
Q 31.25 6.0625 34.171875 8.515625 
Q 37.109375 10.984375 37.109375 14.3125 
Q 37.109375 17.28125 34.515625 19 
Q 32.71875 20.171875 25.53125 21.96875 
Q 15.875 24.421875 12.140625 26.203125 
Q 8.40625 27.984375 6.46875 31.125 
Q 4.546875 34.28125 4.546875 38.09375 
Q 4.546875 41.546875 6.125 44.5 
Q 7.71875 47.46875 10.453125 49.421875 
Q 12.5 50.921875 16.03125 51.96875 
Q 19.578125 53.03125 23.640625 53.03125 
Q 29.734375 53.03125 34.34375 51.265625 
Q 38.96875 49.515625 41.15625 46.5 
Q 43.359375 43.5 44.1875 38.484375 
L 35.59375 37.3125 
Q 35.015625 41.3125 32.203125 43.546875 
Q 29.390625 45.796875 24.265625 45.796875 
Q 18.21875 45.796875 15.625 43.796875 
Q 13.03125 41.796875 13.03125 39.109375 
Q 13.03125 37.40625 14.109375 36.03125 
Q 15.1875 34.625 17.484375 33.6875 
Q 18.796875 33.203125 25.25 31.453125 
Q 34.578125 28.953125 38.25 27.359375 
Q 41.9375 25.78125 44.03125 22.75 
Q 46.140625 19.734375 46.140625 15.234375 
Q 46.140625 10.84375 43.578125 6.953125 
Q 41.015625 3.078125 36.171875 0.953125 
Q 31.34375 -1.171875 25.25 -1.171875 
Q 15.140625 -1.171875 9.84375 3.03125 
Q 4.546875 7.234375 3.078125 15.484375 
z
" id="ArialMT-115"/>
      <path d="M 3.328125 25.921875 
Q 3.328125 40.328125 11.328125 47.265625 
Q 18.015625 53.03125 27.640625 53.03125 
Q 38.328125 53.03125 45.109375 46.015625 
Q 51.90625 39.015625 51.90625 26.65625 
Q 51.90625 16.65625 48.90625 10.90625 
Q 45.90625 5.171875 40.15625 2 
Q 34.421875 -1.171875 27.640625 -1.171875 
Q 16.75 -1.171875 10.03125 5.8125 
Q 3.328125 12.796875 3.328125 25.921875 
z
M 12.359375 25.921875 
Q 12.359375 15.96875 16.703125 11.015625 
Q 21.046875 6.0625 27.640625 6.0625 
Q 34.1875 6.0625 38.53125 11.03125 
Q 42.875 16.015625 42.875 26.21875 
Q 42.875 35.84375 38.5 40.796875 
Q 34.125 45.75 27.640625 45.75 
Q 21.046875 45.75 16.703125 40.8125 
Q 12.359375 35.890625 12.359375 25.921875 
z
" id="ArialMT-111"/>
      <path d="M 6.59375 0 
L 6.59375 51.859375 
L 14.5 51.859375 
L 14.5 44.484375 
Q 20.21875 53.03125 31 53.03125 
Q 35.6875 53.03125 39.625 51.34375 
Q 43.5625 49.65625 45.515625 46.921875 
Q 47.46875 44.1875 48.25 40.4375 
Q 48.734375 37.984375 48.734375 31.890625 
L 48.734375 0 
L 39.9375 0 
L 39.9375 31.546875 
Q 39.9375 36.921875 38.90625 39.578125 
Q 37.890625 42.234375 35.28125 43.8125 
Q 32.671875 45.40625 29.15625 45.40625 
Q 23.53125 45.40625 19.453125 41.84375 
Q 15.375 38.28125 15.375 28.328125 
L 15.375 0 
z
" id="ArialMT-110"/>
      <path id="ArialMT-32"/>
      <path d="M 25.78125 7.859375 
L 27.046875 0.09375 
Q 23.34375 -0.6875 20.40625 -0.6875 
Q 15.625 -0.6875 12.984375 0.828125 
Q 10.359375 2.34375 9.28125 4.8125 
Q 8.203125 7.28125 8.203125 15.1875 
L 8.203125 45.015625 
L 1.765625 45.015625 
L 1.765625 51.859375 
L 8.203125 51.859375 
L 8.203125 64.703125 
L 16.9375 69.96875 
L 16.9375 51.859375 
L 25.78125 51.859375 
L 25.78125 45.015625 
L 16.9375 45.015625 
L 16.9375 14.703125 
Q 16.9375 10.9375 17.40625 9.859375 
Q 17.875 8.796875 18.921875 8.15625 
Q 19.96875 7.515625 21.921875 7.515625 
Q 23.390625 7.515625 25.78125 7.859375 
z
" id="ArialMT-116"/>
      <path d="M 6.59375 0 
L 6.59375 71.578125 
L 15.375 71.578125 
L 15.375 45.90625 
Q 21.53125 53.03125 30.90625 53.03125 
Q 36.671875 53.03125 40.921875 50.75 
Q 45.171875 48.484375 47 44.484375 
Q 48.828125 40.484375 48.828125 32.859375 
L 48.828125 0 
L 40.046875 0 
L 40.046875 32.859375 
Q 40.046875 39.453125 37.1875 42.453125 
Q 34.328125 45.453125 29.109375 45.453125 
Q 25.203125 45.453125 21.75 43.421875 
Q 18.3125 41.40625 16.84375 37.9375 
Q 15.375 34.46875 15.375 28.375 
L 15.375 0 
z
" id="ArialMT-104"/>
      <path d="M 6.5 0 
L 6.5 51.859375 
L 14.40625 51.859375 
L 14.40625 44 
Q 17.4375 49.515625 20 51.265625 
Q 22.5625 53.03125 25.640625 53.03125 
Q 30.078125 53.03125 34.671875 50.203125 
L 31.640625 42.046875 
Q 28.421875 43.953125 25.203125 43.953125 
Q 22.3125 43.953125 20.015625 42.21875 
Q 17.71875 40.484375 16.75 37.40625 
Q 15.28125 32.71875 15.28125 27.15625 
L 15.28125 0 
z
" id="ArialMT-114"/>
      <path d="M 6.390625 0 
L 6.390625 71.578125 
L 15.1875 71.578125 
L 15.1875 0 
z
" id="ArialMT-108"/>
      <path d="M 40.234375 0 
L 40.234375 6.546875 
Q 35.296875 -1.171875 25.734375 -1.171875 
Q 19.53125 -1.171875 14.328125 2.25 
Q 9.125 5.671875 6.265625 11.796875 
Q 3.421875 17.921875 3.421875 25.875 
Q 3.421875 33.640625 6 39.96875 
Q 8.59375 46.296875 13.765625 49.65625 
Q 18.953125 53.03125 25.34375 53.03125 
Q 30.03125 53.03125 33.6875 51.046875 
Q 37.359375 49.078125 39.65625 45.90625 
L 39.65625 71.578125 
L 48.390625 71.578125 
L 48.390625 0 
z
M 12.453125 25.875 
Q 12.453125 15.921875 16.640625 10.984375 
Q 20.84375 6.0625 26.5625 6.0625 
Q 32.328125 6.0625 36.34375 10.765625 
Q 40.375 15.484375 40.375 25.140625 
Q 40.375 35.796875 36.265625 40.765625 
Q 32.171875 45.75 26.171875 45.75 
Q 20.3125 45.75 16.375 40.96875 
Q 12.453125 36.1875 12.453125 25.875 
z
" id="ArialMT-100"/>
     </defs>
     <g style="fill:#262626;" transform="translate(282.743438 416.629219)scale(0.12 -0.12)">
      <use xlink:href="#ArialMT-68"/>
      <use x="72.216797" xlink:href="#ArialMT-101"/>
      <use x="127.832031" xlink:href="#ArialMT-99"/>
      <use x="177.832031" xlink:href="#ArialMT-105"/>
      <use x="200.048828" xlink:href="#ArialMT-115"/>
      <use x="250.048828" xlink:href="#ArialMT-105"/>
      <use x="272.265625" xlink:href="#ArialMT-111"/>
      <use x="327.880859" xlink:href="#ArialMT-110"/>
      <use x="383.496094" xlink:href="#ArialMT-32"/>
      <use x="411.279297" xlink:href="#ArialMT-116"/>
      <use x="439.0625" xlink:href="#ArialMT-104"/>
      <use x="494.677734" xlink:href="#ArialMT-114"/>
      <use x="527.978516" xlink:href="#ArialMT-101"/>
      <use x="583.59375" xlink:href="#ArialMT-115"/>
      <use x="633.59375" xlink:href="#ArialMT-104"/>
      <use x="689.208984" xlink:href="#ArialMT-111"/>
      <use x="744.824219" xlink:href="#ArialMT-108"/>
      <use x="767.041016" xlink:href="#ArialMT-100"/>
     </g>
    </g>
   </g>
   <g id="matplotlib.axis_2">
    <g id="ytick_1">
     <g id="line2d_7">
      <path clip-path="url(#p81fd67cc58)" d="M 81 369.36 
L 583.2 369.36 
" style="fill:none;stroke:#ffffff;stroke-linecap:round;"/>
     </g>
     <g id="text_8">
      <!-- 0.0 -->
      <g style="fill:#262626;" transform="translate(56.21 373.296797)scale(0.11 -0.11)">
       <use xlink:href="#ArialMT-48"/>
       <use x="55.615234" xlink:href="#ArialMT-46"/>
       <use x="83.398438" xlink:href="#ArialMT-48"/>
      </g>
     </g>
    </g>
    <g id="ytick_2">
     <g id="line2d_8">
      <path clip-path="url(#p81fd67cc58)" d="M 81 328.854967 
L 583.2 328.854967 
" style="fill:none;stroke:#ffffff;stroke-linecap:round;"/>
     </g>
     <g id="text_9">
      <!-- 0.5 -->
      <defs>
       <path d="M 4.15625 18.75 
L 13.375 19.53125 
Q 14.40625 12.796875 18.140625 9.390625 
Q 21.875 6 27.15625 6 
Q 33.5 6 37.890625 10.78125 
Q 42.28125 15.578125 42.28125 23.484375 
Q 42.28125 31 38.0625 35.34375 
Q 33.84375 39.703125 27 39.703125 
Q 22.75 39.703125 19.328125 37.765625 
Q 15.921875 35.84375 13.96875 32.765625 
L 5.71875 33.84375 
L 12.640625 70.609375 
L 48.25 70.609375 
L 48.25 62.203125 
L 19.671875 62.203125 
L 15.828125 42.96875 
Q 22.265625 47.46875 29.34375 47.46875 
Q 38.71875 47.46875 45.15625 40.96875 
Q 51.609375 34.46875 51.609375 24.265625 
Q 51.609375 14.546875 45.953125 7.46875 
Q 39.0625 -1.21875 27.15625 -1.21875 
Q 17.390625 -1.21875 11.203125 4.25 
Q 5.03125 9.71875 4.15625 18.75 
z
" id="ArialMT-53"/>
      </defs>
      <g style="fill:#262626;" transform="translate(56.21 332.791764)scale(0.11 -0.11)">
       <use xlink:href="#ArialMT-48"/>
       <use x="55.615234" xlink:href="#ArialMT-46"/>
       <use x="83.398438" xlink:href="#ArialMT-53"/>
      </g>
     </g>
    </g>
    <g id="ytick_3">
     <g id="line2d_9">
      <path clip-path="url(#p81fd67cc58)" d="M 81 288.349935 
L 583.2 288.349935 
" style="fill:none;stroke:#ffffff;stroke-linecap:round;"/>
     </g>
     <g id="text_10">
      <!-- 1.0 -->
      <g style="fill:#262626;" transform="translate(56.21 292.286732)scale(0.11 -0.11)">
       <use xlink:href="#ArialMT-49"/>
       <use x="55.615234" xlink:href="#ArialMT-46"/>
       <use x="83.398438" xlink:href="#ArialMT-48"/>
      </g>
     </g>
    </g>
    <g id="ytick_4">
     <g id="line2d_10">
      <path clip-path="url(#p81fd67cc58)" d="M 81 247.844902 
L 583.2 247.844902 
" style="fill:none;stroke:#ffffff;stroke-linecap:round;"/>
     </g>
     <g id="text_11">
      <!-- 1.5 -->
      <g style="fill:#262626;" transform="translate(56.21 251.781699)scale(0.11 -0.11)">
       <use xlink:href="#ArialMT-49"/>
       <use x="55.615234" xlink:href="#ArialMT-46"/>
       <use x="83.398438" xlink:href="#ArialMT-53"/>
      </g>
     </g>
    </g>
    <g id="ytick_5">
     <g id="line2d_11">
      <path clip-path="url(#p81fd67cc58)" d="M 81 207.33987 
L 583.2 207.33987 
" style="fill:none;stroke:#ffffff;stroke-linecap:round;"/>
     </g>
     <g id="text_12">
      <!-- 2.0 -->
      <g style="fill:#262626;" transform="translate(56.21 211.276667)scale(0.11 -0.11)">
       <use xlink:href="#ArialMT-50"/>
       <use x="55.615234" xlink:href="#ArialMT-46"/>
       <use x="83.398438" xlink:href="#ArialMT-48"/>
      </g>
     </g>
    </g>
    <g id="ytick_6">
     <g id="line2d_12">
      <path clip-path="url(#p81fd67cc58)" d="M 81 166.834837 
L 583.2 166.834837 
" style="fill:none;stroke:#ffffff;stroke-linecap:round;"/>
     </g>
     <g id="text_13">
      <!-- 2.5 -->
      <g style="fill:#262626;" transform="translate(56.21 170.771634)scale(0.11 -0.11)">
       <use xlink:href="#ArialMT-50"/>
       <use x="55.615234" xlink:href="#ArialMT-46"/>
       <use x="83.398438" xlink:href="#ArialMT-53"/>
      </g>
     </g>
    </g>
    <g id="ytick_7">
     <g id="line2d_13">
      <path clip-path="url(#p81fd67cc58)" d="M 81 126.329805 
L 583.2 126.329805 
" style="fill:none;stroke:#ffffff;stroke-linecap:round;"/>
     </g>
     <g id="text_14">
      <!-- 3.0 -->
      <defs>
       <path d="M 4.203125 18.890625 
L 12.984375 20.0625 
Q 14.5 12.59375 18.140625 9.296875 
Q 21.78125 6 27 6 
Q 33.203125 6 37.46875 10.296875 
Q 41.75 14.59375 41.75 20.953125 
Q 41.75 27 37.796875 30.921875 
Q 33.84375 34.859375 27.734375 34.859375 
Q 25.25 34.859375 21.53125 33.890625 
L 22.515625 41.609375 
Q 23.390625 41.5 23.921875 41.5 
Q 29.546875 41.5 34.03125 44.421875 
Q 38.53125 47.359375 38.53125 53.46875 
Q 38.53125 58.296875 35.25 61.46875 
Q 31.984375 64.65625 26.8125 64.65625 
Q 21.6875 64.65625 18.265625 61.421875 
Q 14.84375 58.203125 13.875 51.765625 
L 5.078125 53.328125 
Q 6.6875 62.15625 12.390625 67.015625 
Q 18.109375 71.875 26.609375 71.875 
Q 32.46875 71.875 37.390625 69.359375 
Q 42.328125 66.84375 44.9375 62.5 
Q 47.5625 58.15625 47.5625 53.265625 
Q 47.5625 48.640625 45.0625 44.828125 
Q 42.578125 41.015625 37.703125 38.765625 
Q 44.046875 37.3125 47.5625 32.6875 
Q 51.078125 28.078125 51.078125 21.140625 
Q 51.078125 11.765625 44.234375 5.25 
Q 37.40625 -1.265625 26.953125 -1.265625 
Q 17.53125 -1.265625 11.296875 4.34375 
Q 5.078125 9.96875 4.203125 18.890625 
z
" id="ArialMT-51"/>
      </defs>
      <g style="fill:#262626;" transform="translate(56.21 130.266601)scale(0.11 -0.11)">
       <use xlink:href="#ArialMT-51"/>
       <use x="55.615234" xlink:href="#ArialMT-46"/>
       <use x="83.398438" xlink:href="#ArialMT-48"/>
      </g>
     </g>
    </g>
    <g id="ytick_8">
     <g id="line2d_14">
      <path clip-path="url(#p81fd67cc58)" d="M 81 85.824772 
L 583.2 85.824772 
" style="fill:none;stroke:#ffffff;stroke-linecap:round;"/>
     </g>
     <g id="text_15">
      <!-- 3.5 -->
      <g style="fill:#262626;" transform="translate(56.21 89.761569)scale(0.11 -0.11)">
       <use xlink:href="#ArialMT-51"/>
       <use x="55.615234" xlink:href="#ArialMT-46"/>
       <use x="83.398438" xlink:href="#ArialMT-53"/>
      </g>
     </g>
    </g>
    <g id="text_16">
     <!-- Score -->
     <defs>
      <path d="M 4.5 23 
L 13.421875 23.78125 
Q 14.0625 18.40625 16.375 14.96875 
Q 18.703125 11.53125 23.578125 9.40625 
Q 28.46875 7.28125 34.578125 7.28125 
Q 39.984375 7.28125 44.140625 8.890625 
Q 48.296875 10.5 50.3125 13.296875 
Q 52.34375 16.109375 52.34375 19.4375 
Q 52.34375 22.796875 50.390625 25.3125 
Q 48.4375 27.828125 43.953125 29.546875 
Q 41.0625 30.671875 31.203125 33.03125 
Q 21.34375 35.40625 17.390625 37.5 
Q 12.25 40.1875 9.734375 44.15625 
Q 7.234375 48.140625 7.234375 53.078125 
Q 7.234375 58.5 10.296875 63.203125 
Q 13.375 67.921875 19.28125 70.359375 
Q 25.203125 72.796875 32.421875 72.796875 
Q 40.375 72.796875 46.453125 70.234375 
Q 52.546875 67.671875 55.8125 62.6875 
Q 59.078125 57.71875 59.328125 51.421875 
L 50.25 50.734375 
Q 49.515625 57.515625 45.28125 60.984375 
Q 41.0625 64.453125 32.8125 64.453125 
Q 24.21875 64.453125 20.28125 61.296875 
Q 16.359375 58.15625 16.359375 53.71875 
Q 16.359375 49.859375 19.140625 47.359375 
Q 21.875 44.875 33.421875 42.265625 
Q 44.96875 39.65625 49.265625 37.703125 
Q 55.515625 34.8125 58.484375 30.390625 
Q 61.46875 25.984375 61.46875 20.21875 
Q 61.46875 14.5 58.203125 9.4375 
Q 54.9375 4.390625 48.796875 1.578125 
Q 42.671875 -1.21875 35.015625 -1.21875 
Q 25.296875 -1.21875 18.71875 1.609375 
Q 12.15625 4.4375 8.421875 10.125 
Q 4.6875 15.828125 4.5 23 
z
" id="ArialMT-83"/>
     </defs>
     <g style="fill:#262626;" transform="translate(49.825 233.833125)rotate(-90)scale(0.12 -0.12)">
      <use xlink:href="#ArialMT-83"/>
      <use x="66.699219" xlink:href="#ArialMT-99"/>
      <use x="116.699219" xlink:href="#ArialMT-111"/>
      <use x="172.314453" xlink:href="#ArialMT-114"/>
      <use x="205.615234" xlink:href="#ArialMT-101"/>
     </g>
    </g>
   </g>
   <g id="line2d_15">
    <path clip-path="url(#p81fd67cc58)" d="M 103.827273 282.692707 
L 106.572035 278.682241 
L 108.401876 276.06248 
L 112.97648 269.470483 
L 117.551084 263.679138 
L 118.466005 262.64373 
L 127.615212 254.255227 
L 134.019657 248.727596 
L 135.849499 247.190937 
L 136.76442 246.238222 
L 157.807597 229.873903 
L 158.722518 229.233443 
L 161.46728 226.887845 
L 162.382201 226.343384 
L 169.701567 220.649447 
L 171.531408 219.513469 
L 172.446329 218.611501 
L 174.276171 217.495365 
L 175.191091 216.766246 
L 177.935854 215.157649 
L 181.595537 212.63973 
L 182.510457 212.287037 
L 187.085061 209.442589 
L 187.999982 208.910303 
L 188.914903 208.582062 
L 189.829823 207.838428 
L 192.574586 206.01713 
L 193.489506 205.374598 
L 197.149189 203.386245 
L 198.06411 202.726368 
L 198.979031 202.358073 
L 199.893952 201.819797 
L 200.808872 201.437018 
L 202.638714 200.169258 
L 203.553635 199.614295 
L 204.468555 198.912731 
L 207.213318 197.161144 
L 211.787921 194.227898 
L 213.617763 193.351128 
L 214.532684 192.679445 
L 215.447604 192.265186 
L 220.022208 189.276138 
L 221.85205 188.498469 
L 225.511733 186.187914 
L 226.426653 185.677288 
L 227.341574 185.353164 
L 228.256495 184.619232 
L 229.171416 184.086174 
L 230.086336 183.747882 
L 231.001257 183.185423 
L 231.916178 182.431362 
L 232.831099 181.943699 
L 233.746019 181.675729 
L 235.575861 180.518904 
L 237.405702 179.402895 
L 239.235544 178.616622 
L 241.065385 177.545974 
L 242.895227 176.729739 
L 243.810148 176.096098 
L 244.725068 175.922137 
L 246.55491 175.185431 
L 247.469831 174.556683 
L 248.384751 173.692084 
L 249.299672 173.567953 
L 250.214593 173.119612 
L 251.129514 172.81329 
L 252.044434 172.185427 
L 254.789197 171.340366 
L 257.533959 170.385545 
L 258.44888 170.131541 
L 259.3638 169.59174 
L 260.278721 168.904792 
L 262.108563 168.413586 
L 263.938404 167.721769 
L 264.853325 167.026681 
L 266.683166 166.163844 
L 267.598087 165.849982 
L 269.427929 164.995141 
L 270.342849 164.31731 
L 271.25777 163.900427 
L 272.172691 163.625584 
L 273.087612 162.925823 
L 274.002532 162.697627 
L 274.917453 162.322121 
L 275.832374 162.412669 
L 278.577136 161.431104 
L 280.406978 161.025236 
L 281.321898 160.407502 
L 282.236819 160.257493 
L 284.066661 159.025038 
L 284.981581 158.553609 
L 286.811423 157.911939 
L 287.726344 157.336309 
L 288.641264 156.588883 
L 289.556185 155.986764 
L 290.471106 155.900744 
L 291.386027 155.218761 
L 292.300947 154.687539 
L 293.215868 153.917135 
L 294.130789 153.309675 
L 295.04571 152.861525 
L 295.96063 152.258295 
L 296.875551 152.014848 
L 297.790472 151.650838 
L 301.450155 149.376205 
L 302.365076 148.733101 
L 303.279996 148.490217 
L 304.194917 147.905976 
L 305.109838 147.484194 
L 306.024759 146.815489 
L 309.684442 145.277108 
L 310.599362 144.82558 
L 312.429204 143.367161 
L 313.344125 143.184851 
L 314.259045 142.874299 
L 315.173966 142.169452 
L 316.088887 141.959061 
L 317.003808 142.009233 
L 317.918728 141.58823 
L 318.833649 141.301449 
L 320.663491 139.294911 
L 321.578411 138.90615 
L 324.323174 138.265567 
L 325.238094 138.26509 
L 326.153015 138.132984 
L 327.067936 137.768324 
L 327.982857 137.065963 
L 328.897777 135.793836 
L 330.727619 135.000619 
L 332.55746 134.249051 
L 334.387302 133.894962 
L 335.302223 133.24174 
L 336.217143 132.266796 
L 337.132064 132.407587 
L 338.046985 132.731193 
L 338.961906 132.934621 
L 339.876826 132.594058 
L 340.791747 132.064632 
L 341.706668 131.830703 
L 342.621589 131.405847 
L 343.536509 130.543781 
L 344.45143 130.746201 
L 345.366351 130.044299 
L 346.281272 130.00787 
L 347.196192 129.829995 
L 348.111113 129.414277 
L 349.026034 129.3844 
L 349.940955 128.935525 
L 350.855875 128.71478 
L 351.770796 128.205923 
L 352.685717 127.462895 
L 353.600638 127.411142 
L 354.515558 126.97663 
L 356.3454 125.378997 
L 357.260321 125.370263 
L 358.175241 124.897825 
L 360.005083 124.520761 
L 360.920004 123.968248 
L 361.834924 123.565866 
L 362.749845 122.846962 
L 363.664766 122.510609 
L 364.579687 122.327268 
L 365.494607 122.427477 
L 366.409528 121.412438 
L 367.324449 121.495686 
L 368.23937 120.621311 
L 370.984132 119.701567 
L 371.899053 119.206569 
L 372.813973 119.492344 
L 373.728894 119.270845 
L 374.643815 118.461639 
L 375.558736 118.442102 
L 376.473656 118.181553 
L 377.388577 117.569031 
L 378.303498 117.169883 
L 379.218419 117.334891 
L 380.133339 116.350869 
L 383.793022 114.517511 
L 385.622864 112.491935 
L 386.537785 112.787068 
L 387.452705 112.598308 
L 389.282547 112.501555 
L 391.112388 111.39214 
L 392.027309 110.98494 
L 392.94223 110.749099 
L 393.857151 110.888811 
L 394.772071 110.914297 
L 395.686992 111.176152 
L 397.516834 109.864875 
L 399.346675 109.693877 
L 400.261596 108.912761 
L 401.176517 108.653479 
L 402.091437 107.952249 
L 403.006358 107.416199 
L 403.921279 107.056391 
L 404.8362 105.755715 
L 405.75112 105.113746 
L 406.666041 103.972815 
L 407.580962 103.308849 
L 410.325724 103.459802 
L 411.240645 103.040247 
L 412.155566 103.343212 
L 413.070486 102.573206 
L 413.985407 102.308649 
L 414.900328 101.832111 
L 415.815249 101.75479 
L 416.730169 102.895699 
L 417.64509 102.87746 
L 418.560011 102.20927 
L 419.474932 102.177047 
L 420.389852 101.706942 
L 421.304773 102.166582 
L 423.134615 99.650512 
L 424.049535 98.764168 
L 424.964456 97.252093 
L 425.879377 96.14525 
L 426.794298 95.870796 
L 427.709218 95.092636 
L 428.624139 95.183326 
L 429.53906 94.336667 
L 430.453981 94.233495 
L 431.368901 94.404093 
L 432.283822 93.067849 
L 433.198743 92.281243 
L 434.113664 92.127247 
L 435.028584 91.800317 
L 435.943505 91.0929 
L 436.858426 90.790439 
L 438.688267 89.960852 
L 439.603188 89.660392 
L 440.518109 90.196376 
L 441.43303 89.977126 
L 442.34795 90.641763 
L 443.262871 90.51329 
L 444.177792 90.242555 
L 445.092713 90.218372 
L 446.007633 90.746086 
L 446.922554 90.850677 
L 447.837475 91.309663 
L 449.667316 88.047692 
L 450.582237 88.270962 
L 451.497158 89.519094 
L 452.412079 89.078077 
L 453.326999 90.376979 
L 454.24192 90.262985 
L 455.156841 89.358652 
L 456.071762 91.672828 
L 456.986682 90.983434 
L 458.816524 90.716235 
L 459.731445 90.169554 
L 460.646365 88.612405 
L 461.561286 87.919439 
L 462.476207 89.08202 
L 463.391128 89.948644 
L 464.306048 89.948793 
L 465.220969 91.105369 
L 466.13589 92.935521 
L 467.050811 92.115963 
L 467.965731 90.703921 
L 468.880652 91.024722 
L 470.710494 86.66775 
L 471.625414 87.765447 
L 472.540335 90.184496 
L 473.455256 89.190138 
L 474.370177 88.840171 
L 475.285097 89.747303 
L 477.114939 89.975917 
L 478.02986 89.325851 
L 478.94478 88.43972 
L 479.859701 88.254935 
L 480.774622 86.200881 
L 481.689543 88.209643 
L 482.604463 88.999261 
L 483.519384 87.715638 
L 485.349226 92.139267 
L 486.264146 91.583746 
L 487.179067 93.989042 
L 489.008909 99.592582 
L 489.923829 99.383794 
L 490.83875 102.668487 
L 491.753671 99.358997 
L 492.668592 95.39223 
L 495.413354 98.610778 
L 496.328275 97.366401 
L 497.243195 99.419302 
L 498.158116 99.925766 
L 499.073037 99.008667 
L 499.987958 101.766924 
L 500.902878 101.14716 
L 501.817799 106.364231 
L 502.73272 108.726556 
L 503.647641 114.49928 
L 504.562561 109.774909 
L 506.392403 118.704009 
L 507.307324 122.528359 
L 508.222244 123.931221 
L 509.137165 127.269779 
L 510.052086 119.453799 
L 511.881927 128.958375 
L 512.796848 129.827133 
L 513.711769 125.46886 
L 514.62669 132.596486 
L 515.54161 129.219346 
L 516.456531 132.700598 
L 517.371452 130.334617 
L 518.286373 123.796505 
L 519.201293 127.151504 
L 520.116214 115.418251 
L 521.031135 133.344929 
L 521.946056 155.087512 
L 522.860976 168.257533 
L 523.775897 185.290322 
L 524.690818 182.849943 
L 525.605739 181.498743 
L 527.43558 200.400906 
L 528.350501 181.786537 
L 529.265422 189.217588 
L 530.180343 195.579896 
L 532.010184 165.012064 
L 532.925105 176.224002 
L 533.840026 182.978345 
L 534.754946 190.563942 
L 535.669867 148.936218 
L 536.584788 153.745109 
L 538.414629 171.62621 
L 539.32955 181.425257 
L 540.244471 189.683981 
L 541.159392 184.01155 
L 542.074312 195.775602 
L 542.989233 209.904215 
L 543.904154 219.320536 
L 544.819075 226.739163 
L 545.733995 235.875493 
L 546.648916 201.38679 
L 548.478758 223.841455 
L 549.393678 230.185562 
L 550.308599 245.025774 
L 551.22352 251.455985 
L 552.138441 259.928588 
L 553.053361 270.160765 
L 553.968282 277.879302 
L 555.798124 298.916669 
L 556.713044 312.455241 
L 558.542886 334.090233 
L 560.372727 369.36 
L 560.372727 369.36 
" style="fill:none;stroke:#4c72b0;stroke-linecap:round;stroke-width:1.5;"/>
   </g>
   <g id="line2d_16">
    <path clip-path="url(#p81fd67cc58)" d="M 103.827273 281.948334 
L 104.742193 280.675014 
L 105.657114 278.988353 
L 112.061559 269.070469 
L 116.636163 263.581674 
L 122.125688 257.948713 
L 125.785371 254.583532 
L 127.615212 252.904264 
L 129.445054 251.325664 
L 139.509182 242.751909 
L 144.998707 238.213331 
L 145.913627 237.349024 
L 159.637439 227.026406 
L 165.126963 222.767164 
L 166.041884 222.238841 
L 168.786646 220.184988 
L 169.701567 219.639065 
L 170.616488 218.858421 
L 172.446329 217.921323 
L 173.36125 217.130441 
L 177.020933 214.795062 
L 178.850774 213.768724 
L 180.680616 212.468211 
L 181.595537 211.903179 
L 182.510457 211.53037 
L 185.25522 209.495707 
L 186.17014 208.980495 
L 187.085061 208.214593 
L 187.999982 207.701563 
L 189.829823 206.38525 
L 190.744744 206.113137 
L 192.574586 205.078446 
L 195.319348 203.251713 
L 201.723793 199.421742 
L 203.553635 198.529993 
L 205.383476 197.037427 
L 208.128238 195.632487 
L 209.043159 195.113021 
L 209.95808 194.207597 
L 210.873001 193.771535 
L 211.787921 192.904795 
L 212.702842 192.259497 
L 213.617763 191.912803 
L 214.532684 191.35498 
L 215.447604 191.001788 
L 217.277446 189.678266 
L 220.022208 188.383345 
L 225.511733 184.962026 
L 226.426653 184.24748 
L 228.256495 183.889594 
L 232.831099 181.280136 
L 235.575861 179.581859 
L 236.490782 179.156589 
L 237.405702 178.453431 
L 238.320623 178.106718 
L 239.235544 177.428648 
L 240.150465 177.01136 
L 241.065385 176.216887 
L 241.980306 175.82923 
L 244.725068 174.063774 
L 245.639989 173.376774 
L 247.469831 172.839899 
L 248.384751 172.18596 
L 249.299672 171.793402 
L 250.214593 171.601815 
L 251.129514 171.02695 
L 252.044434 170.727617 
L 252.959355 170.265091 
L 253.874276 170.05604 
L 255.704117 169.020423 
L 256.619038 168.848429 
L 257.533959 168.136487 
L 259.3638 167.068221 
L 262.108563 165.223037 
L 263.023483 165.026848 
L 263.938404 164.453825 
L 265.768246 163.597274 
L 266.683166 163.56419 
L 267.598087 163.15824 
L 269.427929 161.985831 
L 270.342849 161.980133 
L 271.25777 161.404708 
L 273.087612 160.632182 
L 274.002532 160.013277 
L 274.917453 159.608467 
L 276.747295 158.365255 
L 277.662215 158.17346 
L 278.577136 157.551898 
L 279.492057 157.275528 
L 281.321898 156.33092 
L 282.236819 156.121375 
L 283.15174 155.408676 
L 284.066661 155.052849 
L 284.981581 155.159945 
L 285.896502 154.458789 
L 287.726344 153.731837 
L 288.641264 153.286851 
L 290.471106 153.051511 
L 294.130789 150.447194 
L 295.96063 149.704683 
L 297.790472 148.443103 
L 298.705393 148.047716 
L 299.620313 147.51552 
L 300.535234 147.168933 
L 301.450155 146.949827 
L 302.365076 146.419771 
L 304.194917 145.7015 
L 305.109838 145.057449 
L 306.024759 144.828623 
L 306.939679 144.755723 
L 307.8546 144.486021 
L 309.684442 143.586258 
L 312.429204 141.600114 
L 314.259045 140.743346 
L 315.173966 139.923872 
L 316.088887 139.443529 
L 317.003808 138.805914 
L 317.918728 137.888103 
L 320.663491 135.955878 
L 321.578411 135.725513 
L 322.493332 135.085278 
L 323.408253 133.818344 
L 324.323174 133.081646 
L 327.067936 132.109977 
L 327.982857 131.407036 
L 330.727619 130.145144 
L 331.64254 130.125427 
L 332.55746 129.509057 
L 333.472381 129.405867 
L 334.387302 129.130525 
L 335.302223 128.535674 
L 336.217143 127.579345 
L 337.132064 127.137497 
L 338.046985 126.471375 
L 341.706668 124.776967 
L 342.621589 124.504976 
L 343.536509 124.010965 
L 344.45143 122.964693 
L 346.281272 122.033439 
L 347.196192 122.302972 
L 348.111113 122.08106 
L 349.026034 121.734519 
L 349.940955 121.728272 
L 350.855875 121.483623 
L 351.770796 120.812191 
L 353.600638 120.415316 
L 354.515558 120.537543 
L 356.3454 119.815034 
L 357.260321 119.046895 
L 358.175241 118.965445 
L 359.090162 118.545659 
L 361.834924 116.814661 
L 362.749845 116.468643 
L 363.664766 116.732951 
L 364.579687 116.674723 
L 366.409528 116.331213 
L 367.324449 115.888008 
L 370.069211 115.905564 
L 372.813973 113.472076 
L 373.728894 113.320539 
L 374.643815 113.494688 
L 375.558736 113.808277 
L 376.473656 112.998966 
L 377.388577 112.59756 
L 378.303498 112.528455 
L 379.218419 112.062459 
L 381.04826 112.127553 
L 381.963181 111.08572 
L 382.878102 110.543643 
L 383.793022 110.377129 
L 384.707943 109.813316 
L 385.622864 109.623102 
L 386.537785 108.803636 
L 387.452705 108.36907 
L 388.367626 107.545697 
L 389.282547 107.028106 
L 390.197468 107.55825 
L 391.112388 107.219284 
L 392.027309 106.502271 
L 392.94223 106.204299 
L 393.857151 106.274776 
L 394.772071 105.801831 
L 395.686992 106.063967 
L 396.601913 105.710011 
L 397.516834 104.664281 
L 399.346675 104.17159 
L 400.261596 105.047507 
L 401.176517 104.250869 
L 402.091437 102.903197 
L 403.006358 103.166157 
L 403.921279 103.090491 
L 404.8362 102.146605 
L 405.75112 101.510097 
L 406.666041 101.136393 
L 407.580962 100.312171 
L 408.495883 100.242216 
L 410.325724 100.411408 
L 411.240645 100.160111 
L 412.155566 98.716265 
L 413.985407 97.412655 
L 414.900328 96.141433 
L 415.815249 95.313377 
L 416.730169 94.717629 
L 417.64509 93.956961 
L 418.560011 93.641321 
L 419.474932 94.08617 
L 420.389852 94.231445 
L 421.304773 94.793596 
L 422.219694 94.712075 
L 423.134615 93.340178 
L 424.049535 93.185745 
L 424.964456 92.449777 
L 425.879377 92.851873 
L 426.794298 91.289682 
L 427.709218 90.32566 
L 428.624139 89.781435 
L 429.53906 89.563778 
L 430.453981 90.202645 
L 431.368901 91.23756 
L 432.283822 91.758393 
L 433.198743 91.691228 
L 434.113664 92.529329 
L 435.028584 92.759762 
L 435.943505 92.306524 
L 436.858426 91.507006 
L 437.773347 92.11474 
L 438.688267 92.198696 
L 439.603188 92.566489 
L 440.518109 93.118695 
L 441.43303 91.207547 
L 442.34795 90.700712 
L 443.262871 91.694708 
L 444.177792 92.902173 
L 445.092713 92.237942 
L 446.007633 92.738133 
L 446.922554 91.314737 
L 447.837475 90.989468 
L 448.752396 91.262527 
L 449.667316 91.220912 
L 450.582237 91.007087 
L 451.497158 89.457358 
L 452.412079 89.324354 
L 453.326999 89.890937 
L 454.24192 88.747583 
L 455.156841 87.149751 
L 456.071762 87.016477 
L 456.986682 85.936142 
L 457.901603 85.753688 
L 458.816524 86.062989 
L 459.731445 86.584841 
L 460.646365 85.285913 
L 461.561286 84.590067 
L 462.476207 83.051241 
L 463.391128 82.854045 
L 464.306048 83.302333 
L 465.220969 84.02306 
L 466.13589 83.063305 
L 467.050811 85.154681 
L 467.965731 85.938807 
L 468.880652 84.052816 
L 469.795573 84.694093 
L 470.710494 85.009334 
L 471.625414 84.773944 
L 472.540335 84.887347 
L 474.370177 86.811804 
L 475.285097 88.749201 
L 476.200018 90.235568 
L 477.114939 89.618787 
L 478.02986 88.616651 
L 478.94478 86.92928 
L 479.859701 87.429931 
L 480.774622 86.280847 
L 481.689543 86.494035 
L 482.604463 87.048091 
L 483.519384 89.17703 
L 484.434305 93.876944 
L 485.349226 93.76732 
L 486.264146 96.25827 
L 487.179067 96.946049 
L 488.093988 99.967944 
L 489.008909 98.969764 
L 489.923829 99.293586 
L 490.83875 100.96801 
L 491.753671 102.072241 
L 492.668592 104.797803 
L 493.583512 105.136142 
L 494.498433 106.420944 
L 495.413354 104.047798 
L 496.328275 108.105969 
L 497.243195 110.659603 
L 498.158116 115.099244 
L 499.073037 118.514971 
L 499.987958 124.570347 
L 500.902878 129.168291 
L 502.73272 130.837445 
L 503.647641 130.558707 
L 504.562561 133.766408 
L 505.477482 135.104285 
L 506.392403 135.055074 
L 507.307324 139.270854 
L 508.222244 142.718169 
L 510.052086 148.207543 
L 510.967007 146.485833 
L 511.881927 147.041336 
L 512.796848 144.274044 
L 513.711769 143.64543 
L 514.62669 147.252968 
L 515.54161 146.360058 
L 516.456531 152.760141 
L 517.371452 155.676092 
L 518.286373 161.510336 
L 519.201293 162.206834 
L 520.116214 166.931832 
L 521.031135 162.645599 
L 521.946056 166.329407 
L 522.860976 177.15944 
L 523.775897 176.444487 
L 524.690818 180.033559 
L 525.605739 179.532205 
L 526.52066 184.051651 
L 527.43558 189.153714 
L 528.350501 195.61718 
L 529.265422 202.920312 
L 530.180343 185.478068 
L 532.010184 208.494915 
L 532.925105 192.208407 
L 533.840026 202.351118 
L 534.754946 177.058542 
L 536.584788 192.673016 
L 537.499709 195.319536 
L 538.414629 203.24721 
L 539.32955 193.453001 
L 540.244471 201.144362 
L 541.159392 210.026946 
L 542.074312 217.701438 
L 542.989233 200.329001 
L 543.904154 166.79375 
L 544.819075 180.79081 
L 545.733995 188.865376 
L 546.648916 191.534856 
L 547.563837 198.003651 
L 548.478758 203.488165 
L 549.393678 213.163674 
L 550.308599 220.723387 
L 551.22352 231.27221 
L 553.053361 247.623543 
L 553.968282 261.780466 
L 554.883203 268.767791 
L 555.798124 286.41652 
L 557.627965 311.414007 
L 559.457807 342.977722 
L 560.372727 369.36 
L 560.372727 369.36 
" style="fill:none;stroke:#dd8452;stroke-linecap:round;stroke-width:1.5;"/>
   </g>
   <g id="line2d_17">
    <path clip-path="url(#p81fd67cc58)" d="M 103.827273 281.897525 
L 104.742193 280.722232 
L 106.572035 277.694738 
L 108.401876 275.132341 
L 112.97648 268.425436 
L 114.806322 266.100083 
L 120.295846 260.109582 
L 125.785371 254.786097 
L 135.849499 246.34368 
L 136.76442 245.398919 
L 138.594261 243.974302 
L 141.339024 241.395457 
L 147.743469 236.276335 
L 150.488231 234.45113 
L 151.403152 233.552177 
L 157.807597 228.776421 
L 161.46728 226.253238 
L 162.382201 225.576002 
L 163.297122 224.732368 
L 165.126963 223.353502 
L 166.041884 222.938289 
L 169.701567 220.43199 
L 170.616488 219.804301 
L 172.446329 218.915119 
L 175.191091 217.125519 
L 177.935854 215.653477 
L 179.765695 214.783416 
L 180.680616 214.319411 
L 181.595537 213.545066 
L 183.425378 212.403477 
L 185.25522 211.427673 
L 188.914903 209.190093 
L 191.659665 208.07079 
L 194.404427 206.55494 
L 195.319348 205.725379 
L 197.149189 204.772462 
L 199.893952 203.234221 
L 200.808872 202.486511 
L 204.468555 200.312878 
L 208.128238 197.592837 
L 209.95808 196.641522 
L 210.873001 196.109185 
L 211.787921 195.722029 
L 212.702842 195.062138 
L 215.447604 193.97709 
L 217.277446 192.981406 
L 218.192367 192.469398 
L 219.107287 192.097055 
L 220.937129 191.115833 
L 223.681891 189.751733 
L 225.511733 188.683804 
L 226.426653 187.865339 
L 228.256495 186.868734 
L 229.171416 186.058072 
L 231.001257 184.775104 
L 232.831099 183.571364 
L 233.746019 182.967791 
L 234.66094 182.531068 
L 235.575861 181.60082 
L 236.490782 181.336193 
L 237.405702 180.480669 
L 241.065385 178.536483 
L 242.895227 177.290012 
L 243.810148 176.95416 
L 244.725068 176.227204 
L 247.469831 174.432854 
L 248.384751 174.222594 
L 249.299672 173.827777 
L 250.214593 173.687367 
L 253.874276 171.550002 
L 254.789197 171.458165 
L 256.619038 170.567701 
L 257.533959 170.01852 
L 259.3638 169.380421 
L 260.278721 168.94102 
L 261.193642 168.661331 
L 262.108563 168.117767 
L 263.023483 167.851008 
L 263.938404 167.711783 
L 264.853325 167.258801 
L 265.768246 167.005807 
L 269.427929 165.229494 
L 271.25777 164.20467 
L 273.087612 163.098795 
L 274.002532 162.844017 
L 275.832374 161.862204 
L 277.662215 160.871749 
L 278.577136 160.515217 
L 279.492057 160.568228 
L 280.406978 160.382055 
L 281.321898 159.920596 
L 283.15174 159.586126 
L 284.981581 158.038219 
L 285.896502 157.851246 
L 286.811423 157.550313 
L 287.726344 156.925183 
L 288.641264 156.535655 
L 289.556185 155.886612 
L 291.386027 155.057693 
L 292.300947 154.323004 
L 294.130789 153.488376 
L 295.04571 153.202632 
L 296.875551 152.24683 
L 297.790472 152.20892 
L 298.705393 151.519948 
L 300.535234 151.141805 
L 301.450155 150.332474 
L 302.365076 150.303273 
L 303.279996 149.777647 
L 305.109838 149.110576 
L 306.024759 148.679301 
L 306.939679 147.858105 
L 307.8546 148.085595 
L 308.769521 147.680842 
L 309.684442 147.702776 
L 310.599362 147.58309 
L 311.514283 147.605634 
L 312.429204 147.398721 
L 315.173966 146.199221 
L 316.088887 145.496971 
L 317.003808 145.335169 
L 317.918728 145.320577 
L 320.663491 144.724845 
L 323.408253 143.674243 
L 324.323174 143.069325 
L 325.238094 142.843066 
L 326.153015 142.090812 
L 327.067936 142.012266 
L 327.982857 141.729029 
L 328.897777 141.106662 
L 329.812698 140.638924 
L 330.727619 140.592304 
L 331.64254 140.37464 
L 332.55746 139.926731 
L 333.472381 138.857704 
L 335.302223 137.294833 
L 336.217143 137.152498 
L 337.132064 137.134177 
L 339.876826 135.987318 
L 340.791747 135.688767 
L 341.706668 135.051404 
L 342.621589 134.978086 
L 343.536509 134.482137 
L 344.45143 134.718702 
L 346.281272 134.358855 
L 347.196192 133.462882 
L 348.111113 132.982167 
L 349.026034 132.766067 
L 350.855875 131.207947 
L 351.770796 131.111638 
L 352.685717 130.599508 
L 355.430479 129.705283 
L 356.3454 129.467941 
L 359.090162 128.210861 
L 360.005083 128.023756 
L 360.920004 127.449703 
L 362.749845 125.589615 
L 364.579687 124.814268 
L 365.494607 124.199684 
L 366.409528 123.998642 
L 367.324449 123.087594 
L 368.23937 122.566287 
L 369.15429 122.34866 
L 370.984132 122.605738 
L 371.899053 122.411322 
L 372.813973 121.824073 
L 373.728894 121.017067 
L 374.643815 120.433802 
L 375.558736 120.059828 
L 376.473656 119.162001 
L 377.388577 118.678051 
L 378.303498 118.539395 
L 380.133339 117.878943 
L 381.04826 116.861453 
L 381.963181 116.798715 
L 382.878102 116.372838 
L 383.793022 116.569283 
L 384.707943 116.242966 
L 386.537785 116.106233 
L 387.452705 116.169548 
L 388.367626 116.363828 
L 389.282547 116.132873 
L 390.197468 116.109478 
L 392.027309 114.775643 
L 392.94223 114.656524 
L 393.857151 113.910831 
L 394.772071 114.017761 
L 395.686992 113.087603 
L 397.516834 111.989143 
L 398.431754 111.649705 
L 399.346675 110.675862 
L 400.261596 111.193462 
L 401.176517 111.427275 
L 402.091437 110.512141 
L 403.921279 109.367099 
L 405.75112 109.219931 
L 406.666041 108.636777 
L 407.580962 108.526634 
L 408.495883 107.854655 
L 409.410803 107.836578 
L 410.325724 108.428413 
L 411.240645 108.523597 
L 412.155566 107.218007 
L 413.070486 106.93292 
L 413.985407 107.029011 
L 414.900328 106.223444 
L 415.815249 105.930594 
L 416.730169 106.25894 
L 417.64509 105.487679 
L 419.474932 105.73993 
L 421.304773 106.338021 
L 422.219694 106.016139 
L 423.134615 106.13822 
L 424.049535 106.794452 
L 425.879377 107.517487 
L 426.794298 107.466735 
L 427.709218 107.748525 
L 428.624139 105.347675 
L 429.53906 105.950676 
L 430.453981 105.605214 
L 431.368901 104.353005 
L 432.283822 104.500729 
L 433.198743 104.794107 
L 435.028584 103.901631 
L 435.943505 100.666988 
L 436.858426 100.650042 
L 437.773347 101.287301 
L 439.603188 99.601819 
L 440.518109 98.253098 
L 441.43303 99.105544 
L 442.34795 100.244106 
L 443.262871 99.814688 
L 444.177792 100.54546 
L 445.092713 99.91728 
L 446.007633 99.770278 
L 446.922554 100.843696 
L 447.837475 100.202966 
L 448.752396 98.671434 
L 449.667316 98.308217 
L 450.582237 97.587111 
L 451.497158 96.416413 
L 452.412079 96.592436 
L 453.326999 94.902211 
L 454.24192 94.553859 
L 455.156841 93.046229 
L 456.071762 93.761065 
L 456.986682 94.12982 
L 457.901603 93.728924 
L 458.816524 91.130561 
L 459.731445 90.062467 
L 460.646365 89.80754 
L 461.561286 90.253794 
L 463.391128 92.956778 
L 464.306048 91.81926 
L 465.220969 92.938586 
L 466.13589 92.494664 
L 467.050811 87.288938 
L 467.965731 84.073229 
L 468.880652 84.690993 
L 469.795573 83.075391 
L 470.710494 85.446958 
L 471.625414 84.6517 
L 472.540335 84.047091 
L 473.455256 80.328193 
L 474.370177 81.170103 
L 475.285097 78.623467 
L 476.200018 79.044747 
L 477.114939 77.183405 
L 478.02986 77.51181 
L 478.94478 76.079584 
L 479.859701 76.095383 
L 480.774622 74.414344 
L 481.689543 73.051295 
L 482.604463 73.119643 
L 483.519384 77.082454 
L 484.434305 77.053217 
L 485.349226 79.416752 
L 486.264146 79.296399 
L 487.179067 80.484774 
L 488.093988 79.979539 
L 489.008909 78.933919 
L 489.923829 76.986484 
L 490.83875 77.009646 
L 491.753671 78.053068 
L 492.668592 78.290917 
L 493.583512 76.759523 
L 494.498433 80.843689 
L 495.413354 74.98821 
L 496.328275 72.341457 
L 497.243195 74.508077 
L 498.158116 77.206938 
L 499.073037 74.555465 
L 499.987958 74.881263 
L 500.902878 76.535703 
L 501.817799 72.050783 
L 502.73272 70.606622 
L 503.647641 66.96 
L 504.562561 72.767743 
L 505.477482 74.595518 
L 506.392403 73.00565 
L 507.307324 75.75656 
L 509.137165 85.282609 
L 510.052086 87.430794 
L 510.967007 91.172163 
L 511.881927 92.307297 
L 512.796848 82.409191 
L 515.54161 104.392166 
L 516.456531 101.132241 
L 517.371452 104.142987 
L 518.286373 110.654986 
L 519.201293 105.443632 
L 520.116214 116.347838 
L 521.031135 108.9742 
L 521.946056 118.453347 
L 522.860976 126.172767 
L 523.775897 112.306008 
L 524.690818 115.552301 
L 525.605739 128.062946 
L 526.52066 147.647105 
L 528.350501 181.742448 
L 529.265422 202.694641 
L 530.180343 200.687402 
L 531.095263 193.369144 
L 532.010184 188.798607 
L 532.925105 184.910451 
L 534.754946 196.436781 
L 535.669867 200.243821 
L 537.499709 215.842529 
L 538.414629 224.710599 
L 539.32955 221.805435 
L 540.244471 217.528851 
L 541.159392 222.655941 
L 542.074312 221.75453 
L 542.989233 213.413414 
L 543.904154 221.803583 
L 544.819075 205.819928 
L 546.648916 220.584935 
L 547.563837 230.550372 
L 548.478758 236.842335 
L 549.393678 245.293648 
L 550.308599 218.936235 
L 551.22352 232.706809 
L 552.138441 242.045045 
L 553.053361 252.882486 
L 553.968282 261.27348 
L 555.798124 286.751523 
L 556.713044 303.183452 
L 557.627965 312.809706 
L 558.542886 323.948246 
L 559.457807 342.90242 
L 560.372727 369.36 
L 560.372727 369.36 
" style="fill:none;stroke:#55a868;stroke-linecap:round;stroke-width:1.5;"/>
   </g>
   <g id="line2d_18">
    <path clip-path="url(#p81fd67cc58)" d="M 103.827273 281.536584 
L 104.742193 279.997153 
L 105.657114 278.230419 
L 107.486956 275.649714 
L 109.316797 273.214303 
L 111.146639 270.607993 
L 114.806322 265.627752 
L 117.551084 262.598784 
L 119.380925 260.599805 
L 123.040608 256.969951 
L 125.785371 254.569714 
L 132.189816 248.964154 
L 134.019657 247.185868 
L 135.849499 245.717488 
L 136.76442 244.798743 
L 150.488231 233.275384 
L 152.318073 231.718229 
L 157.807597 227.61843 
L 160.552359 225.507327 
L 161.46728 224.906009 
L 162.382201 224.102735 
L 163.297122 223.750475 
L 167.871725 220.814943 
L 169.701567 219.479031 
L 170.616488 218.906723 
L 171.531408 218.549169 
L 176.106012 215.566199 
L 177.935854 214.295534 
L 179.765695 213.244222 
L 181.595537 212.034234 
L 182.510457 211.243819 
L 184.340299 210.342248 
L 185.25522 209.702165 
L 187.085061 208.805699 
L 187.999982 208.064422 
L 189.829823 207.143001 
L 190.744744 206.414103 
L 191.659665 205.881021 
L 194.404427 204.603506 
L 195.319348 203.901995 
L 196.234269 203.594608 
L 197.149189 202.823688 
L 198.979031 201.823372 
L 199.893952 200.937342 
L 201.723793 199.934821 
L 202.638714 199.302652 
L 203.553635 198.855802 
L 204.468555 198.27294 
L 206.298397 197.734612 
L 207.213318 197.255934 
L 208.128238 196.991557 
L 209.043159 196.453253 
L 210.873001 195.684743 
L 211.787921 195.108282 
L 212.702842 194.733918 
L 216.362525 192.539303 
L 219.107287 191.118241 
L 220.937129 190.056453 
L 222.76697 189.417321 
L 223.681891 188.861583 
L 224.596812 187.994357 
L 225.511733 187.801873 
L 226.426653 187.398294 
L 227.341574 186.709998 
L 228.256495 186.198406 
L 230.086336 185.567985 
L 231.916178 184.698385 
L 232.831099 184.027944 
L 233.746019 183.770017 
L 234.66094 182.970098 
L 235.575861 182.768939 
L 236.490782 182.329169 
L 238.320623 181.317406 
L 242.895227 179.010021 
L 243.810148 178.486702 
L 244.725068 178.266847 
L 245.639989 177.590145 
L 246.55491 177.113864 
L 247.469831 176.403345 
L 248.384751 175.88564 
L 250.214593 175.150697 
L 251.129514 174.987305 
L 252.044434 174.296048 
L 252.959355 173.845468 
L 254.789197 172.380677 
L 255.704117 172.099643 
L 256.619038 171.429025 
L 257.533959 171.167048 
L 258.44888 171.132524 
L 260.278721 170.270089 
L 261.193642 169.452127 
L 262.108563 169.424252 
L 266.683166 166.879681 
L 268.513008 165.831902 
L 269.427929 165.446082 
L 270.342849 165.26418 
L 274.917453 163.258367 
L 275.832374 163.472188 
L 276.747295 163.075977 
L 278.577136 162.581651 
L 280.406978 161.743035 
L 282.236819 160.010219 
L 284.066661 158.838251 
L 284.981581 158.592397 
L 286.811423 157.607408 
L 287.726344 156.877302 
L 290.471106 155.197739 
L 292.300947 154.538658 
L 294.130789 154.321678 
L 295.04571 153.728398 
L 295.96063 153.337358 
L 296.875551 152.035275 
L 298.705393 151.064211 
L 299.620313 150.39239 
L 300.535234 150.460604 
L 302.365076 149.493257 
L 304.194917 148.94504 
L 305.109838 148.506606 
L 306.024759 148.423089 
L 310.599362 146.947486 
L 311.514283 146.288743 
L 312.429204 145.923067 
L 313.344125 145.965685 
L 315.173966 145.233848 
L 316.088887 144.748421 
L 317.003808 144.098374 
L 318.833649 143.751287 
L 319.74857 143.287406 
L 320.663491 142.555543 
L 321.578411 142.072583 
L 322.493332 140.641866 
L 323.408253 140.069448 
L 324.323174 139.246936 
L 325.238094 138.679067 
L 327.067936 137.157297 
L 327.982857 136.931003 
L 328.897777 136.050721 
L 329.812698 135.577927 
L 330.727619 134.903877 
L 331.64254 134.654331 
L 332.55746 134.551339 
L 333.472381 134.288125 
L 334.387302 134.153421 
L 335.302223 133.669225 
L 336.217143 133.320105 
L 338.046985 132.113873 
L 338.961906 131.556225 
L 339.876826 131.762806 
L 340.791747 131.451353 
L 341.706668 130.638557 
L 342.621589 130.356872 
L 343.536509 129.531512 
L 344.45143 128.304313 
L 346.281272 127.341895 
L 347.196192 127.093804 
L 348.111113 126.616132 
L 349.026034 126.468477 
L 350.855875 124.793034 
L 351.770796 124.552115 
L 352.685717 123.702545 
L 353.600638 123.264704 
L 354.515558 122.314312 
L 356.3454 121.035099 
L 357.260321 120.452575 
L 358.175241 120.457574 
L 359.090162 120.584796 
L 360.005083 119.810079 
L 360.920004 120.193158 
L 361.834924 120.429353 
L 362.749845 119.771436 
L 364.579687 119.183471 
L 365.494607 118.753903 
L 366.409528 118.972388 
L 367.324449 118.435617 
L 368.23937 118.085938 
L 369.15429 117.581864 
L 370.069211 118.034472 
L 370.984132 118.1725 
L 371.899053 117.432135 
L 372.813973 117.633228 
L 375.558736 115.620663 
L 376.473656 114.888786 
L 379.218419 114.744349 
L 380.133339 114.522119 
L 381.04826 113.826453 
L 381.963181 114.057336 
L 382.878102 113.731429 
L 383.793022 113.833823 
L 384.707943 112.615008 
L 385.622864 112.339227 
L 386.537785 112.402721 
L 388.367626 112.057641 
L 389.282547 112.437019 
L 390.197468 112.17442 
L 391.112388 112.303917 
L 392.027309 112.049285 
L 392.94223 112.001602 
L 393.857151 110.841783 
L 394.772071 111.152469 
L 395.686992 110.897839 
L 396.601913 110.190082 
L 397.516834 110.446226 
L 398.431754 109.840316 
L 399.346675 109.036884 
L 400.261596 108.809222 
L 401.176517 108.064307 
L 402.091437 107.969557 
L 403.921279 106.245922 
L 406.666041 105.242771 
L 407.580962 105.547468 
L 408.495883 104.684288 
L 409.410803 104.74166 
L 410.325724 104.372415 
L 411.240645 104.30144 
L 413.070486 103.034551 
L 413.985407 102.176782 
L 414.900328 102.786073 
L 415.815249 101.999117 
L 416.730169 101.928271 
L 417.64509 101.620212 
L 418.560011 100.403565 
L 419.474932 98.940495 
L 420.389852 98.475265 
L 421.304773 97.400916 
L 422.219694 97.130264 
L 423.134615 97.506192 
L 424.049535 97.031147 
L 424.964456 95.78906 
L 425.879377 94.930206 
L 426.794298 93.089673 
L 427.709218 93.609252 
L 428.624139 94.927288 
L 429.53906 94.230719 
L 430.453981 95.017143 
L 431.368901 94.640715 
L 432.283822 94.054639 
L 433.198743 92.597363 
L 434.113664 92.083483 
L 435.028584 91.151057 
L 435.943505 91.888387 
L 436.858426 91.564743 
L 437.773347 90.617804 
L 438.688267 91.156539 
L 440.518109 91.736043 
L 441.43303 90.976917 
L 442.34795 91.398424 
L 443.262871 91.383803 
L 444.177792 89.73795 
L 445.092713 89.60069 
L 446.007633 89.34559 
L 446.922554 90.230888 
L 447.837475 90.544052 
L 448.752396 89.507237 
L 449.667316 89.581212 
L 450.582237 89.449172 
L 451.497158 89.198173 
L 453.326999 90.4339 
L 454.24192 89.193783 
L 455.156841 88.375132 
L 456.071762 88.96532 
L 456.986682 88.875876 
L 457.901603 89.152131 
L 458.816524 89.161393 
L 459.731445 87.581194 
L 461.561286 88.940853 
L 462.476207 88.76275 
L 463.391128 86.672907 
L 464.306048 84.937877 
L 465.220969 84.811939 
L 466.13589 84.542339 
L 467.050811 83.820317 
L 467.965731 83.590575 
L 468.880652 84.117848 
L 469.795573 84.429495 
L 470.710494 86.302435 
L 471.625414 85.029907 
L 472.540335 87.220755 
L 473.455256 88.877935 
L 474.370177 89.662811 
L 475.285097 91.02702 
L 476.200018 91.868803 
L 477.114939 92.34603 
L 478.02986 91.365825 
L 478.94478 89.316944 
L 479.859701 91.060647 
L 480.774622 90.751563 
L 481.689543 91.382315 
L 482.604463 91.39323 
L 483.519384 93.414747 
L 484.434305 93.542437 
L 485.349226 93.451966 
L 486.264146 94.108827 
L 487.179067 93.408639 
L 488.093988 93.348859 
L 489.923829 98.190233 
L 490.83875 97.236903 
L 491.753671 99.538338 
L 492.668592 101.060112 
L 493.583512 100.985944 
L 494.498433 103.34266 
L 495.413354 101.109755 
L 496.328275 101.840151 
L 497.243195 99.312066 
L 498.158116 100.727976 
L 499.073037 96.550027 
L 499.987958 93.266117 
L 500.902878 97.702472 
L 501.817799 100.831791 
L 502.73272 101.978924 
L 503.647641 97.383971 
L 505.477482 108.142328 
L 506.392403 116.12562 
L 507.307324 115.032023 
L 508.222244 112.489931 
L 509.137165 113.458073 
L 511.881927 128.650258 
L 512.796848 138.312658 
L 513.711769 139.92709 
L 514.62669 142.269104 
L 515.54161 141.915674 
L 516.456531 145.769807 
L 517.371452 148.380709 
L 518.286373 148.514965 
L 519.201293 150.658423 
L 520.116214 150.063515 
L 521.031135 150.929369 
L 521.946056 154.737299 
L 522.860976 162.759089 
L 523.775897 159.780343 
L 524.690818 170.619047 
L 525.605739 172.134302 
L 526.52066 164.267733 
L 527.43558 168.971644 
L 528.350501 175.47822 
L 529.265422 169.837824 
L 530.180343 189.042363 
L 531.095263 169.822371 
L 532.010184 171.517166 
L 532.925105 150.289935 
L 533.840026 162.287119 
L 534.754946 171.993276 
L 535.669867 127.151849 
L 536.584788 134.08894 
L 537.499709 137.696565 
L 539.32955 164.249677 
L 541.159392 186.805059 
L 542.074312 194.046406 
L 542.989233 203.03036 
L 544.819075 216.05616 
L 545.733995 220.200629 
L 546.648916 227.134501 
L 549.393678 244.727176 
L 550.308599 255.58795 
L 552.138441 270.051962 
L 553.968282 289.58699 
L 554.883203 296.645083 
L 555.798124 307.917278 
L 556.713044 309.979591 
L 557.627965 319.204797 
L 558.542886 332.959716 
L 559.457807 343.802063 
L 560.372727 369.36 
L 560.372727 369.36 
" style="fill:none;stroke:#c44e52;stroke-linecap:round;stroke-width:1.5;"/>
   </g>
   <g id="line2d_19">
    <path clip-path="url(#p81fd67cc58)" d="M 103.827273 281.614673 
L 104.742193 280.447457 
L 106.572035 277.05543 
L 110.231718 271.428619 
L 112.97648 267.751793 
L 114.806322 265.51181 
L 120.295846 259.582181 
L 127.615212 252.666728 
L 128.530133 251.899009 
L 130.359974 250.139978 
L 136.76442 244.553899 
L 140.424103 241.697246 
L 142.253944 240.363398 
L 144.083786 238.854773 
L 154.147914 230.728059 
L 155.977756 229.445751 
L 156.892676 228.644445 
L 159.637439 226.682849 
L 161.46728 225.174924 
L 163.297122 223.936717 
L 165.126963 222.335642 
L 166.956805 221.264824 
L 167.871725 220.896115 
L 169.701567 219.66384 
L 171.531408 218.61027 
L 174.276171 216.90464 
L 176.106012 215.621987 
L 177.935854 214.614989 
L 178.850774 213.995031 
L 180.680616 213.12836 
L 182.510457 211.952493 
L 183.425378 211.76047 
L 189.829823 207.642944 
L 190.744744 207.236785 
L 191.659665 206.626493 
L 194.404427 205.33081 
L 198.979031 202.765541 
L 199.893952 202.483741 
L 208.128238 197.685093 
L 209.043159 196.91858 
L 209.95808 196.332509 
L 210.873001 196.101313 
L 212.702842 195.167243 
L 213.617763 194.521026 
L 214.532684 194.305736 
L 217.277446 192.522462 
L 218.192367 191.654188 
L 219.107287 191.305402 
L 220.022208 190.796985 
L 221.85205 190.157776 
L 224.596812 188.579123 
L 225.511733 188.40411 
L 227.341574 187.375815 
L 228.256495 186.674567 
L 229.171416 186.136277 
L 230.086336 185.801117 
L 231.916178 184.571088 
L 232.831099 184.386088 
L 237.405702 182.301922 
L 238.320623 181.585072 
L 240.150465 180.87284 
L 242.895227 179.046201 
L 246.55491 177.486385 
L 253.874276 173.976958 
L 254.789197 173.215276 
L 255.704117 173.069765 
L 256.619038 172.623478 
L 258.44888 172.11752 
L 263.023483 170.041235 
L 265.768246 168.68287 
L 266.683166 168.359798 
L 267.598087 168.336098 
L 268.513008 167.690199 
L 269.427929 167.558591 
L 270.342849 167.081998 
L 272.172691 165.90287 
L 276.747295 164.076029 
L 278.577136 162.869211 
L 279.492057 162.417182 
L 280.406978 161.805569 
L 281.321898 160.916356 
L 282.236819 160.544888 
L 283.15174 159.966319 
L 284.066661 159.64596 
L 284.981581 158.948996 
L 285.896502 158.816051 
L 286.811423 158.268514 
L 287.726344 158.340592 
L 288.641264 158.013291 
L 289.556185 157.886399 
L 290.471106 157.129217 
L 292.300947 156.917343 
L 293.215868 156.337886 
L 294.130789 155.575278 
L 296.875551 154.625176 
L 298.705393 153.854838 
L 300.535234 152.50541 
L 302.365076 151.151821 
L 303.279996 150.881608 
L 304.194917 150.812831 
L 306.024759 150.186041 
L 306.939679 149.438648 
L 308.769521 148.756999 
L 311.514283 147.646854 
L 314.259045 145.776296 
L 315.173966 145.437171 
L 316.088887 145.587926 
L 317.003808 145.921301 
L 317.918728 145.564727 
L 318.833649 145.442981 
L 319.74857 145.544351 
L 320.663491 144.937996 
L 325.238094 142.839968 
L 326.153015 142.65442 
L 327.067936 142.64326 
L 327.982857 142.263015 
L 328.897777 141.211935 
L 329.812698 140.897869 
L 330.727619 140.145335 
L 331.64254 139.714043 
L 332.55746 139.650584 
L 333.472381 139.136114 
L 334.387302 138.804693 
L 336.217143 137.567971 
L 337.132064 136.719292 
L 338.046985 136.677864 
L 338.961906 136.357233 
L 339.876826 136.206109 
L 341.706668 135.73132 
L 342.621589 135.627418 
L 343.536509 135.048635 
L 344.45143 134.084695 
L 345.366351 133.452495 
L 346.281272 132.658997 
L 347.196192 132.057144 
L 348.111113 132.16713 
L 349.026034 131.896107 
L 349.940955 132.136817 
L 350.855875 131.835153 
L 351.770796 131.337778 
L 352.685717 130.690439 
L 353.600638 130.321962 
L 354.515558 130.092032 
L 355.430479 129.441888 
L 356.3454 129.654215 
L 359.090162 128.032101 
L 360.005083 127.882462 
L 360.920004 128.362392 
L 361.834924 127.784197 
L 364.579687 127.577737 
L 365.494607 127.130686 
L 367.324449 126.56 
L 368.23937 125.903087 
L 369.15429 125.07538 
L 370.069211 124.809105 
L 371.899053 124.797126 
L 372.813973 124.810302 
L 373.728894 123.757912 
L 374.643815 123.908752 
L 375.558736 123.244623 
L 376.473656 123.500806 
L 377.388577 123.050795 
L 378.303498 123.15264 
L 379.218419 122.395607 
L 380.133339 121.456783 
L 381.04826 120.735797 
L 383.793022 120.206029 
L 384.707943 120.190647 
L 385.622864 119.575383 
L 386.537785 119.410129 
L 387.452705 119.659511 
L 388.367626 119.413196 
L 389.282547 119.641568 
L 390.197468 119.455761 
L 391.112388 118.183577 
L 392.027309 117.552375 
L 392.94223 117.735162 
L 393.857151 117.426907 
L 394.772071 115.179247 
L 395.686992 114.516948 
L 397.516834 114.876562 
L 399.346675 113.390387 
L 400.261596 113.18499 
L 401.176517 113.891016 
L 402.091437 113.513257 
L 403.006358 113.333414 
L 403.921279 113.377743 
L 405.75112 111.514075 
L 406.666041 111.32509 
L 407.580962 110.841246 
L 408.495883 110.730872 
L 409.410803 110.439214 
L 410.325724 109.590565 
L 411.240645 108.321503 
L 412.155566 107.813259 
L 413.070486 106.382112 
L 413.985407 105.902215 
L 414.900328 105.175156 
L 415.815249 105.02867 
L 416.730169 104.994929 
L 417.64509 105.162194 
L 418.560011 104.574398 
L 420.389852 104.801278 
L 421.304773 105.155825 
L 422.219694 104.858848 
L 423.134615 105.027748 
L 424.049535 105.738562 
L 426.794298 104.900184 
L 427.709218 104.1159 
L 428.624139 103.6052 
L 429.53906 104.728484 
L 430.453981 104.606338 
L 431.368901 103.318757 
L 432.283822 103.311861 
L 434.113664 101.391654 
L 435.028584 101.868206 
L 435.943505 101.361334 
L 436.858426 100.677137 
L 437.773347 101.700588 
L 438.688267 100.957412 
L 439.603188 100.672178 
L 440.518109 101.050291 
L 441.43303 101.145458 
L 442.34795 100.502513 
L 443.262871 99.043722 
L 445.092713 99.411572 
L 446.007633 100.194867 
L 446.922554 99.075871 
L 447.837475 97.389465 
L 448.752396 97.826893 
L 449.667316 96.868994 
L 450.582237 96.662666 
L 451.497158 97.239566 
L 452.412079 96.260737 
L 454.24192 97.604287 
L 455.156841 96.749451 
L 456.071762 99.042334 
L 456.986682 99.05856 
L 457.901603 97.742347 
L 458.816524 97.675745 
L 459.731445 98.254854 
L 460.646365 96.774888 
L 461.561286 97.211029 
L 462.476207 96.906256 
L 463.391128 96.926275 
L 465.220969 94.795313 
L 466.13589 95.83363 
L 467.965731 96.311728 
L 468.880652 95.922912 
L 469.795573 96.303251 
L 470.710494 94.777824 
L 471.625414 95.173664 
L 472.540335 92.960518 
L 473.455256 94.316552 
L 474.370177 93.628541 
L 475.285097 93.847473 
L 476.200018 91.957804 
L 477.114939 93.785807 
L 478.02986 93.255316 
L 478.94478 96.01567 
L 479.859701 96.219148 
L 480.774622 96.27727 
L 482.604463 100.396838 
L 483.519384 101.872093 
L 484.434305 102.875668 
L 485.349226 102.666376 
L 486.264146 102.151759 
L 487.179067 103.740502 
L 488.093988 103.395552 
L 489.008909 103.350754 
L 489.923829 102.125475 
L 490.83875 105.723349 
L 491.753671 107.089618 
L 492.668592 109.614465 
L 494.498433 105.030128 
L 495.413354 111.291815 
L 496.328275 114.19974 
L 497.243195 116.056687 
L 498.158116 117.437829 
L 499.073037 114.859618 
L 499.987958 119.141635 
L 500.902878 121.809624 
L 501.817799 126.582 
L 502.73272 126.930554 
L 503.647641 129.926655 
L 504.562561 133.612503 
L 505.477482 130.1356 
L 506.392403 131.541514 
L 507.307324 131.400458 
L 508.222244 131.975492 
L 510.052086 136.776393 
L 510.967007 135.537922 
L 511.881927 134.546334 
L 512.796848 130.887052 
L 513.711769 131.714568 
L 514.62669 130.176375 
L 515.54161 131.364349 
L 516.456531 136.086791 
L 517.371452 128.639913 
L 518.286373 128.708806 
L 519.201293 125.816456 
L 520.116214 117.086166 
L 521.031135 126.894136 
L 521.946056 130.810509 
L 522.860976 133.186929 
L 523.775897 136.081582 
L 524.690818 126.991638 
L 525.605739 150.459499 
L 526.52066 136.210789 
L 527.43558 148.146746 
L 528.350501 137.809329 
L 529.265422 118.521371 
L 530.180343 119.257299 
L 531.095263 146.109837 
L 532.010184 139.191723 
L 532.925105 134.030919 
L 533.840026 141.908996 
L 534.754946 140.480734 
L 535.669867 149.914831 
L 537.499709 162.945698 
L 539.32955 188.23858 
L 540.244471 169.429472 
L 541.159392 175.773581 
L 542.074312 183.633915 
L 543.904154 209.426021 
L 546.648916 228.089456 
L 547.563837 214.124075 
L 548.478758 226.715212 
L 549.393678 234.110096 
L 552.138441 259.554347 
L 553.968282 281.336594 
L 554.883203 284.985402 
L 556.713044 311.269249 
L 559.457807 346.409788 
L 560.372727 369.36 
L 560.372727 369.36 
" style="fill:none;stroke:#8172b3;stroke-linecap:round;stroke-width:1.5;"/>
   </g>
   <g id="patch_3">
    <path d="M 81 384.48 
L 81 51.84 
" style="fill:none;stroke:#ffffff;stroke-linecap:square;stroke-linejoin:miter;stroke-width:1.25;"/>
   </g>
   <g id="patch_4">
    <path d="M 583.2 384.48 
L 583.2 51.84 
" style="fill:none;stroke:#ffffff;stroke-linecap:square;stroke-linejoin:miter;stroke-width:1.25;"/>
   </g>
   <g id="patch_5">
    <path d="M 81 384.48 
L 583.2 384.48 
" style="fill:none;stroke:#ffffff;stroke-linecap:square;stroke-linejoin:miter;stroke-width:1.25;"/>
   </g>
   <g id="patch_6">
    <path d="M 81 51.84 
L 583.2 51.84 
" style="fill:none;stroke:#ffffff;stroke-linecap:square;stroke-linejoin:miter;stroke-width:1.25;"/>
   </g>
   <g id="text_17">
    <!-- CV AMS Curves -->
    <defs>
     <path d="M 58.796875 25.09375 
L 68.265625 22.703125 
Q 65.28125 11.03125 57.546875 4.90625 
Q 49.8125 -1.21875 38.625 -1.21875 
Q 27.046875 -1.21875 19.796875 3.484375 
Q 12.546875 8.203125 8.765625 17.140625 
Q 4.984375 26.078125 4.984375 36.328125 
Q 4.984375 47.515625 9.25 55.828125 
Q 13.53125 64.15625 21.40625 68.46875 
Q 29.296875 72.796875 38.765625 72.796875 
Q 49.515625 72.796875 56.828125 67.328125 
Q 64.15625 61.859375 67.046875 51.953125 
L 57.71875 49.75 
Q 55.21875 57.5625 50.484375 61.125 
Q 45.75 64.703125 38.578125 64.703125 
Q 30.328125 64.703125 24.78125 60.734375 
Q 19.234375 56.78125 16.984375 50.109375 
Q 14.75 43.453125 14.75 36.375 
Q 14.75 27.25 17.40625 20.4375 
Q 20.0625 13.625 25.671875 10.25 
Q 31.296875 6.890625 37.84375 6.890625 
Q 45.796875 6.890625 51.3125 11.46875 
Q 56.84375 16.0625 58.796875 25.09375 
z
" id="ArialMT-67"/>
     <path d="M 28.171875 0 
L 0.4375 71.578125 
L 10.6875 71.578125 
L 29.296875 19.578125 
Q 31.546875 13.328125 33.0625 7.859375 
Q 34.71875 13.71875 36.921875 19.578125 
L 56.25 71.578125 
L 65.921875 71.578125 
L 37.890625 0 
z
" id="ArialMT-86"/>
     <path d="M -0.140625 0 
L 27.34375 71.578125 
L 37.546875 71.578125 
L 66.84375 0 
L 56.0625 0 
L 47.703125 21.6875 
L 17.78125 21.6875 
L 9.90625 0 
z
M 20.515625 29.390625 
L 44.78125 29.390625 
L 37.3125 49.21875 
Q 33.890625 58.25 32.234375 64.0625 
Q 30.859375 57.171875 28.375 50.390625 
z
" id="ArialMT-65"/>
     <path d="M 7.421875 0 
L 7.421875 71.578125 
L 21.6875 71.578125 
L 38.625 20.90625 
Q 40.96875 13.8125 42.046875 10.296875 
Q 43.265625 14.203125 45.84375 21.78125 
L 62.984375 71.578125 
L 75.734375 71.578125 
L 75.734375 0 
L 66.609375 0 
L 66.609375 59.90625 
L 45.796875 0 
L 37.25 0 
L 16.546875 60.9375 
L 16.546875 0 
z
" id="ArialMT-77"/>
     <path d="M 40.578125 0 
L 40.578125 7.625 
Q 34.515625 -1.171875 24.125 -1.171875 
Q 19.53125 -1.171875 15.546875 0.578125 
Q 11.578125 2.34375 9.640625 5 
Q 7.71875 7.671875 6.9375 11.53125 
Q 6.390625 14.109375 6.390625 19.734375 
L 6.390625 51.859375 
L 15.1875 51.859375 
L 15.1875 23.09375 
Q 15.1875 16.21875 15.71875 13.8125 
Q 16.546875 10.359375 19.234375 8.375 
Q 21.921875 6.390625 25.875 6.390625 
Q 29.828125 6.390625 33.296875 8.421875 
Q 36.765625 10.453125 38.203125 13.9375 
Q 39.65625 17.4375 39.65625 24.078125 
L 39.65625 51.859375 
L 48.4375 51.859375 
L 48.4375 0 
z
" id="ArialMT-117"/>
     <path d="M 21 0 
L 1.265625 51.859375 
L 10.546875 51.859375 
L 21.6875 20.796875 
Q 23.484375 15.765625 25 10.359375 
Q 26.171875 14.453125 28.265625 20.21875 
L 39.796875 51.859375 
L 48.828125 51.859375 
L 29.203125 0 
z
" id="ArialMT-118"/>
    </defs>
    <g style="fill:#262626;" transform="translate(288.429375 45.84)scale(0.12 -0.12)">
     <use xlink:href="#ArialMT-67"/>
     <use x="72.216797" xlink:href="#ArialMT-86"/>
     <use x="138.916016" xlink:href="#ArialMT-32"/>
     <use x="166.621094" xlink:href="#ArialMT-65"/>
     <use x="233.320312" xlink:href="#ArialMT-77"/>
     <use x="316.621094" xlink:href="#ArialMT-83"/>
     <use x="383.320312" xlink:href="#ArialMT-32"/>
     <use x="411.103516" xlink:href="#ArialMT-67"/>
     <use x="483.320312" xlink:href="#ArialMT-117"/>
     <use x="538.935547" xlink:href="#ArialMT-114"/>
     <use x="572.236328" xlink:href="#ArialMT-118"/>
     <use x="622.236328" xlink:href="#ArialMT-101"/>
     <use x="677.851562" xlink:href="#ArialMT-115"/>
    </g>
   </g>
   <g id="legend_1">
    <g id="patch_7">
     <path d="M 88.7 138.439219 
L 147.751094 138.439219 
Q 149.951094 138.439219 149.951094 136.239219 
L 149.951094 59.54 
Q 149.951094 57.34 147.751094 57.34 
L 88.7 57.34 
Q 86.5 57.34 86.5 59.54 
L 86.5 136.239219 
Q 86.5 138.439219 88.7 138.439219 
z
" style="fill:#eaeaf2;opacity:0.8;stroke:#cccccc;stroke-linejoin:miter;"/>
    </g>
    <g id="line2d_20">
     <path d="M 90.9 65.763594 
L 112.9 65.763594 
" style="fill:none;stroke:#4c72b0;stroke-linecap:round;stroke-width:1.5;"/>
    </g>
    <g id="line2d_21"/>
    <g id="text_18">
     <!-- fold1 -->
     <defs>
      <path d="M 8.6875 0 
L 8.6875 45.015625 
L 0.921875 45.015625 
L 0.921875 51.859375 
L 8.6875 51.859375 
L 8.6875 57.375 
Q 8.6875 62.59375 9.625 65.140625 
Q 10.890625 68.5625 14.078125 70.671875 
Q 17.28125 72.796875 23.046875 72.796875 
Q 26.765625 72.796875 31.25 71.921875 
L 29.9375 64.265625 
Q 27.203125 64.75 24.75 64.75 
Q 20.75 64.75 19.09375 63.03125 
Q 17.4375 61.328125 17.4375 56.640625 
L 17.4375 51.859375 
L 27.546875 51.859375 
L 27.546875 45.015625 
L 17.4375 45.015625 
L 17.4375 0 
z
" id="ArialMT-102"/>
     </defs>
     <g style="fill:#262626;" transform="translate(121.7 69.613594)scale(0.11 -0.11)">
      <use xlink:href="#ArialMT-102"/>
      <use x="27.783203" xlink:href="#ArialMT-111"/>
      <use x="83.398438" xlink:href="#ArialMT-108"/>
      <use x="105.615234" xlink:href="#ArialMT-100"/>
      <use x="161.230469" xlink:href="#ArialMT-49"/>
     </g>
    </g>
    <g id="line2d_22">
     <path d="M 90.9 81.323437 
L 112.9 81.323437 
" style="fill:none;stroke:#dd8452;stroke-linecap:round;stroke-width:1.5;"/>
    </g>
    <g id="line2d_23"/>
    <g id="text_19">
     <!-- fold2 -->
     <g style="fill:#262626;" transform="translate(121.7 85.173437)scale(0.11 -0.11)">
      <use xlink:href="#ArialMT-102"/>
      <use x="27.783203" xlink:href="#ArialMT-111"/>
      <use x="83.398438" xlink:href="#ArialMT-108"/>
      <use x="105.615234" xlink:href="#ArialMT-100"/>
      <use x="161.230469" xlink:href="#ArialMT-50"/>
     </g>
    </g>
    <g id="line2d_24">
     <path d="M 90.9 96.883281 
L 112.9 96.883281 
" style="fill:none;stroke:#55a868;stroke-linecap:round;stroke-width:1.5;"/>
    </g>
    <g id="line2d_25"/>
    <g id="text_20">
     <!-- fold3 -->
     <g style="fill:#262626;" transform="translate(121.7 100.733281)scale(0.11 -0.11)">
      <use xlink:href="#ArialMT-102"/>
      <use x="27.783203" xlink:href="#ArialMT-111"/>
      <use x="83.398438" xlink:href="#ArialMT-108"/>
      <use x="105.615234" xlink:href="#ArialMT-100"/>
      <use x="161.230469" xlink:href="#ArialMT-51"/>
     </g>
    </g>
    <g id="line2d_26">
     <path d="M 90.9 112.443125 
L 112.9 112.443125 
" style="fill:none;stroke:#c44e52;stroke-linecap:round;stroke-width:1.5;"/>
    </g>
    <g id="line2d_27"/>
    <g id="text_21">
     <!-- fold4 -->
     <g style="fill:#262626;" transform="translate(121.7 116.293125)scale(0.11 -0.11)">
      <use xlink:href="#ArialMT-102"/>
      <use x="27.783203" xlink:href="#ArialMT-111"/>
      <use x="83.398438" xlink:href="#ArialMT-108"/>
      <use x="105.615234" xlink:href="#ArialMT-100"/>
      <use x="161.230469" xlink:href="#ArialMT-52"/>
     </g>
    </g>
    <g id="line2d_28">
     <path d="M 90.9 128.002969 
L 112.9 128.002969 
" style="fill:none;stroke:#8172b3;stroke-linecap:round;stroke-width:1.5;"/>
    </g>
    <g id="line2d_29"/>
    <g id="text_22">
     <!-- fold5 -->
     <g style="fill:#262626;" transform="translate(121.7 131.852969)scale(0.11 -0.11)">
      <use xlink:href="#ArialMT-102"/>
      <use x="27.783203" xlink:href="#ArialMT-111"/>
      <use x="83.398438" xlink:href="#ArialMT-108"/>
      <use x="105.615234" xlink:href="#ArialMT-100"/>
      <use x="161.230469" xlink:href="#ArialMT-53"/>
     </g>
    </g>
   </g>
  </g>
 </g>
 <defs>
  <clipPath id="p81fd67cc58">
   <rect height="332.64" width="502.2" x="81" y="51.84"/>
  </clipPath>
 </defs>
</svg>
