<?xml version="1.0" encoding="utf-8" standalone="no"?>
<!DOCTYPE svg PUBLIC "-//W3C//DTD SVG 1.1//EN"
  "http://www.w3.org/Graphics/SVG/1.1/DTD/svg11.dtd">
<!-- Created with matplotlib (https://matplotlib.org/) -->
<svg height="525.315938pt" version="1.1" viewBox="0 0 547.507031 525.315938" width="547.507031pt" xmlns="http://www.w3.org/2000/svg" xmlns:xlink="http://www.w3.org/1999/xlink">
 <defs>
  <style type="text/css">
*{stroke-linecap:butt;stroke-linejoin:round;}
  </style>
 </defs>
 <g id="figure_1">
  <g id="patch_1">
   <path d="M 0 525.315938 
L 547.507031 525.315938 
L 547.507031 0 
L 0 0 
z
" style="fill:#ffffff;"/>
  </g>
  <g id="axes_1">
   <g id="patch_2">
    <path d="M 38.107031 350.279531 
L 540.307031 350.279531 
L 540.307031 24.119531 
L 38.107031 24.119531 
z
" style="fill:#eaeaf2;"/>
   </g>
   <g id="matplotlib.axis_1">
    <g id="xtick_1">
     <g id="line2d_1">
      <path clip-path="url(#pc1053d56a3)" d="M 46.477031 350.279531 
L 46.477031 24.119531 
" style="fill:none;stroke:#ffffff;stroke-linecap:round;"/>
     </g>
     <g id="text_1">
      <!-- DER_mass_MMC -->
      <defs>
       <path d="M 7.71875 0 
L 7.71875 71.578125 
L 32.375 71.578125 
Q 40.71875 71.578125 45.125 70.5625 
Q 51.265625 69.140625 55.609375 65.4375 
Q 61.28125 60.640625 64.078125 53.1875 
Q 66.890625 45.75 66.890625 36.1875 
Q 66.890625 28.03125 64.984375 21.734375 
Q 63.09375 15.4375 60.109375 11.296875 
Q 57.125 7.171875 53.578125 4.796875 
Q 50.046875 2.4375 45.046875 1.21875 
Q 40.046875 0 33.546875 0 
z
M 17.1875 8.453125 
L 32.46875 8.453125 
Q 39.546875 8.453125 43.578125 9.765625 
Q 47.609375 11.078125 50 13.484375 
Q 53.375 16.84375 55.25 22.53125 
Q 57.125 28.21875 57.125 36.328125 
Q 57.125 47.5625 53.4375 53.59375 
Q 49.75 59.625 44.484375 61.671875 
Q 40.671875 63.140625 32.234375 63.140625 
L 17.1875 63.140625 
z
" id="ArialMT-68"/>
       <path d="M 7.90625 0 
L 7.90625 71.578125 
L 59.671875 71.578125 
L 59.671875 63.140625 
L 17.390625 63.140625 
L 17.390625 41.21875 
L 56.984375 41.21875 
L 56.984375 32.8125 
L 17.390625 32.8125 
L 17.390625 8.453125 
L 61.328125 8.453125 
L 61.328125 0 
z
" id="ArialMT-69"/>
       <path d="M 7.859375 0 
L 7.859375 71.578125 
L 39.59375 71.578125 
Q 49.171875 71.578125 54.140625 69.640625 
Q 59.125 67.71875 62.109375 62.828125 
Q 65.09375 57.953125 65.09375 52.046875 
Q 65.09375 44.4375 60.15625 39.203125 
Q 55.21875 33.984375 44.921875 32.5625 
Q 48.6875 30.765625 50.640625 29 
Q 54.78125 25.203125 58.5 19.484375 
L 70.953125 0 
L 59.03125 0 
L 49.5625 14.890625 
Q 45.40625 21.34375 42.71875 24.75 
Q 40.046875 28.171875 37.921875 29.53125 
Q 35.796875 30.90625 33.59375 31.453125 
Q 31.984375 31.78125 28.328125 31.78125 
L 17.328125 31.78125 
L 17.328125 0 
z
M 17.328125 39.984375 
L 37.703125 39.984375 
Q 44.1875 39.984375 47.84375 41.328125 
Q 51.515625 42.671875 53.421875 45.625 
Q 55.328125 48.578125 55.328125 52.046875 
Q 55.328125 57.125 51.640625 60.390625 
Q 47.953125 63.671875 39.984375 63.671875 
L 17.328125 63.671875 
z
" id="ArialMT-82"/>
       <path d="M -1.515625 -19.875 
L -1.515625 -13.53125 
L 56.734375 -13.53125 
L 56.734375 -19.875 
z
" id="ArialMT-95"/>
       <path d="M 6.59375 0 
L 6.59375 51.859375 
L 14.453125 51.859375 
L 14.453125 44.578125 
Q 16.890625 48.390625 20.9375 50.703125 
Q 25 53.03125 30.171875 53.03125 
Q 35.9375 53.03125 39.625 50.640625 
Q 43.3125 48.25 44.828125 43.953125 
Q 50.984375 53.03125 60.84375 53.03125 
Q 68.5625 53.03125 72.703125 48.75 
Q 76.859375 44.484375 76.859375 35.59375 
L 76.859375 0 
L 68.109375 0 
L 68.109375 32.671875 
Q 68.109375 37.9375 67.25 40.25 
Q 66.40625 42.578125 64.15625 43.984375 
Q 61.921875 45.40625 58.890625 45.40625 
Q 53.421875 45.40625 49.796875 41.765625 
Q 46.1875 38.140625 46.1875 30.125 
L 46.1875 0 
L 37.40625 0 
L 37.40625 33.6875 
Q 37.40625 39.546875 35.25 42.46875 
Q 33.109375 45.40625 28.21875 45.40625 
Q 24.515625 45.40625 21.359375 43.453125 
Q 18.21875 41.5 16.796875 37.734375 
Q 15.375 33.984375 15.375 26.90625 
L 15.375 0 
z
" id="ArialMT-109"/>
       <path d="M 40.4375 6.390625 
Q 35.546875 2.25 31.03125 0.53125 
Q 26.515625 -1.171875 21.34375 -1.171875 
Q 12.796875 -1.171875 8.203125 3 
Q 3.609375 7.171875 3.609375 13.671875 
Q 3.609375 17.484375 5.34375 20.625 
Q 7.078125 23.78125 9.890625 25.6875 
Q 12.703125 27.59375 16.21875 28.5625 
Q 18.796875 29.25 24.03125 29.890625 
Q 34.671875 31.15625 39.703125 32.90625 
Q 39.75 34.71875 39.75 35.203125 
Q 39.75 40.578125 37.25 42.78125 
Q 33.890625 45.75 27.25 45.75 
Q 21.046875 45.75 18.09375 43.578125 
Q 15.140625 41.40625 13.71875 35.890625 
L 5.125 37.0625 
Q 6.296875 42.578125 8.984375 45.96875 
Q 11.671875 49.359375 16.75 51.1875 
Q 21.828125 53.03125 28.515625 53.03125 
Q 35.15625 53.03125 39.296875 51.46875 
Q 43.453125 49.90625 45.40625 47.53125 
Q 47.359375 45.171875 48.140625 41.546875 
Q 48.578125 39.3125 48.578125 33.453125 
L 48.578125 21.734375 
Q 48.578125 9.46875 49.140625 6.21875 
Q 49.703125 2.984375 51.375 0 
L 42.1875 0 
Q 40.828125 2.734375 40.4375 6.390625 
z
M 39.703125 26.03125 
Q 34.90625 24.078125 25.34375 22.703125 
Q 19.921875 21.921875 17.671875 20.9375 
Q 15.4375 19.96875 14.203125 18.09375 
Q 12.984375 16.21875 12.984375 13.921875 
Q 12.984375 10.40625 15.640625 8.0625 
Q 18.3125 5.71875 23.4375 5.71875 
Q 28.515625 5.71875 32.46875 7.9375 
Q 36.421875 10.15625 38.28125 14.015625 
Q 39.703125 17 39.703125 22.796875 
z
" id="ArialMT-97"/>
       <path d="M 3.078125 15.484375 
L 11.765625 16.84375 
Q 12.5 11.625 15.84375 8.84375 
Q 19.1875 6.0625 25.203125 6.0625 
Q 31.25 6.0625 34.171875 8.515625 
Q 37.109375 10.984375 37.109375 14.3125 
Q 37.109375 17.28125 34.515625 19 
Q 32.71875 20.171875 25.53125 21.96875 
Q 15.875 24.421875 12.140625 26.203125 
Q 8.40625 27.984375 6.46875 31.125 
Q 4.546875 34.28125 4.546875 38.09375 
Q 4.546875 41.546875 6.125 44.5 
Q 7.71875 47.46875 10.453125 49.421875 
Q 12.5 50.921875 16.03125 51.96875 
Q 19.578125 53.03125 23.640625 53.03125 
Q 29.734375 53.03125 34.34375 51.265625 
Q 38.96875 49.515625 41.15625 46.5 
Q 43.359375 43.5 44.1875 38.484375 
L 35.59375 37.3125 
Q 35.015625 41.3125 32.203125 43.546875 
Q 29.390625 45.796875 24.265625 45.796875 
Q 18.21875 45.796875 15.625 43.796875 
Q 13.03125 41.796875 13.03125 39.109375 
Q 13.03125 37.40625 14.109375 36.03125 
Q 15.1875 34.625 17.484375 33.6875 
Q 18.796875 33.203125 25.25 31.453125 
Q 34.578125 28.953125 38.25 27.359375 
Q 41.9375 25.78125 44.03125 22.75 
Q 46.140625 19.734375 46.140625 15.234375 
Q 46.140625 10.84375 43.578125 6.953125 
Q 41.015625 3.078125 36.171875 0.953125 
Q 31.34375 -1.171875 25.25 -1.171875 
Q 15.140625 -1.171875 9.84375 3.03125 
Q 4.546875 7.234375 3.078125 15.484375 
z
" id="ArialMT-115"/>
       <path d="M 7.421875 0 
L 7.421875 71.578125 
L 21.6875 71.578125 
L 38.625 20.90625 
Q 40.96875 13.8125 42.046875 10.296875 
Q 43.265625 14.203125 45.84375 21.78125 
L 62.984375 71.578125 
L 75.734375 71.578125 
L 75.734375 0 
L 66.609375 0 
L 66.609375 59.90625 
L 45.796875 0 
L 37.25 0 
L 16.546875 60.9375 
L 16.546875 0 
z
" id="ArialMT-77"/>
       <path d="M 58.796875 25.09375 
L 68.265625 22.703125 
Q 65.28125 11.03125 57.546875 4.90625 
Q 49.8125 -1.21875 38.625 -1.21875 
Q 27.046875 -1.21875 19.796875 3.484375 
Q 12.546875 8.203125 8.765625 17.140625 
Q 4.984375 26.078125 4.984375 36.328125 
Q 4.984375 47.515625 9.25 55.828125 
Q 13.53125 64.15625 21.40625 68.46875 
Q 29.296875 72.796875 38.765625 72.796875 
Q 49.515625 72.796875 56.828125 67.328125 
Q 64.15625 61.859375 67.046875 51.953125 
L 57.71875 49.75 
Q 55.21875 57.5625 50.484375 61.125 
Q 45.75 64.703125 38.578125 64.703125 
Q 30.328125 64.703125 24.78125 60.734375 
Q 19.234375 56.78125 16.984375 50.109375 
Q 14.75 43.453125 14.75 36.375 
Q 14.75 27.25 17.40625 20.4375 
Q 20.0625 13.625 25.671875 10.25 
Q 31.296875 6.890625 37.84375 6.890625 
Q 45.796875 6.890625 51.3125 11.46875 
Q 56.84375 16.0625 58.796875 25.09375 
z
" id="ArialMT-67"/>
      </defs>
      <g style="fill:#262626;" transform="translate(49.387734 447.788125)rotate(-90)scale(0.11 -0.11)">
       <use xlink:href="#ArialMT-68"/>
       <use x="72.216797" xlink:href="#ArialMT-69"/>
       <use x="138.916016" xlink:href="#ArialMT-82"/>
       <use x="211.132812" xlink:href="#ArialMT-95"/>
       <use x="266.748047" xlink:href="#ArialMT-109"/>
       <use x="350.048828" xlink:href="#ArialMT-97"/>
       <use x="405.664062" xlink:href="#ArialMT-115"/>
       <use x="455.664062" xlink:href="#ArialMT-115"/>
       <use x="505.664062" xlink:href="#ArialMT-95"/>
       <use x="561.279297" xlink:href="#ArialMT-77"/>
       <use x="644.580078" xlink:href="#ArialMT-77"/>
       <use x="727.880859" xlink:href="#ArialMT-67"/>
      </g>
     </g>
    </g>
    <g id="xtick_2">
     <g id="line2d_2">
      <path clip-path="url(#pc1053d56a3)" d="M 63.217031 350.279531 
L 63.217031 24.119531 
" style="fill:none;stroke:#ffffff;stroke-linecap:round;"/>
     </g>
     <g id="text_2">
      <!-- DER_mass_transverse_met_lep -->
      <defs>
       <path d="M 25.78125 7.859375 
L 27.046875 0.09375 
Q 23.34375 -0.6875 20.40625 -0.6875 
Q 15.625 -0.6875 12.984375 0.828125 
Q 10.359375 2.34375 9.28125 4.8125 
Q 8.203125 7.28125 8.203125 15.1875 
L 8.203125 45.015625 
L 1.765625 45.015625 
L 1.765625 51.859375 
L 8.203125 51.859375 
L 8.203125 64.703125 
L 16.9375 69.96875 
L 16.9375 51.859375 
L 25.78125 51.859375 
L 25.78125 45.015625 
L 16.9375 45.015625 
L 16.9375 14.703125 
Q 16.9375 10.9375 17.40625 9.859375 
Q 17.875 8.796875 18.921875 8.15625 
Q 19.96875 7.515625 21.921875 7.515625 
Q 23.390625 7.515625 25.78125 7.859375 
z
" id="ArialMT-116"/>
       <path d="M 6.5 0 
L 6.5 51.859375 
L 14.40625 51.859375 
L 14.40625 44 
Q 17.4375 49.515625 20 51.265625 
Q 22.5625 53.03125 25.640625 53.03125 
Q 30.078125 53.03125 34.671875 50.203125 
L 31.640625 42.046875 
Q 28.421875 43.953125 25.203125 43.953125 
Q 22.3125 43.953125 20.015625 42.21875 
Q 17.71875 40.484375 16.75 37.40625 
Q 15.28125 32.71875 15.28125 27.15625 
L 15.28125 0 
z
" id="ArialMT-114"/>
       <path d="M 6.59375 0 
L 6.59375 51.859375 
L 14.5 51.859375 
L 14.5 44.484375 
Q 20.21875 53.03125 31 53.03125 
Q 35.6875 53.03125 39.625 51.34375 
Q 43.5625 49.65625 45.515625 46.921875 
Q 47.46875 44.1875 48.25 40.4375 
Q 48.734375 37.984375 48.734375 31.890625 
L 48.734375 0 
L 39.9375 0 
L 39.9375 31.546875 
Q 39.9375 36.921875 38.90625 39.578125 
Q 37.890625 42.234375 35.28125 43.8125 
Q 32.671875 45.40625 29.15625 45.40625 
Q 23.53125 45.40625 19.453125 41.84375 
Q 15.375 38.28125 15.375 28.328125 
L 15.375 0 
z
" id="ArialMT-110"/>
       <path d="M 21 0 
L 1.265625 51.859375 
L 10.546875 51.859375 
L 21.6875 20.796875 
Q 23.484375 15.765625 25 10.359375 
Q 26.171875 14.453125 28.265625 20.21875 
L 39.796875 51.859375 
L 48.828125 51.859375 
L 29.203125 0 
z
" id="ArialMT-118"/>
       <path d="M 42.09375 16.703125 
L 51.171875 15.578125 
Q 49.03125 7.625 43.21875 3.21875 
Q 37.40625 -1.171875 28.375 -1.171875 
Q 17 -1.171875 10.328125 5.828125 
Q 3.65625 12.84375 3.65625 25.484375 
Q 3.65625 38.578125 10.390625 45.796875 
Q 17.140625 53.03125 27.875 53.03125 
Q 38.28125 53.03125 44.875 45.953125 
Q 51.46875 38.875 51.46875 26.03125 
Q 51.46875 25.25 51.421875 23.6875 
L 12.75 23.6875 
Q 13.234375 15.140625 17.578125 10.59375 
Q 21.921875 6.0625 28.421875 6.0625 
Q 33.25 6.0625 36.671875 8.59375 
Q 40.09375 11.140625 42.09375 16.703125 
z
M 13.234375 30.90625 
L 42.1875 30.90625 
Q 41.609375 37.453125 38.875 40.71875 
Q 34.671875 45.796875 27.984375 45.796875 
Q 21.921875 45.796875 17.796875 41.75 
Q 13.671875 37.703125 13.234375 30.90625 
z
" id="ArialMT-101"/>
       <path d="M 6.390625 0 
L 6.390625 71.578125 
L 15.1875 71.578125 
L 15.1875 0 
z
" id="ArialMT-108"/>
       <path d="M 6.59375 -19.875 
L 6.59375 51.859375 
L 14.59375 51.859375 
L 14.59375 45.125 
Q 17.4375 49.078125 21 51.046875 
Q 24.5625 53.03125 29.640625 53.03125 
Q 36.28125 53.03125 41.359375 49.609375 
Q 46.4375 46.1875 49.015625 39.953125 
Q 51.609375 33.734375 51.609375 26.3125 
Q 51.609375 18.359375 48.75 11.984375 
Q 45.90625 5.609375 40.453125 2.21875 
Q 35.015625 -1.171875 29 -1.171875 
Q 24.609375 -1.171875 21.109375 0.6875 
Q 17.625 2.546875 15.375 5.375 
L 15.375 -19.875 
z
M 14.546875 25.640625 
Q 14.546875 15.625 18.59375 10.84375 
Q 22.65625 6.0625 28.421875 6.0625 
Q 34.28125 6.0625 38.453125 11.015625 
Q 42.625 15.96875 42.625 26.375 
Q 42.625 36.28125 38.546875 41.203125 
Q 34.46875 46.140625 28.8125 46.140625 
Q 23.1875 46.140625 18.859375 40.890625 
Q 14.546875 35.640625 14.546875 25.640625 
z
" id="ArialMT-112"/>
      </defs>
      <g style="fill:#262626;" transform="translate(66.060703 518.115937)rotate(-90)scale(0.11 -0.11)">
       <use xlink:href="#ArialMT-68"/>
       <use x="72.216797" xlink:href="#ArialMT-69"/>
       <use x="138.916016" xlink:href="#ArialMT-82"/>
       <use x="211.132812" xlink:href="#ArialMT-95"/>
       <use x="266.748047" xlink:href="#ArialMT-109"/>
       <use x="350.048828" xlink:href="#ArialMT-97"/>
       <use x="405.664062" xlink:href="#ArialMT-115"/>
       <use x="455.664062" xlink:href="#ArialMT-115"/>
       <use x="505.664062" xlink:href="#ArialMT-95"/>
       <use x="561.279297" xlink:href="#ArialMT-116"/>
       <use x="589.0625" xlink:href="#ArialMT-114"/>
       <use x="622.363281" xlink:href="#ArialMT-97"/>
       <use x="677.978516" xlink:href="#ArialMT-110"/>
       <use x="733.59375" xlink:href="#ArialMT-115"/>
       <use x="783.59375" xlink:href="#ArialMT-118"/>
       <use x="833.59375" xlink:href="#ArialMT-101"/>
       <use x="889.208984" xlink:href="#ArialMT-114"/>
       <use x="922.509766" xlink:href="#ArialMT-115"/>
       <use x="972.509766" xlink:href="#ArialMT-101"/>
       <use x="1028.125" xlink:href="#ArialMT-95"/>
       <use x="1083.740234" xlink:href="#ArialMT-109"/>
       <use x="1167.041016" xlink:href="#ArialMT-101"/>
       <use x="1222.65625" xlink:href="#ArialMT-116"/>
       <use x="1250.439453" xlink:href="#ArialMT-95"/>
       <use x="1306.054688" xlink:href="#ArialMT-108"/>
       <use x="1328.271484" xlink:href="#ArialMT-101"/>
       <use x="1383.886719" xlink:href="#ArialMT-112"/>
      </g>
     </g>
    </g>
    <g id="xtick_3">
     <g id="line2d_3">
      <path clip-path="url(#pc1053d56a3)" d="M 79.957031 350.279531 
L 79.957031 24.119531 
" style="fill:none;stroke:#ffffff;stroke-linecap:round;"/>
     </g>
     <g id="text_3">
      <!-- DER_mass_vis -->
      <defs>
       <path d="M 6.640625 61.46875 
L 6.640625 71.578125 
L 15.4375 71.578125 
L 15.4375 61.46875 
z
M 6.640625 0 
L 6.640625 51.859375 
L 15.4375 51.859375 
L 15.4375 0 
z
" id="ArialMT-105"/>
      </defs>
      <g style="fill:#262626;" transform="translate(82.800703 434.962813)rotate(-90)scale(0.11 -0.11)">
       <use xlink:href="#ArialMT-68"/>
       <use x="72.216797" xlink:href="#ArialMT-69"/>
       <use x="138.916016" xlink:href="#ArialMT-82"/>
       <use x="211.132812" xlink:href="#ArialMT-95"/>
       <use x="266.748047" xlink:href="#ArialMT-109"/>
       <use x="350.048828" xlink:href="#ArialMT-97"/>
       <use x="405.664062" xlink:href="#ArialMT-115"/>
       <use x="455.664062" xlink:href="#ArialMT-115"/>
       <use x="505.664062" xlink:href="#ArialMT-95"/>
       <use x="561.279297" xlink:href="#ArialMT-118"/>
       <use x="611.279297" xlink:href="#ArialMT-105"/>
       <use x="633.496094" xlink:href="#ArialMT-115"/>
      </g>
     </g>
    </g>
    <g id="xtick_4">
     <g id="line2d_4">
      <path clip-path="url(#pc1053d56a3)" d="M 96.697031 350.279531 
L 96.697031 24.119531 
" style="fill:none;stroke:#ffffff;stroke-linecap:round;"/>
     </g>
     <g id="text_4">
      <!-- PRI_tau_pt -->
      <defs>
       <path d="M 7.71875 0 
L 7.71875 71.578125 
L 34.71875 71.578125 
Q 41.84375 71.578125 45.609375 70.90625 
Q 50.875 70.015625 54.4375 67.546875 
Q 58.015625 65.09375 60.1875 60.640625 
Q 62.359375 56.203125 62.359375 50.875 
Q 62.359375 41.75 56.546875 35.421875 
Q 50.734375 29.109375 35.546875 29.109375 
L 17.1875 29.109375 
L 17.1875 0 
z
M 17.1875 37.546875 
L 35.6875 37.546875 
Q 44.875 37.546875 48.734375 40.96875 
Q 52.59375 44.390625 52.59375 50.59375 
Q 52.59375 55.078125 50.3125 58.265625 
Q 48.046875 61.46875 44.34375 62.5 
Q 41.9375 63.140625 35.5 63.140625 
L 17.1875 63.140625 
z
" id="ArialMT-80"/>
       <path d="M 9.328125 0 
L 9.328125 71.578125 
L 18.796875 71.578125 
L 18.796875 0 
z
" id="ArialMT-73"/>
       <path d="M 40.578125 0 
L 40.578125 7.625 
Q 34.515625 -1.171875 24.125 -1.171875 
Q 19.53125 -1.171875 15.546875 0.578125 
Q 11.578125 2.34375 9.640625 5 
Q 7.71875 7.671875 6.9375 11.53125 
Q 6.390625 14.109375 6.390625 19.734375 
L 6.390625 51.859375 
L 15.1875 51.859375 
L 15.1875 23.09375 
Q 15.1875 16.21875 15.71875 13.8125 
Q 16.546875 10.359375 19.234375 8.375 
Q 21.921875 6.390625 25.875 6.390625 
Q 29.828125 6.390625 33.296875 8.421875 
Q 36.765625 10.453125 38.203125 13.9375 
Q 39.65625 17.4375 39.65625 24.078125 
L 39.65625 51.859375 
L 48.4375 51.859375 
L 48.4375 0 
z
" id="ArialMT-117"/>
      </defs>
      <g style="fill:#262626;" transform="translate(99.540703 414.813906)rotate(-90)scale(0.11 -0.11)">
       <use xlink:href="#ArialMT-80"/>
       <use x="66.699219" xlink:href="#ArialMT-82"/>
       <use x="138.916016" xlink:href="#ArialMT-73"/>
       <use x="166.699219" xlink:href="#ArialMT-95"/>
       <use x="222.314453" xlink:href="#ArialMT-116"/>
       <use x="250.097656" xlink:href="#ArialMT-97"/>
       <use x="305.712891" xlink:href="#ArialMT-117"/>
       <use x="361.328125" xlink:href="#ArialMT-95"/>
       <use x="416.943359" xlink:href="#ArialMT-112"/>
       <use x="472.558594" xlink:href="#ArialMT-116"/>
      </g>
     </g>
    </g>
    <g id="xtick_5">
     <g id="line2d_5">
      <path clip-path="url(#pc1053d56a3)" d="M 113.437031 350.279531 
L 113.437031 24.119531 
" style="fill:none;stroke:#ffffff;stroke-linecap:round;"/>
     </g>
     <g id="text_5">
      <!-- DER_met_phi_centrality -->
      <defs>
       <path d="M 6.59375 0 
L 6.59375 71.578125 
L 15.375 71.578125 
L 15.375 45.90625 
Q 21.53125 53.03125 30.90625 53.03125 
Q 36.671875 53.03125 40.921875 50.75 
Q 45.171875 48.484375 47 44.484375 
Q 48.828125 40.484375 48.828125 32.859375 
L 48.828125 0 
L 40.046875 0 
L 40.046875 32.859375 
Q 40.046875 39.453125 37.1875 42.453125 
Q 34.328125 45.453125 29.109375 45.453125 
Q 25.203125 45.453125 21.75 43.421875 
Q 18.3125 41.40625 16.84375 37.9375 
Q 15.375 34.46875 15.375 28.375 
L 15.375 0 
z
" id="ArialMT-104"/>
       <path d="M 40.4375 19 
L 49.078125 17.875 
Q 47.65625 8.9375 41.8125 3.875 
Q 35.984375 -1.171875 27.484375 -1.171875 
Q 16.84375 -1.171875 10.375 5.78125 
Q 3.90625 12.75 3.90625 25.734375 
Q 3.90625 34.125 6.6875 40.421875 
Q 9.46875 46.734375 15.15625 49.875 
Q 20.84375 53.03125 27.546875 53.03125 
Q 35.984375 53.03125 41.359375 48.75 
Q 46.734375 44.484375 48.25 36.625 
L 39.703125 35.296875 
Q 38.484375 40.53125 35.375 43.15625 
Q 32.28125 45.796875 27.875 45.796875 
Q 21.234375 45.796875 17.078125 41.03125 
Q 12.9375 36.28125 12.9375 25.984375 
Q 12.9375 15.53125 16.9375 10.796875 
Q 20.953125 6.0625 27.390625 6.0625 
Q 32.5625 6.0625 36.03125 9.234375 
Q 39.5 12.40625 40.4375 19 
z
" id="ArialMT-99"/>
       <path d="M 6.203125 -19.96875 
L 5.21875 -11.71875 
Q 8.109375 -12.5 10.25 -12.5 
Q 13.1875 -12.5 14.9375 -11.515625 
Q 16.703125 -10.546875 17.828125 -8.796875 
Q 18.65625 -7.46875 20.515625 -2.25 
Q 20.75 -1.515625 21.296875 -0.09375 
L 1.609375 51.859375 
L 11.078125 51.859375 
L 21.875 21.828125 
Q 23.96875 16.109375 25.640625 9.8125 
Q 27.15625 15.875 29.25 21.625 
L 40.328125 51.859375 
L 49.125 51.859375 
L 29.390625 -0.875 
Q 26.21875 -9.421875 24.46875 -12.640625 
Q 22.125 -17 19.09375 -19.015625 
Q 16.0625 -21.046875 11.859375 -21.046875 
Q 9.328125 -21.046875 6.203125 -19.96875 
z
" id="ArialMT-121"/>
      </defs>
      <g style="fill:#262626;" transform="translate(116.21625 478.383594)rotate(-90)scale(0.11 -0.11)">
       <use xlink:href="#ArialMT-68"/>
       <use x="72.216797" xlink:href="#ArialMT-69"/>
       <use x="138.916016" xlink:href="#ArialMT-82"/>
       <use x="211.132812" xlink:href="#ArialMT-95"/>
       <use x="266.748047" xlink:href="#ArialMT-109"/>
       <use x="350.048828" xlink:href="#ArialMT-101"/>
       <use x="405.664062" xlink:href="#ArialMT-116"/>
       <use x="433.447266" xlink:href="#ArialMT-95"/>
       <use x="489.0625" xlink:href="#ArialMT-112"/>
       <use x="544.677734" xlink:href="#ArialMT-104"/>
       <use x="600.292969" xlink:href="#ArialMT-105"/>
       <use x="622.509766" xlink:href="#ArialMT-95"/>
       <use x="678.125" xlink:href="#ArialMT-99"/>
       <use x="728.125" xlink:href="#ArialMT-101"/>
       <use x="783.740234" xlink:href="#ArialMT-110"/>
       <use x="839.355469" xlink:href="#ArialMT-116"/>
       <use x="867.138672" xlink:href="#ArialMT-114"/>
       <use x="900.439453" xlink:href="#ArialMT-97"/>
       <use x="956.054688" xlink:href="#ArialMT-108"/>
       <use x="978.271484" xlink:href="#ArialMT-105"/>
       <use x="1000.488281" xlink:href="#ArialMT-116"/>
       <use x="1028.271484" xlink:href="#ArialMT-121"/>
      </g>
     </g>
    </g>
    <g id="xtick_6">
     <g id="line2d_6">
      <path clip-path="url(#pc1053d56a3)" d="M 130.177031 350.279531 
L 130.177031 24.119531 
" style="fill:none;stroke:#ffffff;stroke-linecap:round;"/>
     </g>
     <g id="text_6">
      <!-- DER_deltar_tau_lep -->
      <defs>
       <path d="M 40.234375 0 
L 40.234375 6.546875 
Q 35.296875 -1.171875 25.734375 -1.171875 
Q 19.53125 -1.171875 14.328125 2.25 
Q 9.125 5.671875 6.265625 11.796875 
Q 3.421875 17.921875 3.421875 25.875 
Q 3.421875 33.640625 6 39.96875 
Q 8.59375 46.296875 13.765625 49.65625 
Q 18.953125 53.03125 25.34375 53.03125 
Q 30.03125 53.03125 33.6875 51.046875 
Q 37.359375 49.078125 39.65625 45.90625 
L 39.65625 71.578125 
L 48.390625 71.578125 
L 48.390625 0 
z
M 12.453125 25.875 
Q 12.453125 15.921875 16.640625 10.984375 
Q 20.84375 6.0625 26.5625 6.0625 
Q 32.328125 6.0625 36.34375 10.765625 
Q 40.375 15.484375 40.375 25.140625 
Q 40.375 35.796875 36.265625 40.765625 
Q 32.171875 45.75 26.171875 45.75 
Q 20.3125 45.75 16.375 40.96875 
Q 12.453125 36.1875 12.453125 25.875 
z
" id="ArialMT-100"/>
      </defs>
      <g style="fill:#262626;" transform="translate(133.020703 458.837969)rotate(-90)scale(0.11 -0.11)">
       <use xlink:href="#ArialMT-68"/>
       <use x="72.216797" xlink:href="#ArialMT-69"/>
       <use x="138.916016" xlink:href="#ArialMT-82"/>
       <use x="211.132812" xlink:href="#ArialMT-95"/>
       <use x="266.748047" xlink:href="#ArialMT-100"/>
       <use x="322.363281" xlink:href="#ArialMT-101"/>
       <use x="377.978516" xlink:href="#ArialMT-108"/>
       <use x="400.195312" xlink:href="#ArialMT-116"/>
       <use x="427.978516" xlink:href="#ArialMT-97"/>
       <use x="483.59375" xlink:href="#ArialMT-114"/>
       <use x="516.894531" xlink:href="#ArialMT-95"/>
       <use x="572.509766" xlink:href="#ArialMT-116"/>
       <use x="600.292969" xlink:href="#ArialMT-97"/>
       <use x="655.908203" xlink:href="#ArialMT-117"/>
       <use x="711.523438" xlink:href="#ArialMT-95"/>
       <use x="767.138672" xlink:href="#ArialMT-108"/>
       <use x="789.355469" xlink:href="#ArialMT-101"/>
       <use x="844.970703" xlink:href="#ArialMT-112"/>
      </g>
     </g>
    </g>
    <g id="xtick_7">
     <g id="line2d_7">
      <path clip-path="url(#pc1053d56a3)" d="M 146.917031 350.279531 
L 146.917031 24.119531 
" style="fill:none;stroke:#ffffff;stroke-linecap:round;"/>
     </g>
     <g id="text_7">
      <!-- DER_pt_ratio_lep_tau -->
      <defs>
       <path d="M 3.328125 25.921875 
Q 3.328125 40.328125 11.328125 47.265625 
Q 18.015625 53.03125 27.640625 53.03125 
Q 38.328125 53.03125 45.109375 46.015625 
Q 51.90625 39.015625 51.90625 26.65625 
Q 51.90625 16.65625 48.90625 10.90625 
Q 45.90625 5.171875 40.15625 2 
Q 34.421875 -1.171875 27.640625 -1.171875 
Q 16.75 -1.171875 10.03125 5.8125 
Q 3.328125 12.796875 3.328125 25.921875 
z
M 12.359375 25.921875 
Q 12.359375 15.96875 16.703125 11.015625 
Q 21.046875 6.0625 27.640625 6.0625 
Q 34.1875 6.0625 38.53125 11.03125 
Q 42.875 16.015625 42.875 26.21875 
Q 42.875 35.84375 38.5 40.796875 
Q 34.125 45.75 27.640625 45.75 
Q 21.046875 45.75 16.703125 40.8125 
Q 12.359375 35.890625 12.359375 25.921875 
z
" id="ArialMT-111"/>
      </defs>
      <g style="fill:#262626;" transform="translate(149.760703 468.010938)rotate(-90)scale(0.11 -0.11)">
       <use xlink:href="#ArialMT-68"/>
       <use x="72.216797" xlink:href="#ArialMT-69"/>
       <use x="138.916016" xlink:href="#ArialMT-82"/>
       <use x="211.132812" xlink:href="#ArialMT-95"/>
       <use x="266.748047" xlink:href="#ArialMT-112"/>
       <use x="322.363281" xlink:href="#ArialMT-116"/>
       <use x="350.146484" xlink:href="#ArialMT-95"/>
       <use x="405.761719" xlink:href="#ArialMT-114"/>
       <use x="439.0625" xlink:href="#ArialMT-97"/>
       <use x="494.677734" xlink:href="#ArialMT-116"/>
       <use x="522.460938" xlink:href="#ArialMT-105"/>
       <use x="544.677734" xlink:href="#ArialMT-111"/>
       <use x="600.292969" xlink:href="#ArialMT-95"/>
       <use x="655.908203" xlink:href="#ArialMT-108"/>
       <use x="678.125" xlink:href="#ArialMT-101"/>
       <use x="733.740234" xlink:href="#ArialMT-112"/>
       <use x="789.355469" xlink:href="#ArialMT-95"/>
       <use x="844.970703" xlink:href="#ArialMT-116"/>
       <use x="872.753906" xlink:href="#ArialMT-97"/>
       <use x="928.369141" xlink:href="#ArialMT-117"/>
      </g>
     </g>
    </g>
    <g id="xtick_8">
     <g id="line2d_8">
      <path clip-path="url(#pc1053d56a3)" d="M 163.657031 350.279531 
L 163.657031 24.119531 
" style="fill:none;stroke:#ffffff;stroke-linecap:round;"/>
     </g>
     <g id="text_8">
      <!-- PRI_met -->
      <g style="fill:#262626;" transform="translate(166.500703 402.569531)rotate(-90)scale(0.11 -0.11)">
       <use xlink:href="#ArialMT-80"/>
       <use x="66.699219" xlink:href="#ArialMT-82"/>
       <use x="138.916016" xlink:href="#ArialMT-73"/>
       <use x="166.699219" xlink:href="#ArialMT-95"/>
       <use x="222.314453" xlink:href="#ArialMT-109"/>
       <use x="305.615234" xlink:href="#ArialMT-101"/>
       <use x="361.230469" xlink:href="#ArialMT-116"/>
      </g>
     </g>
    </g>
    <g id="xtick_9">
     <g id="line2d_9">
      <path clip-path="url(#pc1053d56a3)" d="M 180.397031 350.279531 
L 180.397031 24.119531 
" style="fill:none;stroke:#ffffff;stroke-linecap:round;"/>
     </g>
     <g id="text_9">
      <!-- DER_deltaeta_jet_jet -->
      <defs>
       <path d="M 6.546875 61.375 
L 6.546875 71.578125 
L 15.328125 71.578125 
L 15.328125 61.375 
z
M -4.59375 -20.125 
L -2.9375 -12.640625 
Q -0.296875 -13.328125 1.21875 -13.328125 
Q 3.90625 -13.328125 5.21875 -11.546875 
Q 6.546875 -9.765625 6.546875 -2.640625 
L 6.546875 51.859375 
L 15.328125 51.859375 
L 15.328125 -2.828125 
Q 15.328125 -12.40625 12.84375 -16.15625 
Q 9.671875 -21.046875 2.296875 -21.046875 
Q -1.265625 -21.046875 -4.59375 -20.125 
z
" id="ArialMT-106"/>
      </defs>
      <g style="fill:#262626;" transform="translate(183.17625 463.73125)rotate(-90)scale(0.11 -0.11)">
       <use xlink:href="#ArialMT-68"/>
       <use x="72.216797" xlink:href="#ArialMT-69"/>
       <use x="138.916016" xlink:href="#ArialMT-82"/>
       <use x="211.132812" xlink:href="#ArialMT-95"/>
       <use x="266.748047" xlink:href="#ArialMT-100"/>
       <use x="322.363281" xlink:href="#ArialMT-101"/>
       <use x="377.978516" xlink:href="#ArialMT-108"/>
       <use x="400.195312" xlink:href="#ArialMT-116"/>
       <use x="427.978516" xlink:href="#ArialMT-97"/>
       <use x="483.59375" xlink:href="#ArialMT-101"/>
       <use x="539.208984" xlink:href="#ArialMT-116"/>
       <use x="566.992188" xlink:href="#ArialMT-97"/>
       <use x="622.607422" xlink:href="#ArialMT-95"/>
       <use x="678.222656" xlink:href="#ArialMT-106"/>
       <use x="700.439453" xlink:href="#ArialMT-101"/>
       <use x="756.054688" xlink:href="#ArialMT-116"/>
       <use x="783.837891" xlink:href="#ArialMT-95"/>
       <use x="839.453125" xlink:href="#ArialMT-106"/>
       <use x="861.669922" xlink:href="#ArialMT-101"/>
       <use x="917.285156" xlink:href="#ArialMT-116"/>
      </g>
     </g>
    </g>
    <g id="xtick_10">
     <g id="line2d_10">
      <path clip-path="url(#pc1053d56a3)" d="M 197.137031 350.279531 
L 197.137031 24.119531 
" style="fill:none;stroke:#ffffff;stroke-linecap:round;"/>
     </g>
     <g id="text_10">
      <!-- DER_lep_eta_centrality -->
      <g style="fill:#262626;" transform="translate(199.91625 475.337969)rotate(-90)scale(0.11 -0.11)">
       <use xlink:href="#ArialMT-68"/>
       <use x="72.216797" xlink:href="#ArialMT-69"/>
       <use x="138.916016" xlink:href="#ArialMT-82"/>
       <use x="211.132812" xlink:href="#ArialMT-95"/>
       <use x="266.748047" xlink:href="#ArialMT-108"/>
       <use x="288.964844" xlink:href="#ArialMT-101"/>
       <use x="344.580078" xlink:href="#ArialMT-112"/>
       <use x="400.195312" xlink:href="#ArialMT-95"/>
       <use x="455.810547" xlink:href="#ArialMT-101"/>
       <use x="511.425781" xlink:href="#ArialMT-116"/>
       <use x="539.208984" xlink:href="#ArialMT-97"/>
       <use x="594.824219" xlink:href="#ArialMT-95"/>
       <use x="650.439453" xlink:href="#ArialMT-99"/>
       <use x="700.439453" xlink:href="#ArialMT-101"/>
       <use x="756.054688" xlink:href="#ArialMT-110"/>
       <use x="811.669922" xlink:href="#ArialMT-116"/>
       <use x="839.453125" xlink:href="#ArialMT-114"/>
       <use x="872.753906" xlink:href="#ArialMT-97"/>
       <use x="928.369141" xlink:href="#ArialMT-108"/>
       <use x="950.585938" xlink:href="#ArialMT-105"/>
       <use x="972.802734" xlink:href="#ArialMT-116"/>
       <use x="1000.585938" xlink:href="#ArialMT-121"/>
      </g>
     </g>
    </g>
    <g id="xtick_11">
     <g id="line2d_11">
      <path clip-path="url(#pc1053d56a3)" d="M 213.877031 350.279531 
L 213.877031 24.119531 
" style="fill:none;stroke:#ffffff;stroke-linecap:round;"/>
     </g>
     <g id="text_11">
      <!-- DER_sum_pt -->
      <g style="fill:#262626;" transform="translate(216.720703 425.191719)rotate(-90)scale(0.11 -0.11)">
       <use xlink:href="#ArialMT-68"/>
       <use x="72.216797" xlink:href="#ArialMT-69"/>
       <use x="138.916016" xlink:href="#ArialMT-82"/>
       <use x="211.132812" xlink:href="#ArialMT-95"/>
       <use x="266.748047" xlink:href="#ArialMT-115"/>
       <use x="316.748047" xlink:href="#ArialMT-117"/>
       <use x="372.363281" xlink:href="#ArialMT-109"/>
       <use x="455.664062" xlink:href="#ArialMT-95"/>
       <use x="511.279297" xlink:href="#ArialMT-112"/>
       <use x="566.894531" xlink:href="#ArialMT-116"/>
      </g>
     </g>
    </g>
    <g id="xtick_12">
     <g id="line2d_12">
      <path clip-path="url(#pc1053d56a3)" d="M 230.617031 350.279531 
L 230.617031 24.119531 
" style="fill:none;stroke:#ffffff;stroke-linecap:round;"/>
     </g>
     <g id="text_12">
      <!-- DER_pt_h -->
      <g style="fill:#262626;" transform="translate(233.460703 410.529063)rotate(-90)scale(0.11 -0.11)">
       <use xlink:href="#ArialMT-68"/>
       <use x="72.216797" xlink:href="#ArialMT-69"/>
       <use x="138.916016" xlink:href="#ArialMT-82"/>
       <use x="211.132812" xlink:href="#ArialMT-95"/>
       <use x="266.748047" xlink:href="#ArialMT-112"/>
       <use x="322.363281" xlink:href="#ArialMT-116"/>
       <use x="350.146484" xlink:href="#ArialMT-95"/>
       <use x="405.761719" xlink:href="#ArialMT-104"/>
      </g>
     </g>
    </g>
    <g id="xtick_13">
     <g id="line2d_13">
      <path clip-path="url(#pc1053d56a3)" d="M 247.357031 350.279531 
L 247.357031 24.119531 
" style="fill:none;stroke:#ffffff;stroke-linecap:round;"/>
     </g>
     <g id="text_13">
      <!-- DER_prodeta_jet_jet -->
      <g style="fill:#262626;" transform="translate(250.13625 461.893906)rotate(-90)scale(0.11 -0.11)">
       <use xlink:href="#ArialMT-68"/>
       <use x="72.216797" xlink:href="#ArialMT-69"/>
       <use x="138.916016" xlink:href="#ArialMT-82"/>
       <use x="211.132812" xlink:href="#ArialMT-95"/>
       <use x="266.748047" xlink:href="#ArialMT-112"/>
       <use x="322.363281" xlink:href="#ArialMT-114"/>
       <use x="355.664062" xlink:href="#ArialMT-111"/>
       <use x="411.279297" xlink:href="#ArialMT-100"/>
       <use x="466.894531" xlink:href="#ArialMT-101"/>
       <use x="522.509766" xlink:href="#ArialMT-116"/>
       <use x="550.292969" xlink:href="#ArialMT-97"/>
       <use x="605.908203" xlink:href="#ArialMT-95"/>
       <use x="661.523438" xlink:href="#ArialMT-106"/>
       <use x="683.740234" xlink:href="#ArialMT-101"/>
       <use x="739.355469" xlink:href="#ArialMT-116"/>
       <use x="767.138672" xlink:href="#ArialMT-95"/>
       <use x="822.753906" xlink:href="#ArialMT-106"/>
       <use x="844.970703" xlink:href="#ArialMT-101"/>
       <use x="900.585938" xlink:href="#ArialMT-116"/>
      </g>
     </g>
    </g>
    <g id="xtick_14">
     <g id="line2d_14">
      <path clip-path="url(#pc1053d56a3)" d="M 264.097031 350.279531 
L 264.097031 24.119531 
" style="fill:none;stroke:#ffffff;stroke-linecap:round;"/>
     </g>
     <g id="text_14">
      <!-- DER_mass_jet_jet -->
      <g style="fill:#262626;" transform="translate(266.87625 450.869844)rotate(-90)scale(0.11 -0.11)">
       <use xlink:href="#ArialMT-68"/>
       <use x="72.216797" xlink:href="#ArialMT-69"/>
       <use x="138.916016" xlink:href="#ArialMT-82"/>
       <use x="211.132812" xlink:href="#ArialMT-95"/>
       <use x="266.748047" xlink:href="#ArialMT-109"/>
       <use x="350.048828" xlink:href="#ArialMT-97"/>
       <use x="405.664062" xlink:href="#ArialMT-115"/>
       <use x="455.664062" xlink:href="#ArialMT-115"/>
       <use x="505.664062" xlink:href="#ArialMT-95"/>
       <use x="561.279297" xlink:href="#ArialMT-106"/>
       <use x="583.496094" xlink:href="#ArialMT-101"/>
       <use x="639.111328" xlink:href="#ArialMT-116"/>
       <use x="666.894531" xlink:href="#ArialMT-95"/>
       <use x="722.509766" xlink:href="#ArialMT-106"/>
       <use x="744.726562" xlink:href="#ArialMT-101"/>
       <use x="800.341797" xlink:href="#ArialMT-116"/>
      </g>
     </g>
    </g>
    <g id="xtick_15">
     <g id="line2d_15">
      <path clip-path="url(#pc1053d56a3)" d="M 280.837031 350.279531 
L 280.837031 24.119531 
" style="fill:none;stroke:#ffffff;stroke-linecap:round;"/>
     </g>
     <g id="text_15">
      <!-- PRI_lep_pt -->
      <g style="fill:#262626;" transform="translate(283.680703 414.202031)rotate(-90)scale(0.11 -0.11)">
       <use xlink:href="#ArialMT-80"/>
       <use x="66.699219" xlink:href="#ArialMT-82"/>
       <use x="138.916016" xlink:href="#ArialMT-73"/>
       <use x="166.699219" xlink:href="#ArialMT-95"/>
       <use x="222.314453" xlink:href="#ArialMT-108"/>
       <use x="244.53125" xlink:href="#ArialMT-101"/>
       <use x="300.146484" xlink:href="#ArialMT-112"/>
       <use x="355.761719" xlink:href="#ArialMT-95"/>
       <use x="411.376953" xlink:href="#ArialMT-112"/>
       <use x="466.992188" xlink:href="#ArialMT-116"/>
      </g>
     </g>
    </g>
    <g id="xtick_16">
     <g id="line2d_16">
      <path clip-path="url(#pc1053d56a3)" d="M 297.577031 350.279531 
L 297.577031 24.119531 
" style="fill:none;stroke:#ffffff;stroke-linecap:round;"/>
     </g>
     <g id="text_16">
      <!-- PRI_jet_all_pt -->
      <g style="fill:#262626;" transform="translate(300.35625 428.263125)rotate(-90)scale(0.11 -0.11)">
       <use xlink:href="#ArialMT-80"/>
       <use x="66.699219" xlink:href="#ArialMT-82"/>
       <use x="138.916016" xlink:href="#ArialMT-73"/>
       <use x="166.699219" xlink:href="#ArialMT-95"/>
       <use x="222.314453" xlink:href="#ArialMT-106"/>
       <use x="244.53125" xlink:href="#ArialMT-101"/>
       <use x="300.146484" xlink:href="#ArialMT-116"/>
       <use x="327.929688" xlink:href="#ArialMT-95"/>
       <use x="383.544922" xlink:href="#ArialMT-97"/>
       <use x="439.160156" xlink:href="#ArialMT-108"/>
       <use x="461.376953" xlink:href="#ArialMT-108"/>
       <use x="483.59375" xlink:href="#ArialMT-95"/>
       <use x="539.208984" xlink:href="#ArialMT-112"/>
       <use x="594.824219" xlink:href="#ArialMT-116"/>
      </g>
     </g>
    </g>
    <g id="xtick_17">
     <g id="line2d_17">
      <path clip-path="url(#pc1053d56a3)" d="M 314.317031 350.279531 
L 314.317031 24.119531 
" style="fill:none;stroke:#ffffff;stroke-linecap:round;"/>
     </g>
     <g id="text_17">
      <!-- PRI_jet_num -->
      <g style="fill:#262626;" transform="translate(317.09625 423.364688)rotate(-90)scale(0.11 -0.11)">
       <use xlink:href="#ArialMT-80"/>
       <use x="66.699219" xlink:href="#ArialMT-82"/>
       <use x="138.916016" xlink:href="#ArialMT-73"/>
       <use x="166.699219" xlink:href="#ArialMT-95"/>
       <use x="222.314453" xlink:href="#ArialMT-106"/>
       <use x="244.53125" xlink:href="#ArialMT-101"/>
       <use x="300.146484" xlink:href="#ArialMT-116"/>
       <use x="327.929688" xlink:href="#ArialMT-95"/>
       <use x="383.544922" xlink:href="#ArialMT-110"/>
       <use x="439.160156" xlink:href="#ArialMT-117"/>
       <use x="494.775391" xlink:href="#ArialMT-109"/>
      </g>
     </g>
    </g>
    <g id="xtick_18">
     <g id="line2d_18">
      <path clip-path="url(#pc1053d56a3)" d="M 331.057031 350.279531 
L 331.057031 24.119531 
" style="fill:none;stroke:#ffffff;stroke-linecap:round;"/>
     </g>
     <g id="text_18">
      <!-- DER_pt_tot -->
      <g style="fill:#262626;" transform="translate(333.900703 416.640938)rotate(-90)scale(0.11 -0.11)">
       <use xlink:href="#ArialMT-68"/>
       <use x="72.216797" xlink:href="#ArialMT-69"/>
       <use x="138.916016" xlink:href="#ArialMT-82"/>
       <use x="211.132812" xlink:href="#ArialMT-95"/>
       <use x="266.748047" xlink:href="#ArialMT-112"/>
       <use x="322.363281" xlink:href="#ArialMT-116"/>
       <use x="350.146484" xlink:href="#ArialMT-95"/>
       <use x="405.761719" xlink:href="#ArialMT-116"/>
       <use x="433.544922" xlink:href="#ArialMT-111"/>
       <use x="489.160156" xlink:href="#ArialMT-116"/>
      </g>
     </g>
    </g>
    <g id="xtick_19">
     <g id="line2d_19">
      <path clip-path="url(#pc1053d56a3)" d="M 347.797031 350.279531 
L 347.797031 24.119531 
" style="fill:none;stroke:#ffffff;stroke-linecap:round;"/>
     </g>
     <g id="text_19">
      <!-- PRI_jet_leading_pt -->
      <defs>
       <path d="M 4.984375 -4.296875 
L 13.53125 -5.5625 
Q 14.0625 -9.515625 16.5 -11.328125 
Q 19.78125 -13.765625 25.4375 -13.765625 
Q 31.546875 -13.765625 34.859375 -11.328125 
Q 38.1875 -8.890625 39.359375 -4.5 
Q 40.046875 -1.8125 39.984375 6.78125 
Q 34.234375 0 25.640625 0 
Q 14.9375 0 9.078125 7.71875 
Q 3.21875 15.4375 3.21875 26.21875 
Q 3.21875 33.640625 5.90625 39.90625 
Q 8.59375 46.1875 13.6875 49.609375 
Q 18.796875 53.03125 25.6875 53.03125 
Q 34.859375 53.03125 40.828125 45.609375 
L 40.828125 51.859375 
L 48.921875 51.859375 
L 48.921875 7.03125 
Q 48.921875 -5.078125 46.453125 -10.125 
Q 44 -15.1875 38.640625 -18.109375 
Q 33.296875 -21.046875 25.484375 -21.046875 
Q 16.21875 -21.046875 10.5 -16.875 
Q 4.78125 -12.703125 4.984375 -4.296875 
z
M 12.25 26.859375 
Q 12.25 16.65625 16.296875 11.96875 
Q 20.359375 7.28125 26.46875 7.28125 
Q 32.515625 7.28125 36.609375 11.9375 
Q 40.71875 16.609375 40.71875 26.5625 
Q 40.71875 36.078125 36.5 40.90625 
Q 32.28125 45.75 26.3125 45.75 
Q 20.453125 45.75 16.34375 40.984375 
Q 12.25 36.234375 12.25 26.859375 
z
" id="ArialMT-103"/>
      </defs>
      <g style="fill:#262626;" transform="translate(350.57625 452.73125)rotate(-90)scale(0.11 -0.11)">
       <use xlink:href="#ArialMT-80"/>
       <use x="66.699219" xlink:href="#ArialMT-82"/>
       <use x="138.916016" xlink:href="#ArialMT-73"/>
       <use x="166.699219" xlink:href="#ArialMT-95"/>
       <use x="222.314453" xlink:href="#ArialMT-106"/>
       <use x="244.53125" xlink:href="#ArialMT-101"/>
       <use x="300.146484" xlink:href="#ArialMT-116"/>
       <use x="327.929688" xlink:href="#ArialMT-95"/>
       <use x="383.544922" xlink:href="#ArialMT-108"/>
       <use x="405.761719" xlink:href="#ArialMT-101"/>
       <use x="461.376953" xlink:href="#ArialMT-97"/>
       <use x="516.992188" xlink:href="#ArialMT-100"/>
       <use x="572.607422" xlink:href="#ArialMT-105"/>
       <use x="594.824219" xlink:href="#ArialMT-110"/>
       <use x="650.439453" xlink:href="#ArialMT-103"/>
       <use x="706.054688" xlink:href="#ArialMT-95"/>
       <use x="761.669922" xlink:href="#ArialMT-112"/>
       <use x="817.285156" xlink:href="#ArialMT-116"/>
      </g>
     </g>
    </g>
    <g id="xtick_20">
     <g id="line2d_20">
      <path clip-path="url(#pc1053d56a3)" d="M 364.537031 350.279531 
L 364.537031 24.119531 
" style="fill:none;stroke:#ffffff;stroke-linecap:round;"/>
     </g>
     <g id="text_20">
      <!-- PRI_met_sumet -->
      <g style="fill:#262626;" transform="translate(367.380703 438.639219)rotate(-90)scale(0.11 -0.11)">
       <use xlink:href="#ArialMT-80"/>
       <use x="66.699219" xlink:href="#ArialMT-82"/>
       <use x="138.916016" xlink:href="#ArialMT-73"/>
       <use x="166.699219" xlink:href="#ArialMT-95"/>
       <use x="222.314453" xlink:href="#ArialMT-109"/>
       <use x="305.615234" xlink:href="#ArialMT-101"/>
       <use x="361.230469" xlink:href="#ArialMT-116"/>
       <use x="389.013672" xlink:href="#ArialMT-95"/>
       <use x="444.628906" xlink:href="#ArialMT-115"/>
       <use x="494.628906" xlink:href="#ArialMT-117"/>
       <use x="550.244141" xlink:href="#ArialMT-109"/>
       <use x="633.544922" xlink:href="#ArialMT-101"/>
       <use x="689.160156" xlink:href="#ArialMT-116"/>
      </g>
     </g>
    </g>
    <g id="xtick_21">
     <g id="line2d_21">
      <path clip-path="url(#pc1053d56a3)" d="M 381.277031 350.279531 
L 381.277031 24.119531 
" style="fill:none;stroke:#ffffff;stroke-linecap:round;"/>
     </g>
     <g id="text_21">
      <!-- PRI_jet_leading_eta -->
      <g style="fill:#262626;" transform="translate(384.05625 458.848281)rotate(-90)scale(0.11 -0.11)">
       <use xlink:href="#ArialMT-80"/>
       <use x="66.699219" xlink:href="#ArialMT-82"/>
       <use x="138.916016" xlink:href="#ArialMT-73"/>
       <use x="166.699219" xlink:href="#ArialMT-95"/>
       <use x="222.314453" xlink:href="#ArialMT-106"/>
       <use x="244.53125" xlink:href="#ArialMT-101"/>
       <use x="300.146484" xlink:href="#ArialMT-116"/>
       <use x="327.929688" xlink:href="#ArialMT-95"/>
       <use x="383.544922" xlink:href="#ArialMT-108"/>
       <use x="405.761719" xlink:href="#ArialMT-101"/>
       <use x="461.376953" xlink:href="#ArialMT-97"/>
       <use x="516.992188" xlink:href="#ArialMT-100"/>
       <use x="572.607422" xlink:href="#ArialMT-105"/>
       <use x="594.824219" xlink:href="#ArialMT-110"/>
       <use x="650.439453" xlink:href="#ArialMT-103"/>
       <use x="706.054688" xlink:href="#ArialMT-95"/>
       <use x="761.669922" xlink:href="#ArialMT-101"/>
       <use x="817.285156" xlink:href="#ArialMT-116"/>
       <use x="845.068359" xlink:href="#ArialMT-97"/>
      </g>
     </g>
    </g>
    <g id="xtick_22">
     <g id="line2d_22">
      <path clip-path="url(#pc1053d56a3)" d="M 398.017031 350.279531 
L 398.017031 24.119531 
" style="fill:none;stroke:#ffffff;stroke-linecap:round;"/>
     </g>
     <g id="text_22">
      <!-- PRI_lep_eta -->
      <g style="fill:#262626;" transform="translate(400.860703 420.319063)rotate(-90)scale(0.11 -0.11)">
       <use xlink:href="#ArialMT-80"/>
       <use x="66.699219" xlink:href="#ArialMT-82"/>
       <use x="138.916016" xlink:href="#ArialMT-73"/>
       <use x="166.699219" xlink:href="#ArialMT-95"/>
       <use x="222.314453" xlink:href="#ArialMT-108"/>
       <use x="244.53125" xlink:href="#ArialMT-101"/>
       <use x="300.146484" xlink:href="#ArialMT-112"/>
       <use x="355.761719" xlink:href="#ArialMT-95"/>
       <use x="411.376953" xlink:href="#ArialMT-101"/>
       <use x="466.992188" xlink:href="#ArialMT-116"/>
       <use x="494.775391" xlink:href="#ArialMT-97"/>
      </g>
     </g>
    </g>
    <g id="xtick_23">
     <g id="line2d_23">
      <path clip-path="url(#pc1053d56a3)" d="M 414.757031 350.279531 
L 414.757031 24.119531 
" style="fill:none;stroke:#ffffff;stroke-linecap:round;"/>
     </g>
     <g id="text_23">
      <!-- PRI_tau_eta -->
      <g style="fill:#262626;" transform="translate(417.600703 420.930938)rotate(-90)scale(0.11 -0.11)">
       <use xlink:href="#ArialMT-80"/>
       <use x="66.699219" xlink:href="#ArialMT-82"/>
       <use x="138.916016" xlink:href="#ArialMT-73"/>
       <use x="166.699219" xlink:href="#ArialMT-95"/>
       <use x="222.314453" xlink:href="#ArialMT-116"/>
       <use x="250.097656" xlink:href="#ArialMT-97"/>
       <use x="305.712891" xlink:href="#ArialMT-117"/>
       <use x="361.328125" xlink:href="#ArialMT-95"/>
       <use x="416.943359" xlink:href="#ArialMT-101"/>
       <use x="472.558594" xlink:href="#ArialMT-116"/>
       <use x="500.341797" xlink:href="#ArialMT-97"/>
      </g>
     </g>
    </g>
    <g id="xtick_24">
     <g id="line2d_24">
      <path clip-path="url(#pc1053d56a3)" d="M 431.497031 350.279531 
L 431.497031 24.119531 
" style="fill:none;stroke:#ffffff;stroke-linecap:round;"/>
     </g>
     <g id="text_24">
      <!-- PRI_jet_subleading_eta -->
      <defs>
       <path d="M 14.703125 0 
L 6.546875 0 
L 6.546875 71.578125 
L 15.328125 71.578125 
L 15.328125 46.046875 
Q 20.90625 53.03125 29.546875 53.03125 
Q 34.328125 53.03125 38.59375 51.09375 
Q 42.875 49.171875 45.625 45.671875 
Q 48.390625 42.1875 49.953125 37.25 
Q 51.515625 32.328125 51.515625 26.703125 
Q 51.515625 13.375 44.921875 6.09375 
Q 38.328125 -1.171875 29.109375 -1.171875 
Q 19.921875 -1.171875 14.703125 6.5 
z
M 14.59375 26.3125 
Q 14.59375 17 17.140625 12.84375 
Q 21.296875 6.0625 28.375 6.0625 
Q 34.125 6.0625 38.328125 11.0625 
Q 42.53125 16.0625 42.53125 25.984375 
Q 42.53125 36.140625 38.5 40.96875 
Q 34.46875 45.796875 28.765625 45.796875 
Q 23 45.796875 18.796875 40.796875 
Q 14.59375 35.796875 14.59375 26.3125 
z
" id="ArialMT-98"/>
      </defs>
      <g style="fill:#262626;" transform="translate(434.27625 476.582344)rotate(-90)scale(0.11 -0.11)">
       <use xlink:href="#ArialMT-80"/>
       <use x="66.699219" xlink:href="#ArialMT-82"/>
       <use x="138.916016" xlink:href="#ArialMT-73"/>
       <use x="166.699219" xlink:href="#ArialMT-95"/>
       <use x="222.314453" xlink:href="#ArialMT-106"/>
       <use x="244.53125" xlink:href="#ArialMT-101"/>
       <use x="300.146484" xlink:href="#ArialMT-116"/>
       <use x="327.929688" xlink:href="#ArialMT-95"/>
       <use x="383.544922" xlink:href="#ArialMT-115"/>
       <use x="433.544922" xlink:href="#ArialMT-117"/>
       <use x="489.160156" xlink:href="#ArialMT-98"/>
       <use x="544.775391" xlink:href="#ArialMT-108"/>
       <use x="566.992188" xlink:href="#ArialMT-101"/>
       <use x="622.607422" xlink:href="#ArialMT-97"/>
       <use x="678.222656" xlink:href="#ArialMT-100"/>
       <use x="733.837891" xlink:href="#ArialMT-105"/>
       <use x="756.054688" xlink:href="#ArialMT-110"/>
       <use x="811.669922" xlink:href="#ArialMT-103"/>
       <use x="867.285156" xlink:href="#ArialMT-95"/>
       <use x="922.900391" xlink:href="#ArialMT-101"/>
       <use x="978.515625" xlink:href="#ArialMT-116"/>
       <use x="1006.298828" xlink:href="#ArialMT-97"/>
      </g>
     </g>
    </g>
    <g id="xtick_25">
     <g id="line2d_25">
      <path clip-path="url(#pc1053d56a3)" d="M 448.237031 350.279531 
L 448.237031 24.119531 
" style="fill:none;stroke:#ffffff;stroke-linecap:round;"/>
     </g>
     <g id="text_25">
      <!-- PRI_met_phi -->
      <g style="fill:#262626;" transform="translate(451.080703 423.364688)rotate(-90)scale(0.11 -0.11)">
       <use xlink:href="#ArialMT-80"/>
       <use x="66.699219" xlink:href="#ArialMT-82"/>
       <use x="138.916016" xlink:href="#ArialMT-73"/>
       <use x="166.699219" xlink:href="#ArialMT-95"/>
       <use x="222.314453" xlink:href="#ArialMT-109"/>
       <use x="305.615234" xlink:href="#ArialMT-101"/>
       <use x="361.230469" xlink:href="#ArialMT-116"/>
       <use x="389.013672" xlink:href="#ArialMT-95"/>
       <use x="444.628906" xlink:href="#ArialMT-112"/>
       <use x="500.244141" xlink:href="#ArialMT-104"/>
       <use x="555.859375" xlink:href="#ArialMT-105"/>
      </g>
     </g>
    </g>
    <g id="xtick_26">
     <g id="line2d_26">
      <path clip-path="url(#pc1053d56a3)" d="M 464.977031 350.279531 
L 464.977031 24.119531 
" style="fill:none;stroke:#ffffff;stroke-linecap:round;"/>
     </g>
     <g id="text_26">
      <!-- PRI_jet_subleading_pt -->
      <g style="fill:#262626;" transform="translate(467.75625 470.465313)rotate(-90)scale(0.11 -0.11)">
       <use xlink:href="#ArialMT-80"/>
       <use x="66.699219" xlink:href="#ArialMT-82"/>
       <use x="138.916016" xlink:href="#ArialMT-73"/>
       <use x="166.699219" xlink:href="#ArialMT-95"/>
       <use x="222.314453" xlink:href="#ArialMT-106"/>
       <use x="244.53125" xlink:href="#ArialMT-101"/>
       <use x="300.146484" xlink:href="#ArialMT-116"/>
       <use x="327.929688" xlink:href="#ArialMT-95"/>
       <use x="383.544922" xlink:href="#ArialMT-115"/>
       <use x="433.544922" xlink:href="#ArialMT-117"/>
       <use x="489.160156" xlink:href="#ArialMT-98"/>
       <use x="544.775391" xlink:href="#ArialMT-108"/>
       <use x="566.992188" xlink:href="#ArialMT-101"/>
       <use x="622.607422" xlink:href="#ArialMT-97"/>
       <use x="678.222656" xlink:href="#ArialMT-100"/>
       <use x="733.837891" xlink:href="#ArialMT-105"/>
       <use x="756.054688" xlink:href="#ArialMT-110"/>
       <use x="811.669922" xlink:href="#ArialMT-103"/>
       <use x="867.285156" xlink:href="#ArialMT-95"/>
       <use x="922.900391" xlink:href="#ArialMT-112"/>
       <use x="978.515625" xlink:href="#ArialMT-116"/>
      </g>
     </g>
    </g>
    <g id="xtick_27">
     <g id="line2d_27">
      <path clip-path="url(#pc1053d56a3)" d="M 481.717031 350.279531 
L 481.717031 24.119531 
" style="fill:none;stroke:#ffffff;stroke-linecap:round;"/>
     </g>
     <g id="text_27">
      <!-- PRI_jet_leading_phi -->
      <g style="fill:#262626;" transform="translate(484.49625 458.236406)rotate(-90)scale(0.11 -0.11)">
       <use xlink:href="#ArialMT-80"/>
       <use x="66.699219" xlink:href="#ArialMT-82"/>
       <use x="138.916016" xlink:href="#ArialMT-73"/>
       <use x="166.699219" xlink:href="#ArialMT-95"/>
       <use x="222.314453" xlink:href="#ArialMT-106"/>
       <use x="244.53125" xlink:href="#ArialMT-101"/>
       <use x="300.146484" xlink:href="#ArialMT-116"/>
       <use x="327.929688" xlink:href="#ArialMT-95"/>
       <use x="383.544922" xlink:href="#ArialMT-108"/>
       <use x="405.761719" xlink:href="#ArialMT-101"/>
       <use x="461.376953" xlink:href="#ArialMT-97"/>
       <use x="516.992188" xlink:href="#ArialMT-100"/>
       <use x="572.607422" xlink:href="#ArialMT-105"/>
       <use x="594.824219" xlink:href="#ArialMT-110"/>
       <use x="650.439453" xlink:href="#ArialMT-103"/>
       <use x="706.054688" xlink:href="#ArialMT-95"/>
       <use x="761.669922" xlink:href="#ArialMT-112"/>
       <use x="817.285156" xlink:href="#ArialMT-104"/>
       <use x="872.900391" xlink:href="#ArialMT-105"/>
      </g>
     </g>
    </g>
    <g id="xtick_28">
     <g id="line2d_28">
      <path clip-path="url(#pc1053d56a3)" d="M 498.457031 350.279531 
L 498.457031 24.119531 
" style="fill:none;stroke:#ffffff;stroke-linecap:round;"/>
     </g>
     <g id="text_28">
      <!-- PRI_tau_phi -->
      <g style="fill:#262626;" transform="translate(501.300703 420.319063)rotate(-90)scale(0.11 -0.11)">
       <use xlink:href="#ArialMT-80"/>
       <use x="66.699219" xlink:href="#ArialMT-82"/>
       <use x="138.916016" xlink:href="#ArialMT-73"/>
       <use x="166.699219" xlink:href="#ArialMT-95"/>
       <use x="222.314453" xlink:href="#ArialMT-116"/>
       <use x="250.097656" xlink:href="#ArialMT-97"/>
       <use x="305.712891" xlink:href="#ArialMT-117"/>
       <use x="361.328125" xlink:href="#ArialMT-95"/>
       <use x="416.943359" xlink:href="#ArialMT-112"/>
       <use x="472.558594" xlink:href="#ArialMT-104"/>
       <use x="528.173828" xlink:href="#ArialMT-105"/>
      </g>
     </g>
    </g>
    <g id="xtick_29">
     <g id="line2d_29">
      <path clip-path="url(#pc1053d56a3)" d="M 515.197031 350.279531 
L 515.197031 24.119531 
" style="fill:none;stroke:#ffffff;stroke-linecap:round;"/>
     </g>
     <g id="text_29">
      <!-- PRI_lep_phi -->
      <g style="fill:#262626;" transform="translate(518.040703 419.707188)rotate(-90)scale(0.11 -0.11)">
       <use xlink:href="#ArialMT-80"/>
       <use x="66.699219" xlink:href="#ArialMT-82"/>
       <use x="138.916016" xlink:href="#ArialMT-73"/>
       <use x="166.699219" xlink:href="#ArialMT-95"/>
       <use x="222.314453" xlink:href="#ArialMT-108"/>
       <use x="244.53125" xlink:href="#ArialMT-101"/>
       <use x="300.146484" xlink:href="#ArialMT-112"/>
       <use x="355.761719" xlink:href="#ArialMT-95"/>
       <use x="411.376953" xlink:href="#ArialMT-112"/>
       <use x="466.992188" xlink:href="#ArialMT-104"/>
       <use x="522.607422" xlink:href="#ArialMT-105"/>
      </g>
     </g>
    </g>
    <g id="xtick_30">
     <g id="line2d_30">
      <path clip-path="url(#pc1053d56a3)" d="M 531.937031 350.279531 
L 531.937031 24.119531 
" style="fill:none;stroke:#ffffff;stroke-linecap:round;"/>
     </g>
     <g id="text_30">
      <!-- PRI_jet_subleading_phi -->
      <g style="fill:#262626;" transform="translate(534.71625 475.970469)rotate(-90)scale(0.11 -0.11)">
       <use xlink:href="#ArialMT-80"/>
       <use x="66.699219" xlink:href="#ArialMT-82"/>
       <use x="138.916016" xlink:href="#ArialMT-73"/>
       <use x="166.699219" xlink:href="#ArialMT-95"/>
       <use x="222.314453" xlink:href="#ArialMT-106"/>
       <use x="244.53125" xlink:href="#ArialMT-101"/>
       <use x="300.146484" xlink:href="#ArialMT-116"/>
       <use x="327.929688" xlink:href="#ArialMT-95"/>
       <use x="383.544922" xlink:href="#ArialMT-115"/>
       <use x="433.544922" xlink:href="#ArialMT-117"/>
       <use x="489.160156" xlink:href="#ArialMT-98"/>
       <use x="544.775391" xlink:href="#ArialMT-108"/>
       <use x="566.992188" xlink:href="#ArialMT-101"/>
       <use x="622.607422" xlink:href="#ArialMT-97"/>
       <use x="678.222656" xlink:href="#ArialMT-100"/>
       <use x="733.837891" xlink:href="#ArialMT-105"/>
       <use x="756.054688" xlink:href="#ArialMT-110"/>
       <use x="811.669922" xlink:href="#ArialMT-103"/>
       <use x="867.285156" xlink:href="#ArialMT-95"/>
       <use x="922.900391" xlink:href="#ArialMT-112"/>
       <use x="978.515625" xlink:href="#ArialMT-104"/>
       <use x="1034.130859" xlink:href="#ArialMT-105"/>
      </g>
     </g>
    </g>
   </g>
   <g id="matplotlib.axis_2">
    <g id="ytick_1">
     <g id="line2d_31">
      <path clip-path="url(#pc1053d56a3)" d="M 38.107031 329.421296 
L 540.307031 329.421296 
" style="fill:none;stroke:#ffffff;stroke-linecap:round;"/>
     </g>
     <g id="text_31">
      <!-- 0.00 -->
      <defs>
       <path d="M 4.15625 35.296875 
Q 4.15625 48 6.765625 55.734375 
Q 9.375 63.484375 14.515625 67.671875 
Q 19.671875 71.875 27.484375 71.875 
Q 33.25 71.875 37.59375 69.546875 
Q 41.9375 67.234375 44.765625 62.859375 
Q 47.609375 58.5 49.21875 52.21875 
Q 50.828125 45.953125 50.828125 35.296875 
Q 50.828125 22.703125 48.234375 14.96875 
Q 45.65625 7.234375 40.5 3 
Q 35.359375 -1.21875 27.484375 -1.21875 
Q 17.140625 -1.21875 11.234375 6.203125 
Q 4.15625 15.140625 4.15625 35.296875 
z
M 13.1875 35.296875 
Q 13.1875 17.671875 17.3125 11.828125 
Q 21.4375 6 27.484375 6 
Q 33.546875 6 37.671875 11.859375 
Q 41.796875 17.71875 41.796875 35.296875 
Q 41.796875 52.984375 37.671875 58.78125 
Q 33.546875 64.59375 27.390625 64.59375 
Q 21.34375 64.59375 17.71875 59.46875 
Q 13.1875 52.9375 13.1875 35.296875 
z
" id="ArialMT-48"/>
       <path d="M 9.078125 0 
L 9.078125 10.015625 
L 19.09375 10.015625 
L 19.09375 0 
z
" id="ArialMT-46"/>
      </defs>
      <g style="fill:#262626;" transform="translate(7.2 333.358093)scale(0.11 -0.11)">
       <use xlink:href="#ArialMT-48"/>
       <use x="55.615234" xlink:href="#ArialMT-46"/>
       <use x="83.398438" xlink:href="#ArialMT-48"/>
       <use x="139.013672" xlink:href="#ArialMT-48"/>
      </g>
     </g>
    </g>
    <g id="ytick_2">
     <g id="line2d_32">
      <path clip-path="url(#pc1053d56a3)" d="M 38.107031 285.458665 
L 540.307031 285.458665 
" style="fill:none;stroke:#ffffff;stroke-linecap:round;"/>
     </g>
     <g id="text_32">
      <!-- 0.05 -->
      <defs>
       <path d="M 4.15625 18.75 
L 13.375 19.53125 
Q 14.40625 12.796875 18.140625 9.390625 
Q 21.875 6 27.15625 6 
Q 33.5 6 37.890625 10.78125 
Q 42.28125 15.578125 42.28125 23.484375 
Q 42.28125 31 38.0625 35.34375 
Q 33.84375 39.703125 27 39.703125 
Q 22.75 39.703125 19.328125 37.765625 
Q 15.921875 35.84375 13.96875 32.765625 
L 5.71875 33.84375 
L 12.640625 70.609375 
L 48.25 70.609375 
L 48.25 62.203125 
L 19.671875 62.203125 
L 15.828125 42.96875 
Q 22.265625 47.46875 29.34375 47.46875 
Q 38.71875 47.46875 45.15625 40.96875 
Q 51.609375 34.46875 51.609375 24.265625 
Q 51.609375 14.546875 45.953125 7.46875 
Q 39.0625 -1.21875 27.15625 -1.21875 
Q 17.390625 -1.21875 11.203125 4.25 
Q 5.03125 9.71875 4.15625 18.75 
z
" id="ArialMT-53"/>
      </defs>
      <g style="fill:#262626;" transform="translate(7.2 289.395462)scale(0.11 -0.11)">
       <use xlink:href="#ArialMT-48"/>
       <use x="55.615234" xlink:href="#ArialMT-46"/>
       <use x="83.398438" xlink:href="#ArialMT-48"/>
       <use x="139.013672" xlink:href="#ArialMT-53"/>
      </g>
     </g>
    </g>
    <g id="ytick_3">
     <g id="line2d_33">
      <path clip-path="url(#pc1053d56a3)" d="M 38.107031 241.496034 
L 540.307031 241.496034 
" style="fill:none;stroke:#ffffff;stroke-linecap:round;"/>
     </g>
     <g id="text_33">
      <!-- 0.10 -->
      <defs>
       <path d="M 37.25 0 
L 28.46875 0 
L 28.46875 56 
Q 25.296875 52.984375 20.140625 49.953125 
Q 14.984375 46.921875 10.890625 45.40625 
L 10.890625 53.90625 
Q 18.265625 57.375 23.78125 62.296875 
Q 29.296875 67.234375 31.59375 71.875 
L 37.25 71.875 
z
" id="ArialMT-49"/>
      </defs>
      <g style="fill:#262626;" transform="translate(7.2 245.432831)scale(0.11 -0.11)">
       <use xlink:href="#ArialMT-48"/>
       <use x="55.615234" xlink:href="#ArialMT-46"/>
       <use x="83.398438" xlink:href="#ArialMT-49"/>
       <use x="139.013672" xlink:href="#ArialMT-48"/>
      </g>
     </g>
    </g>
    <g id="ytick_4">
     <g id="line2d_34">
      <path clip-path="url(#pc1053d56a3)" d="M 38.107031 197.533403 
L 540.307031 197.533403 
" style="fill:none;stroke:#ffffff;stroke-linecap:round;"/>
     </g>
     <g id="text_34">
      <!-- 0.15 -->
      <g style="fill:#262626;" transform="translate(7.2 201.4702)scale(0.11 -0.11)">
       <use xlink:href="#ArialMT-48"/>
       <use x="55.615234" xlink:href="#ArialMT-46"/>
       <use x="83.398438" xlink:href="#ArialMT-49"/>
       <use x="139.013672" xlink:href="#ArialMT-53"/>
      </g>
     </g>
    </g>
    <g id="ytick_5">
     <g id="line2d_35">
      <path clip-path="url(#pc1053d56a3)" d="M 38.107031 153.570772 
L 540.307031 153.570772 
" style="fill:none;stroke:#ffffff;stroke-linecap:round;"/>
     </g>
     <g id="text_35">
      <!-- 0.20 -->
      <defs>
       <path d="M 50.34375 8.453125 
L 50.34375 0 
L 3.03125 0 
Q 2.9375 3.171875 4.046875 6.109375 
Q 5.859375 10.9375 9.828125 15.625 
Q 13.8125 20.3125 21.34375 26.46875 
Q 33.015625 36.03125 37.109375 41.625 
Q 41.21875 47.21875 41.21875 52.203125 
Q 41.21875 57.421875 37.46875 61 
Q 33.734375 64.59375 27.734375 64.59375 
Q 21.390625 64.59375 17.578125 60.78125 
Q 13.765625 56.984375 13.71875 50.25 
L 4.6875 51.171875 
Q 5.609375 61.28125 11.65625 66.578125 
Q 17.71875 71.875 27.9375 71.875 
Q 38.234375 71.875 44.234375 66.15625 
Q 50.25 60.453125 50.25 52 
Q 50.25 47.703125 48.484375 43.546875 
Q 46.734375 39.40625 42.65625 34.8125 
Q 38.578125 30.21875 29.109375 22.21875 
Q 21.1875 15.578125 18.9375 13.203125 
Q 16.703125 10.84375 15.234375 8.453125 
z
" id="ArialMT-50"/>
      </defs>
      <g style="fill:#262626;" transform="translate(7.2 157.507569)scale(0.11 -0.11)">
       <use xlink:href="#ArialMT-48"/>
       <use x="55.615234" xlink:href="#ArialMT-46"/>
       <use x="83.398438" xlink:href="#ArialMT-50"/>
       <use x="139.013672" xlink:href="#ArialMT-48"/>
      </g>
     </g>
    </g>
    <g id="ytick_6">
     <g id="line2d_36">
      <path clip-path="url(#pc1053d56a3)" d="M 38.107031 109.608141 
L 540.307031 109.608141 
" style="fill:none;stroke:#ffffff;stroke-linecap:round;"/>
     </g>
     <g id="text_36">
      <!-- 0.25 -->
      <g style="fill:#262626;" transform="translate(7.2 113.544938)scale(0.11 -0.11)">
       <use xlink:href="#ArialMT-48"/>
       <use x="55.615234" xlink:href="#ArialMT-46"/>
       <use x="83.398438" xlink:href="#ArialMT-50"/>
       <use x="139.013672" xlink:href="#ArialMT-53"/>
      </g>
     </g>
    </g>
    <g id="ytick_7">
     <g id="line2d_37">
      <path clip-path="url(#pc1053d56a3)" d="M 38.107031 65.645511 
L 540.307031 65.645511 
" style="fill:none;stroke:#ffffff;stroke-linecap:round;"/>
     </g>
     <g id="text_37">
      <!-- 0.30 -->
      <defs>
       <path d="M 4.203125 18.890625 
L 12.984375 20.0625 
Q 14.5 12.59375 18.140625 9.296875 
Q 21.78125 6 27 6 
Q 33.203125 6 37.46875 10.296875 
Q 41.75 14.59375 41.75 20.953125 
Q 41.75 27 37.796875 30.921875 
Q 33.84375 34.859375 27.734375 34.859375 
Q 25.25 34.859375 21.53125 33.890625 
L 22.515625 41.609375 
Q 23.390625 41.5 23.921875 41.5 
Q 29.546875 41.5 34.03125 44.421875 
Q 38.53125 47.359375 38.53125 53.46875 
Q 38.53125 58.296875 35.25 61.46875 
Q 31.984375 64.65625 26.8125 64.65625 
Q 21.6875 64.65625 18.265625 61.421875 
Q 14.84375 58.203125 13.875 51.765625 
L 5.078125 53.328125 
Q 6.6875 62.15625 12.390625 67.015625 
Q 18.109375 71.875 26.609375 71.875 
Q 32.46875 71.875 37.390625 69.359375 
Q 42.328125 66.84375 44.9375 62.5 
Q 47.5625 58.15625 47.5625 53.265625 
Q 47.5625 48.640625 45.0625 44.828125 
Q 42.578125 41.015625 37.703125 38.765625 
Q 44.046875 37.3125 47.5625 32.6875 
Q 51.078125 28.078125 51.078125 21.140625 
Q 51.078125 11.765625 44.234375 5.25 
Q 37.40625 -1.265625 26.953125 -1.265625 
Q 17.53125 -1.265625 11.296875 4.34375 
Q 5.078125 9.96875 4.203125 18.890625 
z
" id="ArialMT-51"/>
      </defs>
      <g style="fill:#262626;" transform="translate(7.2 69.582307)scale(0.11 -0.11)">
       <use xlink:href="#ArialMT-48"/>
       <use x="55.615234" xlink:href="#ArialMT-46"/>
       <use x="83.398438" xlink:href="#ArialMT-51"/>
       <use x="139.013672" xlink:href="#ArialMT-48"/>
      </g>
     </g>
    </g>
   </g>
   <g id="patch_3">
    <path clip-path="url(#pc1053d56a3)" d="M 42.292031 329.421296 
L 50.662031 329.421296 
L 50.662031 129.036642 
L 42.292031 129.036642 
z
" style="fill:#c44e52;stroke:#ffffff;stroke-linejoin:miter;"/>
   </g>
   <g id="patch_4">
    <path clip-path="url(#pc1053d56a3)" d="M 59.032031 329.421296 
L 67.402031 329.421296 
L 67.402031 154.951299 
L 59.032031 154.951299 
z
" style="fill:#c44e52;stroke:#ffffff;stroke-linejoin:miter;"/>
   </g>
   <g id="patch_5">
    <path clip-path="url(#pc1053d56a3)" d="M 75.772031 329.421296 
L 84.142031 329.421296 
L 84.142031 226.307919 
L 75.772031 226.307919 
z
" style="fill:#c44e52;stroke:#ffffff;stroke-linejoin:miter;"/>
   </g>
   <g id="patch_6">
    <path clip-path="url(#pc1053d56a3)" d="M 92.512031 329.421296 
L 100.882031 329.421296 
L 100.882031 265.003759 
L 92.512031 265.003759 
z
" style="fill:#c44e52;stroke:#ffffff;stroke-linejoin:miter;"/>
   </g>
   <g id="patch_7">
    <path clip-path="url(#pc1053d56a3)" d="M 109.252031 329.421296 
L 117.622031 329.421296 
L 117.622031 270.273548 
L 109.252031 270.273548 
z
" style="fill:#c44e52;stroke:#ffffff;stroke-linejoin:miter;"/>
   </g>
   <g id="patch_8">
    <path clip-path="url(#pc1053d56a3)" d="M 125.992031 329.421296 
L 134.362031 329.421296 
L 134.362031 285.905777 
L 125.992031 285.905777 
z
" style="fill:#c44e52;stroke:#ffffff;stroke-linejoin:miter;"/>
   </g>
   <g id="patch_9">
    <path clip-path="url(#pc1053d56a3)" d="M 142.732031 329.421296 
L 151.102031 329.421296 
L 151.102031 286.273124 
L 142.732031 286.273124 
z
" style="fill:#c44e52;stroke:#ffffff;stroke-linejoin:miter;"/>
   </g>
   <g id="patch_10">
    <path clip-path="url(#pc1053d56a3)" d="M 159.472031 329.421296 
L 167.842031 329.421296 
L 167.842031 303.078667 
L 159.472031 303.078667 
z
" style="fill:#c44e52;stroke:#ffffff;stroke-linejoin:miter;"/>
   </g>
   <g id="patch_11">
    <path clip-path="url(#pc1053d56a3)" d="M 176.212031 329.421296 
L 184.582031 329.421296 
L 184.582031 306.333722 
L 176.212031 306.333722 
z
" style="fill:#c44e52;stroke:#ffffff;stroke-linejoin:miter;"/>
   </g>
   <g id="patch_12">
    <path clip-path="url(#pc1053d56a3)" d="M 192.952031 329.421296 
L 201.322031 329.421296 
L 201.322031 310.212401 
L 192.952031 310.212401 
z
" style="fill:#c44e52;stroke:#ffffff;stroke-linejoin:miter;"/>
   </g>
   <g id="patch_13">
    <path clip-path="url(#pc1053d56a3)" d="M 209.692031 329.421296 
L 218.062031 329.421296 
L 218.062031 311.954691 
L 209.692031 311.954691 
z
" style="fill:#c44e52;stroke:#ffffff;stroke-linejoin:miter;"/>
   </g>
   <g id="patch_14">
    <path clip-path="url(#pc1053d56a3)" d="M 226.432031 329.421296 
L 234.802031 329.421296 
L 234.802031 312.688769 
L 226.432031 312.688769 
z
" style="fill:#c44e52;stroke:#ffffff;stroke-linejoin:miter;"/>
   </g>
   <g id="patch_15">
    <path clip-path="url(#pc1053d56a3)" d="M 243.172031 329.421296 
L 251.542031 329.421296 
L 251.542031 313.128071 
L 243.172031 313.128071 
z
" style="fill:#c44e52;stroke:#ffffff;stroke-linejoin:miter;"/>
   </g>
   <g id="patch_16">
    <path clip-path="url(#pc1053d56a3)" d="M 259.912031 329.421296 
L 268.282031 329.421296 
L 268.282031 318.392895 
L 259.912031 318.392895 
z
" style="fill:#c44e52;stroke:#ffffff;stroke-linejoin:miter;"/>
   </g>
   <g id="patch_17">
    <path clip-path="url(#pc1053d56a3)" d="M 276.652031 329.421296 
L 285.022031 329.421296 
L 285.022031 319.393824 
L 276.652031 319.393824 
z
" style="fill:#c44e52;stroke:#ffffff;stroke-linejoin:miter;"/>
   </g>
   <g id="patch_18">
    <path clip-path="url(#pc1053d56a3)" d="M 293.392031 329.421296 
L 301.762031 329.421296 
L 301.762031 321.437384 
L 293.392031 321.437384 
z
" style="fill:#c44e52;stroke:#ffffff;stroke-linejoin:miter;"/>
   </g>
   <g id="patch_19">
    <path clip-path="url(#pc1053d56a3)" d="M 310.132031 329.421296 
L 318.502031 329.421296 
L 318.502031 322.144864 
L 310.132031 322.144864 
z
" style="fill:#c44e52;stroke:#ffffff;stroke-linejoin:miter;"/>
   </g>
   <g id="patch_20">
    <path clip-path="url(#pc1053d56a3)" d="M 326.872031 329.421296 
L 335.242031 329.421296 
L 335.242031 322.905452 
L 326.872031 322.905452 
z
" style="fill:#c44e52;stroke:#ffffff;stroke-linejoin:miter;"/>
   </g>
   <g id="patch_21">
    <path clip-path="url(#pc1053d56a3)" d="M 343.612031 329.421296 
L 351.982031 329.421296 
L 351.982031 324.05932 
L 343.612031 324.05932 
z
" style="fill:#c44e52;stroke:#ffffff;stroke-linejoin:miter;"/>
   </g>
   <g id="patch_22">
    <path clip-path="url(#pc1053d56a3)" d="M 360.352031 329.421296 
L 368.722031 329.421296 
L 368.722031 324.379073 
L 360.352031 324.379073 
z
" style="fill:#c44e52;stroke:#ffffff;stroke-linejoin:miter;"/>
   </g>
   <g id="patch_23">
    <path clip-path="url(#pc1053d56a3)" d="M 377.092031 329.421296 
L 385.462031 329.421296 
L 385.462031 324.932449 
L 377.092031 324.932449 
z
" style="fill:#c44e52;stroke:#ffffff;stroke-linejoin:miter;"/>
   </g>
   <g id="patch_24">
    <path clip-path="url(#pc1053d56a3)" d="M 393.832031 329.421296 
L 402.202031 329.421296 
L 402.202031 325.853627 
L 393.832031 325.853627 
z
" style="fill:#c44e52;stroke:#ffffff;stroke-linejoin:miter;"/>
   </g>
   <g id="patch_25">
    <path clip-path="url(#pc1053d56a3)" d="M 410.572031 329.421296 
L 418.942031 329.421296 
L 418.942031 326.762803 
L 410.572031 326.762803 
z
" style="fill:#c44e52;stroke:#ffffff;stroke-linejoin:miter;"/>
   </g>
   <g id="patch_26">
    <path clip-path="url(#pc1053d56a3)" d="M 427.312031 329.421296 
L 435.682031 329.421296 
L 435.682031 328.166699 
L 427.312031 328.166699 
z
" style="fill:#c44e52;stroke:#ffffff;stroke-linejoin:miter;"/>
   </g>
   <g id="patch_27">
    <path clip-path="url(#pc1053d56a3)" d="M 444.052031 329.421296 
L 452.422031 329.421296 
L 452.422031 328.169226 
L 444.052031 328.169226 
z
" style="fill:#c44e52;stroke:#ffffff;stroke-linejoin:miter;"/>
   </g>
   <g id="patch_28">
    <path clip-path="url(#pc1053d56a3)" d="M 460.792031 329.421296 
L 469.162031 329.421296 
L 469.162031 328.208018 
L 460.792031 328.208018 
z
" style="fill:#c44e52;stroke:#ffffff;stroke-linejoin:miter;"/>
   </g>
   <g id="patch_29">
    <path clip-path="url(#pc1053d56a3)" d="M 477.532031 329.421296 
L 485.902031 329.421296 
L 485.902031 328.251307 
L 477.532031 328.251307 
z
" style="fill:#c44e52;stroke:#ffffff;stroke-linejoin:miter;"/>
   </g>
   <g id="patch_30">
    <path clip-path="url(#pc1053d56a3)" d="M 494.272031 329.421296 
L 502.642031 329.421296 
L 502.642031 328.265779 
L 494.272031 328.265779 
z
" style="fill:#c44e52;stroke:#ffffff;stroke-linejoin:miter;"/>
   </g>
   <g id="patch_31">
    <path clip-path="url(#pc1053d56a3)" d="M 511.012031 329.421296 
L 519.382031 329.421296 
L 519.382031 328.341556 
L 511.012031 328.341556 
z
" style="fill:#c44e52;stroke:#ffffff;stroke-linejoin:miter;"/>
   </g>
   <g id="patch_32">
    <path clip-path="url(#pc1053d56a3)" d="M 527.752031 329.421296 
L 536.122031 329.421296 
L 536.122031 328.573603 
L 527.752031 328.573603 
z
" style="fill:#c44e52;stroke:#ffffff;stroke-linejoin:miter;"/>
   </g>
   <g id="LineCollection_1">
    <path clip-path="url(#pc1053d56a3)" d="M 46.477031 219.128297 
L 46.477031 38.944986 
" style="fill:none;stroke:#262626;stroke-width:1.5;"/>
    <path clip-path="url(#pc1053d56a3)" d="M 63.217031 255.04043 
L 63.217031 54.862168 
" style="fill:none;stroke:#262626;stroke-width:1.5;"/>
    <path clip-path="url(#pc1053d56a3)" d="M 79.957031 277.91322 
L 79.957031 174.702618 
" style="fill:none;stroke:#262626;stroke-width:1.5;"/>
    <path clip-path="url(#pc1053d56a3)" d="M 96.697031 321.846392 
L 96.697031 208.161127 
" style="fill:none;stroke:#262626;stroke-width:1.5;"/>
    <path clip-path="url(#pc1053d56a3)" d="M 113.437031 316.672722 
L 113.437031 223.874374 
" style="fill:none;stroke:#262626;stroke-width:1.5;"/>
    <path clip-path="url(#pc1053d56a3)" d="M 130.177031 306.82971 
L 130.177031 264.981843 
" style="fill:none;stroke:#262626;stroke-width:1.5;"/>
    <path clip-path="url(#pc1053d56a3)" d="M 146.917031 335.454077 
L 146.917031 237.092171 
" style="fill:none;stroke:#262626;stroke-width:1.5;"/>
    <path clip-path="url(#pc1053d56a3)" d="M 163.657031 322.45235 
L 163.657031 283.704983 
" style="fill:none;stroke:#262626;stroke-width:1.5;"/>
    <path clip-path="url(#pc1053d56a3)" d="M 180.397031 330.846088 
L 180.397031 281.821355 
" style="fill:none;stroke:#262626;stroke-width:1.5;"/>
    <path clip-path="url(#pc1053d56a3)" d="M 197.137031 332.797875 
L 197.137031 287.626926 
" style="fill:none;stroke:#262626;stroke-width:1.5;"/>
    <path clip-path="url(#pc1053d56a3)" d="M 213.877031 331.710677 
L 213.877031 292.198705 
" style="fill:none;stroke:#262626;stroke-width:1.5;"/>
    <path clip-path="url(#pc1053d56a3)" d="M 230.617031 328.476057 
L 230.617031 296.901481 
" style="fill:none;stroke:#262626;stroke-width:1.5;"/>
    <path clip-path="url(#pc1053d56a3)" d="M 247.357031 334.238614 
L 247.357031 292.017529 
" style="fill:none;stroke:#262626;stroke-width:1.5;"/>
    <path clip-path="url(#pc1053d56a3)" d="M 264.097031 333.258499 
L 264.097031 303.527292 
" style="fill:none;stroke:#262626;stroke-width:1.5;"/>
    <path clip-path="url(#pc1053d56a3)" d="M 280.837031 329.914703 
L 280.837031 308.872946 
" style="fill:none;stroke:#262626;stroke-width:1.5;"/>
    <path clip-path="url(#pc1053d56a3)" d="M 297.577031 333.005539 
L 297.577031 309.869228 
" style="fill:none;stroke:#262626;stroke-width:1.5;"/>
    <path clip-path="url(#pc1053d56a3)" d="M 314.317031 330.667262 
L 314.317031 313.622466 
" style="fill:none;stroke:#262626;stroke-width:1.5;"/>
    <path clip-path="url(#pc1053d56a3)" d="M 331.057031 325.341702 
L 331.057031 320.469203 
" style="fill:none;stroke:#262626;stroke-width:1.5;"/>
    <path clip-path="url(#pc1053d56a3)" d="M 347.797031 333.065087 
L 347.797031 315.053553 
" style="fill:none;stroke:#262626;stroke-width:1.5;"/>
    <path clip-path="url(#pc1053d56a3)" d="M 364.537031 330.409977 
L 364.537031 318.348168 
" style="fill:none;stroke:#262626;stroke-width:1.5;"/>
    <path clip-path="url(#pc1053d56a3)" d="M 381.277031 327.204701 
L 381.277031 322.660196 
" style="fill:none;stroke:#262626;stroke-width:1.5;"/>
    <path clip-path="url(#pc1053d56a3)" d="M 398.017031 327.834047 
L 398.017031 323.873207 
" style="fill:none;stroke:#262626;stroke-width:1.5;"/>
    <path clip-path="url(#pc1053d56a3)" d="M 414.757031 328.368791 
L 414.757031 325.156816 
" style="fill:none;stroke:#262626;stroke-width:1.5;"/>
    <path clip-path="url(#pc1053d56a3)" d="M 431.497031 329.67103 
L 431.497031 326.662367 
" style="fill:none;stroke:#262626;stroke-width:1.5;"/>
    <path clip-path="url(#pc1053d56a3)" d="M 448.237031 329.195668 
L 448.237031 327.142784 
" style="fill:none;stroke:#262626;stroke-width:1.5;"/>
    <path clip-path="url(#pc1053d56a3)" d="M 464.977031 328.975516 
L 464.977031 327.44052 
" style="fill:none;stroke:#262626;stroke-width:1.5;"/>
    <path clip-path="url(#pc1053d56a3)" d="M 481.717031 329.115334 
L 481.717031 327.387281 
" style="fill:none;stroke:#262626;stroke-width:1.5;"/>
    <path clip-path="url(#pc1053d56a3)" d="M 498.457031 328.622764 
L 498.457031 327.908794 
" style="fill:none;stroke:#262626;stroke-width:1.5;"/>
    <path clip-path="url(#pc1053d56a3)" d="M 515.197031 328.704049 
L 515.197031 327.979062 
" style="fill:none;stroke:#262626;stroke-width:1.5;"/>
    <path clip-path="url(#pc1053d56a3)" d="M 531.937031 329.764263 
L 531.937031 327.382942 
" style="fill:none;stroke:#262626;stroke-width:1.5;"/>
   </g>
   <g id="patch_33">
    <path d="M 38.107031 350.279531 
L 38.107031 24.119531 
" style="fill:none;stroke:#ffffff;stroke-linecap:square;stroke-linejoin:miter;stroke-width:1.25;"/>
   </g>
   <g id="patch_34">
    <path d="M 540.307031 350.279531 
L 540.307031 24.119531 
" style="fill:none;stroke:#ffffff;stroke-linecap:square;stroke-linejoin:miter;stroke-width:1.25;"/>
   </g>
   <g id="patch_35">
    <path d="M 38.107031 350.279531 
L 540.307031 350.279531 
" style="fill:none;stroke:#ffffff;stroke-linecap:square;stroke-linejoin:miter;stroke-width:1.25;"/>
   </g>
   <g id="patch_36">
    <path d="M 38.107031 24.119531 
L 540.307031 24.119531 
" style="fill:none;stroke:#ffffff;stroke-linecap:square;stroke-linejoin:miter;stroke-width:1.25;"/>
   </g>
   <g id="text_38">
    <!-- Feature Importances of Random Forest Classifier -->
    <defs>
     <path d="M 8.203125 0 
L 8.203125 71.578125 
L 56.5 71.578125 
L 56.5 63.140625 
L 17.671875 63.140625 
L 17.671875 40.96875 
L 51.265625 40.96875 
L 51.265625 32.515625 
L 17.671875 32.515625 
L 17.671875 0 
z
" id="ArialMT-70"/>
     <path id="ArialMT-32"/>
     <path d="M 8.6875 0 
L 8.6875 45.015625 
L 0.921875 45.015625 
L 0.921875 51.859375 
L 8.6875 51.859375 
L 8.6875 57.375 
Q 8.6875 62.59375 9.625 65.140625 
Q 10.890625 68.5625 14.078125 70.671875 
Q 17.28125 72.796875 23.046875 72.796875 
Q 26.765625 72.796875 31.25 71.921875 
L 29.9375 64.265625 
Q 27.203125 64.75 24.75 64.75 
Q 20.75 64.75 19.09375 63.03125 
Q 17.4375 61.328125 17.4375 56.640625 
L 17.4375 51.859375 
L 27.546875 51.859375 
L 27.546875 45.015625 
L 17.4375 45.015625 
L 17.4375 0 
z
" id="ArialMT-102"/>
    </defs>
    <g style="fill:#262626;" transform="translate(124.9875 18.119531)scale(0.15 -0.15)">
     <use xlink:href="#ArialMT-70"/>
     <use x="61.083984" xlink:href="#ArialMT-101"/>
     <use x="116.699219" xlink:href="#ArialMT-97"/>
     <use x="172.314453" xlink:href="#ArialMT-116"/>
     <use x="200.097656" xlink:href="#ArialMT-117"/>
     <use x="255.712891" xlink:href="#ArialMT-114"/>
     <use x="289.013672" xlink:href="#ArialMT-101"/>
     <use x="344.628906" xlink:href="#ArialMT-32"/>
     <use x="372.412109" xlink:href="#ArialMT-73"/>
     <use x="400.195312" xlink:href="#ArialMT-109"/>
     <use x="483.496094" xlink:href="#ArialMT-112"/>
     <use x="539.111328" xlink:href="#ArialMT-111"/>
     <use x="594.726562" xlink:href="#ArialMT-114"/>
     <use x="628.027344" xlink:href="#ArialMT-116"/>
     <use x="655.810547" xlink:href="#ArialMT-97"/>
     <use x="711.425781" xlink:href="#ArialMT-110"/>
     <use x="767.041016" xlink:href="#ArialMT-99"/>
     <use x="817.041016" xlink:href="#ArialMT-101"/>
     <use x="872.65625" xlink:href="#ArialMT-115"/>
     <use x="922.65625" xlink:href="#ArialMT-32"/>
     <use x="950.439453" xlink:href="#ArialMT-111"/>
     <use x="1006.054688" xlink:href="#ArialMT-102"/>
     <use x="1033.837891" xlink:href="#ArialMT-32"/>
     <use x="1061.621094" xlink:href="#ArialMT-82"/>
     <use x="1133.837891" xlink:href="#ArialMT-97"/>
     <use x="1189.453125" xlink:href="#ArialMT-110"/>
     <use x="1245.068359" xlink:href="#ArialMT-100"/>
     <use x="1300.683594" xlink:href="#ArialMT-111"/>
     <use x="1356.298828" xlink:href="#ArialMT-109"/>
     <use x="1439.599609" xlink:href="#ArialMT-32"/>
     <use x="1467.382812" xlink:href="#ArialMT-70"/>
     <use x="1528.466797" xlink:href="#ArialMT-111"/>
     <use x="1584.082031" xlink:href="#ArialMT-114"/>
     <use x="1617.382812" xlink:href="#ArialMT-101"/>
     <use x="1672.998047" xlink:href="#ArialMT-115"/>
     <use x="1722.998047" xlink:href="#ArialMT-116"/>
     <use x="1750.78125" xlink:href="#ArialMT-32"/>
     <use x="1778.564453" xlink:href="#ArialMT-67"/>
     <use x="1850.78125" xlink:href="#ArialMT-108"/>
     <use x="1872.998047" xlink:href="#ArialMT-97"/>
     <use x="1928.613281" xlink:href="#ArialMT-115"/>
     <use x="1978.613281" xlink:href="#ArialMT-115"/>
     <use x="2028.613281" xlink:href="#ArialMT-105"/>
     <use x="2050.830078" xlink:href="#ArialMT-102"/>
     <use x="2078.613281" xlink:href="#ArialMT-105"/>
     <use x="2100.830078" xlink:href="#ArialMT-101"/>
     <use x="2156.445312" xlink:href="#ArialMT-114"/>
    </g>
   </g>
  </g>
 </g>
 <defs>
  <clipPath id="pc1053d56a3">
   <rect height="326.16" width="502.2" x="38.107031" y="24.119531"/>
  </clipPath>
 </defs>
</svg>
